<svg version="1.1" xmlns="http://www.w3.org/2000/svg" width="300px" height="308px" transform="rotate(0) scale(1, 1)">
<path d="M0 0 C0 23.76 0 47.52 0 72 C-8 75 -8 75 -11.74609375 76.39453125 C-19.0947622 79.2173531 -25.7678231 82.11160318 -32 87 C-33.01707031 87.78117187 -34.03414063 88.56234375 -35.08203125 89.3671875 C-52.27956605 102.977584 -62.39734741 120.65097303 -67 142 C-67.1743457 142.78963135 -67.34869141 143.5792627 -67.52832031 144.39282227 C-69.71879111 156.5005022 -68.77655864 169.9259379 -65.33520508 181.68261719 C-64.20770885 185.56100685 -63.75983991 188.13234945 -65 192 C-66.65136719 193.45043945 -66.65136719 193.45043945 -68.796875 194.61328125 C-69.58449219 195.05260986 -70.37210937 195.49193848 -71.18359375 195.94458008 C-72.03050781 196.39599365 -72.87742187 196.84740723 -73.75 197.3125 C-75.4956296 198.27973927 -77.24041927 199.24849594 -78.984375 200.21875 C-79.84224609 200.69054687 -80.70011719 201.16234375 -81.58398438 201.6484375 C-84.78869138 203.44120811 -87.89025925 205.35952272 -91 207.3125 C-95.46853345 210.0885764 -99.9890678 212.67271489 -104.625 215.15625 C-109.45164754 217.79302967 -114.22454082 220.52185761 -119 223.25 C-119.93328125 223.78206055 -120.8665625 224.31412109 -121.828125 224.86230469 C-122.70984375 225.36665039 -123.5915625 225.87099609 -124.5 226.390625 C-125.69109375 227.0717334 -125.69109375 227.0717334 -126.90625 227.76660156 C-128.63905209 228.7873707 -130.32665341 229.88443561 -132 231 C-134.3828125 231.0859375 -134.3828125 231.0859375 -137 230 C-138.97045343 227.73649695 -140.40237623 225.23115654 -141.875 222.625 C-142.29007813 221.93921875 -142.70515625 221.2534375 -143.1328125 220.546875 C-144.18198505 218.7492927 -145.10081238 216.87710596 -146 215 C-144.70419403 211.1125821 -143.33865154 210.76138625 -139.8125 208.77734375 C-138.73033203 208.16181641 -137.64816406 207.54628906 -136.53320312 206.91210938 C-135.35550411 206.25384298 -134.17776891 205.59564132 -133 204.9375 C-131.79564838 204.25557283 -130.59187498 203.57262347 -129.38867188 202.88867188 C-127.003094 201.53309806 -124.61555942 200.18108093 -122.2265625 198.83154297 C-118.29130152 196.59771065 -114.39034895 194.31084241 -110.5 192 C-103.05039785 187.59472014 -95.5585396 183.26308016 -88.0625 178.9375 C-87.47694336 178.59936279 -86.89138672 178.26122559 -86.28808594 177.9128418 C-84.62084858 176.95030575 -82.95301462 175.98880332 -81.28515625 175.02734375 C-79.82928101 174.18804321 -79.82928101 174.18804321 -78.34399414 173.33178711 C-76.91510304 172.51993408 -75.46992112 171.73496056 -74 171 C-83.29672243 172.38469618 -92.55224741 173.94853813 -101.8046875 175.6015625 C-103.18176087 175.84562421 -104.5588881 176.0893822 -105.93606567 176.33285522 C-111.71462704 177.35448942 -117.49294738 178.37739107 -123.26953125 179.41015625 C-126.83031581 180.04657073 -130.39209816 180.67711196 -133.95459366 181.30387497 C-135.30008302 181.54171849 -136.64519462 181.7817102 -137.98989487 182.02397537 C-139.86841329 182.36218274 -141.74839543 182.6922289 -143.62841797 183.02197266 C-144.69285126 183.21135406 -145.75728455 183.40073547 -146.85397339 183.59585571 C-150.26636373 184.03421757 -153.56326714 184.0677277 -157 184 C-157.50031733 181.77043053 -157.99738428 179.54026012 -158.48828125 177.30859375 C-158.85349129 175.66096679 -159.23411313 174.01672484 -159.625 172.375 C-160.12011493 169.23927211 -160.02216701 166.16988257 -160 163 C-143.9386832 159.71797312 -127.85266759 156.62752488 -111.70898438 153.77758789 C-108.31263382 153.1764617 -104.91806865 152.5658307 -101.5234375 151.95507812 C-99.33603922 151.56713438 -97.1485429 151.17974289 -94.9609375 150.79296875 C-93.95993011 150.61179001 -92.95892273 150.43061127 -91.92758179 150.24394226 C-86.86835185 149.36085528 -82.13581722 148.79554726 -77 149 C-77 148.34 -77 147.68 -77 147 C-77.68130478 146.9589917 -78.36260956 146.9179834 -79.06455994 146.87573242 C-87.79841661 146.25834043 -96.33516257 144.85845564 -104.94140625 143.3125 C-106.44157281 143.04687213 -107.94181335 142.7816618 -109.44212341 142.5168457 C-112.55975706 141.96541324 -115.67672843 141.41042898 -118.79321289 140.85253906 C-122.78688797 140.13770987 -126.78174294 139.42975364 -130.77705479 138.72413635 C-133.86313063 138.17872219 -136.94876675 137.63085571 -140.03425407 137.0821228 C-141.50816963 136.82008144 -142.98217448 136.55854173 -144.45627022 136.29751587 C-146.50715943 135.93374533 -148.55748306 135.56694604 -150.60766602 135.19921875 C-151.77282242 134.99127686 -152.93797882 134.78333496 -154.13844299 134.5690918 C-157 134 -157 134 -160 133 C-160.13466603 128.01094425 -159.70301802 123.50990205 -158.6875 118.625 C-158.44386719 117.40039062 -158.20023438 116.17578125 -157.94921875 114.9140625 C-157.63597656 113.95242187 -157.32273438 112.99078125 -157 112 C-152.81627738 110.60542579 -149.25306937 111.65280325 -145.0234375 112.44140625 C-144.11714096 112.60434677 -143.21084442 112.76728729 -142.27708435 112.93516541 C-139.30841294 113.47064027 -136.34176018 114.01654455 -133.375 114.5625 C-131.33825808 114.93167057 -129.30139195 115.30015649 -127.2644043 115.66796875 C-122.14436302 116.59426321 -117.02590184 117.52895671 -111.90802002 118.46710205 C-106.74058909 119.4140396 -101.57230061 120.35628222 -96.40386963 121.29774475 C-92.8113953 121.95223443 -89.21935281 122.60883992 -85.62841797 123.27172852 C-84.37561035 123.50174561 -83.12280273 123.7317627 -81.83203125 123.96875 C-80.74639893 124.16919922 -79.6607666 124.36964844 -78.54223633 124.57617188 C-76.10075848 125.05481502 -76.10075848 125.05481502 -74 125 C-74.72251953 124.58862793 -75.44503906 124.17725586 -76.18945312 123.75341797 C-89.99671437 115.8881635 -103.79240288 108.00625552 -117.49829102 99.96508789 C-122.20615454 97.20412417 -126.92433011 94.4675567 -131.6796875 91.7890625 C-132.56841553 91.28544189 -133.45714355 90.78182129 -134.37280273 90.26293945 C-136.03731457 89.32159107 -137.70589592 88.38738905 -139.37915039 87.46166992 C-140.4734436 86.84062378 -140.4734436 86.84062378 -141.58984375 86.20703125 C-142.22784912 85.8510083 -142.86585449 85.49498535 -143.52319336 85.12817383 C-145 84 -145 84 -146 81 C-144.72103877 78.33009476 -143.40093844 75.89611569 -141.875 73.375 C-141.483125 72.68148437 -141.09125 71.98796875 -140.6875 71.2734375 C-140.29304688 70.6134375 -139.89859375 69.9534375 -139.4921875 69.2734375 C-139.13495605 68.66935059 -138.77772461 68.06526367 -138.40966797 67.44287109 C-136.34651545 65.33112336 -134.93071516 65.12300592 -132 65 C-129.24291992 66.13305664 -129.24291992 66.13305664 -126.23046875 67.91015625 C-125.10616455 68.5635498 -123.98186035 69.21694336 -122.82348633 69.89013672 C-121.61133062 70.6139895 -120.39933908 71.33811726 -119.1875 72.0625 C-117.93267135 72.79838069 -116.67704536 73.53290333 -115.4206543 74.26611328 C-112.85232925 75.76788513 -110.28894227 77.27758695 -107.72949219 78.79443359 C-104.30143097 80.82504677 -100.8602756 82.83234428 -97.4140625 84.83203125 C-85.91416133 91.50579787 -74.45315256 98.24637472 -63 105 C-67.80908161 98.26728575 -73.18592006 92.10428657 -78.62109375 85.87890625 C-85.7721908 77.68735405 -92.75019481 69.35570296 -99.58984375 60.90234375 C-101.42554472 58.69176705 -103.28633303 56.52837846 -105.19140625 54.37890625 C-105.73933838 53.7562085 -106.28727051 53.13351074 -106.85180664 52.49194336 C-107.92759353 51.27337687 -109.01111488 50.06158282 -110.10327148 48.85766602 C-112.91390796 45.66399112 -114.6772267 43.30902353 -115 39 C-112.92375562 37.17878563 -110.83975198 35.3680994 -108.75 33.5625 C-108.16347656 33.04623047 -107.57695313 32.52996094 -106.97265625 31.99804688 C-106.39902344 31.50498047 -105.82539062 31.01191406 -105.234375 30.50390625 C-104.71069336 30.04830322 -104.18701172 29.5927002 -103.64746094 29.12329102 C-101.78984852 27.85671207 -100.19459981 27.41931042 -98 27 C-90.75569521 35.43272477 -83.5391983 43.88762349 -76.36767578 52.38232422 C-74.97540583 54.02908979 -73.57994527 55.67310067 -72.18359375 57.31640625 C-67.15741022 63.23489421 -62.18389866 69.189206 -57.28125 75.2109375 C-53.22417244 80.17113164 -49.10839253 85.08228946 -45 90 C-48.58556275 79.6291597 -52.34517861 69.32821027 -56.1796875 59.046875 C-56.64507815 57.79655332 -57.1103483 56.54618678 -57.57550049 55.29577637 C-60.45942126 47.54345342 -60.45942126 47.54345342 -63.35742188 39.79638672 C-64.32538663 37.2157817 -65.28904085 34.63364855 -66.24783325 32.04962158 C-67.14284062 29.63768334 -68.04401368 27.22802169 -68.95211792 24.82098389 C-69.35318756 23.73504944 -69.7542572 22.64911499 -70.16748047 21.53027344 C-70.52244598 20.5800531 -70.8774115 19.62983276 -71.24313354 18.65081787 C-72.01059792 15.96288227 -72.14773644 13.77892521 -72 11 C-65.90003973 8.0973619 -59.65206896 5.34550355 -53 4 C-49.97067829 5.51466086 -49.83011963 7.7108347 -48.70922852 10.86157227 C-48.48942322 11.47309647 -48.26961792 12.08462067 -48.04315186 12.7146759 C-47.31485903 14.7462003 -46.59692162 16.78122907 -45.87890625 18.81640625 C-45.37393696 20.23094038 -44.86830728 21.64523892 -44.36204529 23.05931091 C-43.02685388 26.79406656 -41.70030425 30.53183491 -40.37561035 34.27032471 C-39.03583714 38.04717375 -37.68870452 41.82139372 -36.34179688 45.59570312 C-34.82369675 49.85003684 -33.30622291 54.10457535 -31.79530334 58.36146545 C-29.58188777 64.59453189 -27.352876 70.81800094 -25 77 C-22.19610817 74.19610817 -22.6926815 71.55086093 -22.68115234 67.79638672 C-22.67110672 67.0548233 -22.6610611 66.31325989 -22.65071106 65.54922485 C-22.61976604 63.09272045 -22.6028128 60.63632557 -22.5859375 58.1796875 C-22.56723492 56.47859751 -22.5476622 54.77751689 -22.5272522 53.07644653 C-22.47582868 48.59500641 -22.43625784 44.11353617 -22.39910889 39.63195801 C-22.35913312 35.06055185 -22.30801155 30.48927205 -22.2578125 25.91796875 C-22.16093231 16.94540113 -22.0765664 7.97276234 -22 -1 C-19.27132267 -1.22262638 -16.54308042 -1.42852324 -13.8125 -1.625 C-13.04357422 -1.68945312 -12.27464844 -1.75390625 -11.48242188 -1.8203125 C-10.73154297 -1.871875 -9.98066406 -1.9234375 -9.20703125 -1.9765625 C-8.5210083 -2.02893066 -7.83498535 -2.08129883 -7.12817383 -2.13525391 C-5 -2 -5 -2 0 0 Z " fill="#ff0000" transform="translate(162,6)"/>
<path d="M0 0 C2.48002179 3.16259659 4.53686515 6.46810813 6.5625 9.9375 C7.16191406 10.95714844 7.76132813 11.97679687 8.37890625 13.02734375 C9.80694694 15.64599186 10.96607472 18.20685857 12 21 C11.16597656 21.95519531 10.33195312 22.91039062 9.47265625 23.89453125 C3.64373748 30.58583442 -2.11921077 37.30865546 -7.703125 44.20703125 C-10.84586687 48.02856261 -14.08472265 51.76441585 -17.33251953 55.49682617 C-20.07427153 58.67082065 -22.71400857 61.89114993 -25.2578125 65.2265625 C-25.79043701 65.91911133 -26.32306152 66.61166016 -26.87182617 67.32519531 C-27.89588904 68.66591445 -28.90710392 70.01657046 -29.90356445 71.37792969 C-33.30062683 75.8097532 -33.30062683 75.8097532 -36.52734375 76.6875 C-39.90889814 75.74728899 -41.61502518 74.05821718 -44.125 71.625 C-46.70841987 69.15151289 -49.0190147 66.98732354 -52 65 C-51.49895039 60.5688425 -50.06423223 58.55626888 -47 55.375 C-43.74500472 51.89924006 -40.6197883 48.39044221 -37.625 44.6875 C-34.29982224 40.58026823 -30.92347517 36.5250727 -27.5 32.5 C-24.16374993 28.57611498 -20.86728661 24.6273831 -17.625 20.625 C-11.91709605 13.6070853 -5.94899334 6.8132984 0 0 Z " fill="#ff0000" transform="translate(99,198)"/>
<path d="M0 0 C0.928125 0.804375 1.85625 1.60875 2.8125 2.4375 C7.79948412 6.71645551 12.90348535 10.85274576 18 15 C15.52565345 23.87342647 12.35730731 32.48381684 9.1875 41.125 C8.67358335 42.5337649 8.15991029 43.94261868 7.64648438 45.3515625 C6.10684345 49.57111138 4.55515976 53.78614992 3 58 C2.58406586 59.12988342 2.58406586 59.12988342 2.159729 60.28259277 C1.33487183 62.52029592 0.50596752 64.75645672 -0.32421875 66.9921875 C-0.57806839 67.68168488 -0.83191803 68.37118225 -1.09346008 69.08157349 C-2.88513645 73.88513645 -2.88513645 73.88513645 -4 75 C-11.34404482 74.72286623 -17.3619322 71.99819396 -24 69 C-23.44478681 61.82876944 -20.79624064 55.4336658 -18.30859375 48.734375 C-17.83846175 47.45146171 -17.36907787 46.16827404 -16.90040588 44.88482666 C-15.67147155 41.52364657 -14.43522627 38.16521158 -13.1965332 34.80761719 C-11.20932887 29.4206252 -9.22855181 24.03131616 -7.25688362 18.63861847 C-6.56749676 16.75865361 -5.87185406 14.88098661 -5.1761322 13.00335693 C-4.7589241 11.86497375 -4.341716 10.72659058 -3.91186523 9.55371094 C-3.5418187 8.55112244 -3.17177216 7.54853394 -2.79051208 6.51556396 C-1.85010288 3.96247285 -1.85010288 3.96247285 -2 1 C-1.34 0.67 -0.68 0.34 0 0 Z " fill="#ff0000" transform="translate(114,222)"/>
<path d="M0 0 C13.87206248 3.82278131 13.87206248 3.82278131 19 7 C20.18564711 10.55694133 19.76585332 11.29835148 18.4453125 14.69921875 C18.08195801 15.64982178 17.71860352 16.6004248 17.34423828 17.57983398 C16.94188965 18.60536377 16.53954102 19.63089355 16.125 20.6875 C15.2914614 22.85929623 14.45813432 25.03117365 13.625 27.203125 C13.191875 28.32267578 12.75875 29.44222656 12.3125 30.59570312 C10.21710504 36.0306338 8.17093816 41.48380411 6.125 46.9375 C5.75648926 47.91227295 5.38797852 48.8870459 5.00830078 49.89135742 C4.65751465 50.82310791 4.30672852 51.7548584 3.9453125 52.71484375 C3.64125488 53.52042725 3.33719727 54.32601074 3.02392578 55.15600586 C1.61148429 59.07911768 0.31855213 63.0443436 -1 67 C-8.92 67 -16.84 67 -25 67 C-24.26363133 63.31815664 -23.47465943 60.27772579 -22.20581055 56.80175781 C-21.83840256 55.79010559 -21.47099457 54.77845337 -21.092453 53.73614502 C-20.49561455 52.11105011 -20.49561455 52.11105011 -19.88671875 50.453125 C-19.47589554 49.32735046 -19.06507233 48.20157593 -18.64179993 47.04168701 C-17.77184636 44.66060526 -16.90007162 42.28018823 -16.02661133 39.90039062 C-14.69820438 36.27917992 -13.37700095 32.65540124 -12.05664062 29.03125 C-11.20876599 26.71338335 -10.36047214 24.39567001 -9.51171875 22.078125 C-9.11989914 21.00282532 -8.72807953 19.92752563 -8.3243866 18.81964111 C-2.21485526 2.21485526 -2.21485526 2.21485526 0 0 Z " fill="#ff0000" transform="translate(192,10)"/>
<path d="M0 0 C6.27 0 12.54 0 19 0 C20 1 20 1 20.12025452 3.77772522 C20.1169236 5.63970802 20.1169236 5.63970802 20.11352539 7.53930664 C20.11367142 8.22220261 20.11381744 8.90509857 20.1139679 9.60868835 C20.11326876 11.87587614 20.1054764 14.14298274 20.09765625 16.41015625 C20.09579207 17.97814387 20.09436817 19.54613207 20.09336853 21.11412048 C20.08954334 25.24876503 20.07971306 29.38337466 20.06866455 33.51800537 C20.05845044 37.73400398 20.05387091 41.95000822 20.04882812 46.16601562 C20.03809079 54.44402647 20.02101436 62.7220089 20 71 C18.68 70.67 17.36 70.34 16 70 C16 70.99 16 71.98 16 73 C15.01 73 14.02 73 13 73 C13 73.66 13 74.32 13 75 C8.09269827 77.37450084 4.97724117 77.33586209 -1 78 C-0.67 52.26 -0.34 26.52 0 0 Z " fill="#ff0000" transform="translate(141,6)"/>
<path d="M0 0 C3.48077209 1.14099629 6.95932886 2.28860184 10.4375 3.4375 C11.43072266 3.76298828 12.42394531 4.08847656 13.44726562 4.42382812 C14.39150391 4.73642578 15.33574219 5.04902344 16.30859375 5.37109375 C17.18314209 5.65911865 18.05769043 5.94714355 18.95874023 6.24389648 C21 7 21 7 22 8 C22.09861598 9.62127423 22.12798767 11.24682368 22.12939453 12.87109375 C22.13254669 13.90886963 22.13569885 14.94664551 22.13894653 16.01586914 C22.1369223 17.14500732 22.13489807 18.27414551 22.1328125 19.4375 C22.13424759 21.16311157 22.13424759 21.16311157 22.13571167 22.92358398 C22.13639369 25.36149144 22.1345379 27.7994007 22.13037109 30.23730469 C22.12502317 33.98376518 22.13031539 37.73010577 22.13671875 41.4765625 C22.13605797 43.83854193 22.13477682 46.20052129 22.1328125 48.5625 C22.13483673 49.69163818 22.13686096 50.82077637 22.13894653 51.98413086 C22.13579437 53.02190674 22.13264221 54.05968262 22.12939453 55.12890625 C22.12859894 56.04744385 22.12780334 56.96598145 22.12698364 57.91235352 C22 60 22 60 21 61 C19.43827255 61.08685603 17.87270656 61.10702219 16.30859375 61.09765625 C15.36435547 61.09443359 14.42011719 61.09121094 13.44726562 61.08789062 C12.45404297 61.07951172 11.46082031 61.07113281 10.4375 61.0625 C9.44041016 61.05798828 8.44332031 61.05347656 7.41601562 61.04882812 C4.94395151 61.03700007 2.47200482 61.02051849 0 61 C-0.1536073 53.19434745 -0.30178897 45.38861271 -0.4429636 37.58272648 C-0.5086825 33.95849515 -0.57629966 30.3343196 -0.64819336 26.71020508 C-0.71745158 23.21547391 -0.78180408 19.72068427 -0.84269524 16.22579765 C-0.87863704 14.23754858 -0.91971453 12.24939453 -0.96083069 10.26124573 C-0.98092697 9.06007614 -1.00102325 7.85890656 -1.02172852 6.62133789 C-1.04171402 5.55766495 -1.06169952 4.493992 -1.08229065 3.39808655 C-1 1 -1 1 0 0 Z " fill="#ff0000" transform="translate(140,242)"/>
<path d="M0 0 C4.02105703 2.03483542 7.35926331 4.81673697 10.8125 7.6875 C11.78832031 8.49574219 12.76414063 9.30398437 13.76953125 10.13671875 C14.50558594 10.75160156 15.24164063 11.36648437 16 12 C15.48029834 16.14317714 14.37156909 18.12808464 11.5 21.125 C8.46015034 24.39661125 5.55509999 27.71183778 2.75 31.1875 C-1.43268498 36.35004475 -5.7426021 41.39216454 -10.10253906 46.4050293 C-12.83932707 49.50169382 -12.83932707 49.50169382 -15 53 C-20.1071756 52.44787291 -24.58930481 50.77933653 -29.36328125 48.98828125 C-32.21923433 47.91782773 -35.09894312 46.94088331 -38 46 C-37.52256754 41.7031079 -34.98171841 39.94024806 -32 37 C-30.03957881 34.82875861 -28.14405755 32.60419084 -26.25 30.375 C-25.72559326 29.76035889 -25.20118652 29.14571777 -24.66088867 28.51245117 C-19.1746584 22.06322573 -13.8211 15.50863223 -8.515625 8.91015625 C-7.70609375 7.90855469 -6.8965625 6.90695313 -6.0625 5.875 C-5.33160156 4.96492188 -4.60070312 4.05484375 -3.84765625 3.1171875 C-2 1 -2 1 0 0 Z " fill="#ff0000" transform="translate(238,33)"/>
<path d="M0 0 C0.99560547 1.8190918 0.99560547 1.8190918 1.8671875 4.19921875 C2.35638672 5.50922852 2.35638672 5.50922852 2.85546875 6.84570312 C3.19191406 7.78349609 3.52835938 8.72128906 3.875 9.6875 C4.22433594 10.63689453 4.57367188 11.58628906 4.93359375 12.56445312 C5.63620135 14.47912364 6.33384208 16.39562452 7.02636719 18.31396484 C7.87703089 20.66075572 8.74812975 22.99791545 9.6328125 25.33203125 C13.28625345 35.13369139 13.28625345 35.13369139 13 40 C6.32137824 43.01651083 0.36072234 45.57534294 -7 46 C-10.60938904 37.567524 -13.92306146 29.05247899 -17.0769043 20.44213867 C-17.82382356 18.40664113 -18.57877487 16.37423107 -19.33398438 14.34179688 C-19.81298581 13.03924105 -20.29151957 11.73651312 -20.76953125 10.43359375 C-21.19854736 9.26884521 -21.62756348 8.10409668 -22.06958008 6.90405273 C-23 4 -23 4 -23 1 C-19.73025053 0.63530576 -16.45911086 0.28506661 -13.1875 -0.0625 C-11.7943457 -0.2181543 -11.7943457 -0.2181543 -10.37304688 -0.37695312 C-9.48037109 -0.47041016 -8.58769531 -0.56386719 -7.66796875 -0.66015625 C-6.84578857 -0.74918213 -6.0236084 -0.83820801 -5.17651367 -0.92993164 C-3 -1 -3 -1 0 0 Z " fill="#ff0000" transform="translate(198,251)"/>
<path d="M0 0 C1.5333805 2.59748082 3.05179668 5.20187896 4.5625 7.8125 C5.00013672 8.55048828 5.43777344 9.28847656 5.88867188 10.04882812 C6.50258789 11.11713867 6.50258789 11.11713867 7.12890625 12.20703125 C7.51119385 12.8616333 7.89348145 13.51623535 8.28735352 14.19067383 C9 16 9 16 8 19 C5.81030273 20.54638672 5.81030273 20.54638672 2.93359375 22.1796875 C1.36834961 23.07880859 1.36834961 23.07880859 -0.22851562 23.99609375 C-1.32873047 24.61613281 -2.42894531 25.23617187 -3.5625 25.875 C-5.71026855 27.10045352 -7.85741657 28.3269953 -10.00390625 29.5546875 C-11.54449707 30.43060547 -11.54449707 30.43060547 -13.11621094 31.32421875 C-15.65885011 32.80175644 -18.14056882 34.3390406 -20.61328125 35.9296875 C-24 38 -24 38 -26.625 38.25 C-29.66056833 36.65233246 -31.26808199 34.58221112 -33.375 31.91015625 C-35.54217029 29.36268925 -38.03773009 27.39516902 -40.6796875 25.359375 C-42 24 -42 24 -42 21 C-41.42241943 20.72244873 -40.84483887 20.44489746 -40.24975586 20.15893555 C-33.1613118 16.69065863 -26.36024476 12.81584876 -19.5625 8.8125 C-18.48806641 8.18408203 -17.41363281 7.55566406 -16.30664062 6.90820312 C-4.14028384 -0.22379913 -4.14028384 -0.22379913 0 0 Z " fill="#ff0000" transform="translate(276,71)"/>
<path d="M0 0 C2.23828125 1.80078125 2.23828125 1.80078125 4.3125 4.3125 C5.45138672 5.67375 5.45138672 5.67375 6.61328125 7.0625 C7.40089844 8.031875 8.18851563 9.00125 9 10 C9.83917969 10.969375 10.67835938 11.93875 11.54296875 12.9375 C18.4242751 20.98939424 18.4242751 20.98939424 19 26 C16.9525632 27.87356954 14.88988259 29.72266062 12.8125 31.5625 C12.23435547 32.09552734 11.65621094 32.62855469 11.06054688 33.17773438 C6.75403316 36.9489752 6.75403316 36.9489752 3.40234375 37.17578125 C0.15891722 35.5883481 -1.93579956 33.3197597 -4.25 30.625 C-4.72308594 30.09060303 -5.19617188 29.55620605 -5.68359375 29.00561523 C-7.13841417 27.35017196 -8.57235705 25.67891206 -10 24 C-10.44021484 23.48421387 -10.88042969 22.96842773 -11.33398438 22.43701172 C-15.26249761 17.80611882 -18.97696463 13.28086491 -22 8 C-18 6 -14 4 -10 2 C-9.33484375 1.60554687 -8.6696875 1.21109375 -7.984375 0.8046875 C-5.11806965 -0.35763317 -3.06228884 -0.40011795 0 0 Z " fill="#ff0000" transform="translate(235,237)"/>
<path d="M0 0 C0 23.76 0 47.52 0 72 C-4 74 -4 74 -6.25 73.625 C-6.8275 73.41875 -7.405 73.2125 -8 73 C-7.01 73 -6.02 73 -5 73 C-5 72.01 -5 71.02 -5 70 C-4.01 70 -3.02 70 -2 70 C-2 47.23 -2 24.46 -2 1 C-8.27 0.67 -14.54 0.34 -21 0 C-20.99476318 2.29179199 -20.98952637 4.58358398 -20.98413086 6.94482422 C-20.96758448 14.50450619 -20.95652456 22.06418894 -20.94818783 29.6238842 C-20.9429622 34.20873851 -20.93587033 38.79357431 -20.92456055 43.37841797 C-20.91372033 47.80041817 -20.90772075 52.22240054 -20.90512276 56.64441299 C-20.90327056 58.33416144 -20.89965386 60.02390887 -20.89426994 61.71364975 C-20.88704449 64.07458378 -20.8860097 66.43544347 -20.88647461 68.79638672 C-20.88287933 69.49985229 -20.87928406 70.20331787 -20.87557983 70.92810059 C-20.88594784 75.77189568 -20.88594784 75.77189568 -22 78 C-19.03 77.505 -19.03 77.505 -16 77 C-19.75467691 80.05936637 -23.08113061 82 -28 82 C-27.67 79.36 -27.34 76.72 -27 74 C-26.34 74.99 -25.68 75.98 -25 77 C-22.19610817 74.19610817 -22.6926815 71.55086093 -22.68115234 67.79638672 C-22.67110672 67.0548233 -22.6610611 66.31325989 -22.65071106 65.54922485 C-22.61976604 63.09272045 -22.6028128 60.63632557 -22.5859375 58.1796875 C-22.56723492 56.47859751 -22.5476622 54.77751689 -22.5272522 53.07644653 C-22.47582868 48.59500641 -22.43625784 44.11353617 -22.39910889 39.63195801 C-22.35913312 35.06055185 -22.30801155 30.48927205 -22.2578125 25.91796875 C-22.16093231 16.94540113 -22.0765664 7.97276234 -22 -1 C-19.27132267 -1.22262638 -16.54308042 -1.42852324 -13.8125 -1.625 C-13.04357422 -1.68945312 -12.27464844 -1.75390625 -11.48242188 -1.8203125 C-10.73154297 -1.871875 -9.98066406 -1.9234375 -9.20703125 -1.9765625 C-8.17799683 -2.05511475 -8.17799683 -2.05511475 -7.12817383 -2.13525391 C-5 -2 -5 -2 0 0 Z " fill="#ff0000" transform="translate(162,6)"/>
<path d="M0 0 C3.48077209 1.14099629 6.95932886 2.28860184 10.4375 3.4375 C11.43072266 3.76298828 12.42394531 4.08847656 13.44726562 4.42382812 C14.39150391 4.73642578 15.33574219 5.04902344 16.30859375 5.37109375 C17.18314209 5.65911865 18.05769043 5.94714355 18.95874023 6.24389648 C21 7 21 7 22 8 C22.09861598 9.62127423 22.12798767 11.24682368 22.12939453 12.87109375 C22.13254669 13.90886963 22.13569885 14.94664551 22.13894653 16.01586914 C22.1369223 17.14500732 22.13489807 18.27414551 22.1328125 19.4375 C22.13424759 21.16311157 22.13424759 21.16311157 22.13571167 22.92358398 C22.13639369 25.36149144 22.1345379 27.7994007 22.13037109 30.23730469 C22.12502317 33.98376518 22.13031539 37.73010577 22.13671875 41.4765625 C22.13605797 43.83854193 22.13477682 46.20052129 22.1328125 48.5625 C22.13483673 49.69163818 22.13686096 50.82077637 22.13894653 51.98413086 C22.13579437 53.02190674 22.13264221 54.05968262 22.12939453 55.12890625 C22.12859894 56.04744385 22.12780334 56.96598145 22.12698364 57.91235352 C22 60 22 60 21 61 C19.43827255 61.08685603 17.87270656 61.10702219 16.30859375 61.09765625 C15.36435547 61.09443359 14.42011719 61.09121094 13.44726562 61.08789062 C12.45404297 61.07951172 11.46082031 61.07113281 10.4375 61.0625 C9.44041016 61.05798828 8.44332031 61.05347656 7.41601562 61.04882812 C4.94395151 61.03700007 2.47200482 61.02051849 0 61 C-0.1536073 53.19434745 -0.30178897 45.38861271 -0.4429636 37.58272648 C-0.5086825 33.95849515 -0.57629966 30.3343196 -0.64819336 26.71020508 C-0.71745158 23.21547391 -0.78180408 19.72068427 -0.84269524 16.22579765 C-0.87863704 14.23754858 -0.91971453 12.24939453 -0.96083069 10.26124573 C-0.98092697 9.06007614 -1.00102325 7.85890656 -1.02172852 6.62133789 C-1.04171402 5.55766495 -1.06169952 4.493992 -1.08229065 3.39808655 C-1 1 -1 1 0 0 Z M1 3 C1 21.48 1 39.96 1 59 C7.6 59 14.2 59 21 59 C21 42.5 21 26 21 9 C16.7900275 7.316011 15.21047434 6.75940147 11 7 C11 6.34 11 5.68 11 5 C9.02 5 7.04 5 5 5 C5 4.34 5 3.68 5 3 C3.68 3 2.36 3 1 3 Z " fill="#ff0000" transform="translate(140,242)"/>
<path d="M0 0 C1.29302425 3.87907276 0.18900377 6.46014497 -0.875 10.25 C-3.09341969 18.62842954 -3.50808767 26.77294226 -3.49560547 35.41894531 C-3.50736816 36.36092773 -3.51913086 37.30291016 -3.53125 38.2734375 C-3.52673828 39.11310059 -3.52222656 39.95276367 -3.51757812 40.81787109 C-4 43 -4 43 -5.84179688 44.85791016 C-6.55400391 45.2347998 -7.26621094 45.61168945 -8 46 C-9.485 45.505 -9.485 45.505 -11 45 C-10.01 44.505 -10.01 44.505 -9 44 C-9.88042969 44.144375 -10.76085937 44.28875 -11.66796875 44.4375 C-12.82941406 44.623125 -13.99085937 44.80875 -15.1875 45 C-16.33605469 45.185625 -17.48460938 45.37125 -18.66796875 45.5625 C-21.50415393 45.93489477 -24.14719564 46.08596021 -27 46 C-26.67 45.34 -26.34 44.68 -26 44 C-24.1875 43.62109375 -24.1875 43.62109375 -22 43.4375 C-19.21067942 43.37334592 -19.21067942 43.37334592 -17 42 C-15.14712498 41.92773498 -13.29166122 41.9161878 -11.4375 41.9375 C-10.42558594 41.94652344 -9.41367188 41.95554688 -8.37109375 41.96484375 C-7.19740234 41.98224609 -7.19740234 41.98224609 -6 42 C-6.00785522 41.00818726 -6.00785522 41.00818726 -6.01586914 39.99633789 C-6.03657656 37.01840149 -6.04964012 34.04048018 -6.0625 31.0625 C-6.07087891 30.02158203 -6.07925781 28.98066406 -6.08789062 27.90820312 C-6.09272461 26.42416992 -6.09272461 26.42416992 -6.09765625 24.91015625 C-6.10551147 23.53549194 -6.10551147 23.53549194 -6.11352539 22.13305664 C-6 20 -6 20 -5 19 C-4.79300437 17.50503158 -4.63320741 16.0033408 -4.5 14.5 C-4.11111111 10.11111111 -4.11111111 10.11111111 -3 9 C-2.95615553 7.33391013 -2.9603287 5.66619446 -3 4 C-3 3.01 -3 2.02 -3 1 C-2.01 0.67 -1.02 0.34 0 0 Z " fill="#ff0000" transform="translate(97,133)"/>
<path d="M0 0 C0.33 0.66 0.66 1.32 1 2 C2.65 2 4.3 2 6 2 C4.92188894 3.89880796 3.83726681 5.79391978 2.75 7.6875 C2.14671875 8.74324219 1.5434375 9.79898438 0.921875 10.88671875 C-0.8727487 13.79386323 -2.80728117 16.38523131 -5 19 C-5 17.35 -5 15.7 -5 14 C-4.34 14 -3.68 14 -3 14 C-3 13.01 -3 12.02 -3 11 C-2.34 11 -1.68 11 -1 11 C-1.33 10.01 -1.66 9.02 -2 8 C-3.155 7.67 -4.31 7.34 -5.5 7 C-6.655 6.67 -7.81 6.34 -9 6 C-9.33 5.01 -9.66 4.02 -10 3 C-9.01 3 -8.02 3 -7 3 C-7.33 2.34 -7.66 1.68 -8 1 C-5.36 0.67 -2.72 0.34 0 0 Z " fill="#ff0000" transform="translate(106,107)"/>
<path d="M0 0 C0.66 0 1.32 0 2 0 C2.48212214 1.56159059 2.96055873 3.12431928 3.4375 4.6875 C3.83775391 5.99267578 3.83775391 5.99267578 4.24609375 7.32421875 C4.96344529 9.87025921 5.517541 12.4003423 6 15 C6.66 15 7.32 15 8 15 C8 16.98 8 18.96 8 21 C10.31 21 12.62 21 15 21 C15 20.34 15 19.68 15 19 C18.82320557 17.57741188 21.91281305 16.75957724 26 17 C26 14.69 26 12.38 26 10 C28 12 28 12 28.125 14.625 C28.08375 15.40875 28.0425 16.1925 28 17 C21.32137824 20.01651083 15.36072234 22.57534294 8 23 C0 4.02766798 0 4.02766798 0 0 Z " fill="#ff0000" transform="translate(183,274)"/>
<path d="M0 0 C1.875 2.375 1.875 2.375 3 5 C2.67 5.66 2.34 6.32 2 7 C1.01 6.67 0.02 6.34 -1 6 C-1.825 6.165 -2.65 6.33 -3.5 6.5 C-6 7 -6 7 -9 6 C-9.33 6.474375 -9.66 6.94875 -10 7.4375 C-13.09813267 9.85791615 -16.12026792 9.68198917 -20 10 C-17.41638067 7.10456455 -14.44709838 5.2883615 -11.125 3.3125 C-10.09632813 2.68988281 -9.06765625 2.06726563 -8.0078125 1.42578125 C-4.96717402 -0.01556037 -3.30319554 -0.52550838 0 0 Z " fill="#ff0000" transform="translate(276,71)"/>
<path d="M0 0 C0.66 0 1.32 0 2 0 C2 1.65 2 3.3 2 5 C1.34 5 0.68 5 0 5 C0.02320313 5.58007812 0.04640625 6.16015625 0.0703125 6.7578125 C0.08835937 7.53898437 0.10640625 8.32015625 0.125 9.125 C0.14820313 9.89070313 0.17140625 10.65640625 0.1953125 11.4453125 C0 14 0 14 -2 20 C2.95 20.33 7.9 20.66 13 21 C13 21.66 13 22.32 13 23 C16.3 23 19.6 23 23 23 C23 23.66 23 24.32 23 25 C14.14101063 24.46588214 5.65479083 22.85710087 -3 21 C-3.15639125 15.93683317 -2.62766071 11.49601562 -1.5 6.5625 C-1.2215625 5.32628906 -0.943125 4.09007813 -0.65625 2.81640625 C-0.4396875 1.88699219 -0.223125 0.95757812 0 0 Z " fill="#ff0000" transform="translate(5,118)"/>
<path d="M0 0 C2.15377564 2.62198774 3.40072174 4.64404172 4 8 C3.34 8 2.68 8 2 8 C2 7.01 2 6.02 2 5 C1.21625 5.495 0.4325 5.99 -0.375 6.5 C-3 8 -3 8 -5 8 C-5.268125 8.969375 -5.53625 9.93875 -5.8125 10.9375 C-6.204375 11.948125 -6.59625 12.95875 -7 14 C-7.99 14.33 -8.98 14.66 -10 15 C-10.33 16.65 -10.66 18.3 -11 20 C-11.66 19.67 -12.32 19.34 -13 19 C-13.33 19.66 -13.66 20.32 -14 21 C-14.99 20.67 -15.98 20.34 -17 20 C-16.19175781 19.05898437 -15.38351563 18.11796875 -14.55078125 17.1484375 C-13.47133178 15.89064421 -12.39190596 14.63283063 -11.3125 13.375 C-10.78205078 12.75753906 -10.25160156 12.14007813 -9.70507812 11.50390625 C-6.43774572 7.69535927 -3.20310202 3.86273898 0 0 Z " fill="#ff0000" transform="translate(99,198)"/>
<path d="M0 0 C7.67102183 0.56220997 15.13469742 1.62314436 22.6875 3.0625 C23.68716797 3.24876953 24.68683594 3.43503906 25.71679688 3.62695312 C28.14541301 4.08013987 30.57307351 4.53786592 33 5 C33 5.33 33 5.66 33 6 C23.36908185 6.38353214 14.08820536 5.32495318 5 2 C3.33911955 1.63893903 1.67381019 1.29537827 0 1 C0 0.67 0 0.34 0 0 Z " fill="#ff0000" transform="translate(13,119)"/>
<path d="M0 0 C2.05264866 2.05264866 2.56528526 3.13767959 3.5078125 5.80859375 C3.77207031 6.55560547 4.03632812 7.30261719 4.30859375 8.07226562 C4.57800781 8.85279297 4.84742187 9.63332031 5.125 10.4375 C5.40214844 11.21416016 5.67929688 11.99082031 5.96484375 12.79101562 C8 18.61076047 8 18.61076047 8 22 C7.34 22 6.68 22 6 22 C5.67 20.35 5.34 18.7 5 17 C3.68 17.33 2.36 17.66 1 18 C0.95758277 15.66705225 0.95907063 13.33297433 1 11 C1.33 10.67 1.66 10.34 2 10 C1.505 8.63875 1.505 8.63875 1 7.25 C0 4 0 4 0 0 Z " fill="#ff0000" transform="translate(121,42)"/>
<path d="M0 0 C0.33 0.99 0.66 1.98 1 3 C8.26 2.67 15.52 2.34 23 2 C23 2.99 23 3.98 23 5 C15.08 5 7.16 5 -1 5 C-0.67 3.35 -0.34 1.7 0 0 Z " fill="#ff0000" transform="translate(168,72)"/>
<path d="M0 0 C3.94627764 0.56375395 6.79480075 1.59610056 10 4 C10.625 6.125 10.625 6.125 11 8 C11.99 8.33 12.98 8.66 14 9 C14 8.01 14 7.02 14 6 C14.99 6 15.98 6 17 6 C16.34 7.32 15.68 8.64 15 10 C11.48801955 10.44928038 10.24768639 10.17898506 7.32421875 8.06640625 C6.45410156 7.24011719 5.58398438 6.41382813 4.6875 5.5625 C3.80449219 4.73878906 2.92148437 3.91507812 2.01171875 3.06640625 C0 1 0 1 0 0 Z " fill="#ff0000" transform="translate(50,264)"/>
<path d="M0 0 C0.33 0 0.66 0 1 0 C2.125 6.625 2.125 6.625 1 10 C3.31 10 5.62 10 8 10 C8.66 11.32 9.32 12.64 10 14 C5.61110675 13.33501617 2.0188515 11.81242323 -2 10 C-1.54177532 6.53058454 -1.10868317 3.32604951 0 0 Z M8 8 C8.99 8.495 8.99 8.495 10 9 C9.01 9.495 9.01 9.495 8 10 C8 9.34 8 8.68 8 8 Z " fill="#ff0000" transform="translate(92,281)"/>
<path d="M0 0 C2.31 1.98 4.62 3.96 7 6 C3.29847322 6.92538169 2.36541838 7.08174162 -1 6 C-1 7.32 -1 8.64 -1 10 C-1.66 10 -2.32 10 -3 10 C-2.88637738 8.5199159 -2.75877092 7.04089926 -2.625 5.5625 C-2.55539063 4.73878906 -2.48578125 3.91507813 -2.4140625 3.06640625 C-2.27742188 2.38449219 -2.14078125 1.70257813 -2 1 C-1.34 0.67 -0.68 0.34 0 0 Z " fill="#ff0000" transform="translate(114,222)"/>
<path d="M0 0 C2.37715196 1.24603894 4.75169058 2.4966793 7.125 3.75 C7.79015625 4.09804687 8.4553125 4.44609375 9.140625 4.8046875 C13.26946336 6.9905431 17.15716643 9.3423394 21 12 C20.01 12.495 20.01 12.495 19 13 C16.375 12.0625 16.375 12.0625 14 11 C14 10.34 14 9.68 14 9 C12.35 9.33 10.7 9.66 9 10 C8.814375 9.4225 8.62875 8.845 8.4375 8.25 C6.29448878 4.89572157 3.51177437 3.82092004 0 2 C0 1.34 0 0.68 0 0 Z " fill="#ff0000" transform="translate(38,76)"/>
<path d="M0 0 C2.05264866 2.05264866 2.56528526 3.13767959 3.5078125 5.80859375 C3.77207031 6.55560547 4.03632812 7.30261719 4.30859375 8.07226562 C4.57800781 8.85279297 4.84742187 9.63332031 5.125 10.4375 C5.40214844 11.21416016 5.67929688 11.99082031 5.96484375 12.79101562 C8 18.61076047 8 18.61076047 8 22 C7.34 22 6.68 22 6 22 C5.34 18.7 4.68 15.4 4 12 C3.34 12 2.68 12 2 12 C2 10.35 2 8.7 2 7 C1.34 7 0.68 7 0 7 C0 4.69 0 2.38 0 0 Z " fill="#ff0000" transform="translate(113,20)"/>
<path d="M0 0 C3.33333333 3.33333333 6.66666667 6.66666667 10 10 C9.67 10.66 9.34 11.32 9 12 C8.566875 11.505 8.13375 11.01 7.6875 10.5 C6.00259517 8.66781808 6.00259517 8.66781808 3 9 C3 8.01 3 7.02 3 6 C1.68 6.33 0.36 6.66 -1 7 C-1.33 6.34 -1.66 5.68 -2 5 C-1.0625 2.375 -1.0625 2.375 0 0 Z " fill="#ff0000" transform="translate(67,38)"/>
<path d="M0 0 C0.99 0.66 1.98 1.32 3 2 C1.44499019 5.81684226 -1.03595495 8.19195732 -4 11 C-4.49230769 4.6 -4.49230769 4.6 -2 1.5625 C-1.34 1.046875 -0.68 0.53125 0 0 Z " fill="#ff0000" transform="translate(93,233)"/>
<path d="M0 0 C4.9240432 4.7652031 9.44259642 9.88657333 14 15 C13.67 15.66 13.34 16.32 13 17 C8.59910965 13.55065351 5.49348956 10.98697912 3 6 C2.34 5.67 1.68 5.34 1 5 C0.375 2.4375 0.375 2.4375 0 0 Z " fill="#ff0000" transform="translate(84,58)"/>
<path d="M0 0 C3.33557632 2.9905167 5.15083921 5.93184627 7 10 C10.37705625 9.46274105 13.696686 8.88935377 17 8 C13.92000054 11.67230705 11.7517398 12.56802365 7 13 C6.01364163 11.58833114 5.03618745 10.17043816 4.0625 8.75 C3.51722656 7.96109375 2.97195312 7.1721875 2.41015625 6.359375 C1.10377559 4.17363007 0.45019489 2.4846199 0 0 Z " fill="#ff0000" transform="translate(19,224)"/>
<path d="M0 0 C0.84119973 2.39957614 1.11193544 3.64922558 0.328125 6.10546875 C-0.02765625 6.79253906 -0.3834375 7.47960937 -0.75 8.1875 C-1.26820312 9.22970703 -1.26820312 9.22970703 -1.796875 10.29296875 C-3 12 -3 12 -6 13 C-5.67 14.32 -5.34 15.64 -5 17 C-5.99 16.67 -6.98 16.34 -8 16 C-6.57250019 12.20950293 -4.83763458 8.72877544 -2.875 5.1875 C-2.33617187 4.21167969 -1.79734375 3.23585938 -1.2421875 2.23046875 C-0.83226562 1.49441406 -0.42234375 0.75835937 0 0 Z " fill="#ff0000" transform="translate(24,73)"/>
<path d="M0 0 C-0.83144531 0.72316406 -0.83144531 0.72316406 -1.6796875 1.4609375 C-2.40414062 2.09257813 -3.12859375 2.72421875 -3.875 3.375 C-4.59429687 4.00148438 -5.31359375 4.62796875 -6.0546875 5.2734375 C-7.4076598 6.47426834 -8.7208345 7.7208345 -10 9 C-10.6875 6.6875 -10.6875 6.6875 -11 4 C-8.39360411 0.09040617 -4.37386199 -1.457954 0 0 Z " fill="#ff0000" transform="translate(124,98)"/>
<path d="M0 0 C1.4216868 4.26506039 -0.34613318 7.20037743 -1.9375 11.1875 C-2.22818359 11.93708984 -2.51886719 12.68667969 -2.81835938 13.45898438 C-3.53725036 15.30924477 -4.26754653 17.15506648 -5 19 C-5.33 19 -5.66 19 -6 19 C-6.33 16.69 -6.66 14.38 -7 12 C-6.01 12 -5.02 12 -4 12 C-4 10.35 -4 8.7 -4 7 C-3.34 7 -2.68 7 -2 7 C-2 5.35 -2 3.7 -2 2 C-1.34 2 -0.68 2 0 2 C0 1.34 0 0.68 0 0 Z " fill="#ff0000" transform="translate(209,22)"/>
<path d="M0 0 C0.75 1.6875 0.75 1.6875 1 4 C-1.13381449 7.2769294 -2.25018012 8.75006004 -6 10 C-6.33 10.66 -6.66 11.32 -7 12 C-7.66 11.67 -8.32 11.34 -9 11 C-7.68823998 9.35357683 -6.3755713 7.70787757 -5.0625 6.0625 C-4.33160156 5.14597656 -3.60070312 4.22945312 -2.84765625 3.28515625 C-1 1 -1 1 0 0 Z " fill="#ff0000" transform="translate(218,56)"/>
<path d="M0 0 C2.97 0.495 2.97 0.495 6 1 C6.061875 1.721875 6.12375 2.44375 6.1875 3.1875 C7.55814945 7.93205578 11.00504304 10.33669536 15 13 C10.74478235 12.69331765 8.81364545 11.20382102 6.00585938 8.05078125 C5.35327148 7.28314453 5.35327148 7.28314453 4.6875 6.5 C4.23310547 5.98824219 3.77871094 5.47648437 3.31054688 4.94921875 C0 1.17569314 0 1.17569314 0 0 Z " fill="#ff0000" transform="translate(226,261)"/>
<path d="M0 0 C0.66 0 1.32 0 2 0 C0.90301833 5.69139902 -0.54053077 10.74567937 -3 16 C-3.33 16 -3.66 16 -4 16 C-3.47606294 10.13190493 -2.23891142 5.45126259 0 0 Z " fill="#ff0000" transform="translate(127,244)"/>
<path d="M0 0 C-1.39332574 3.36720387 -2.9789286 4.9859524 -6 7 C-7.32 6.34 -8.64 5.68 -10 5 C-8.71186658 4.16121545 -7.41936744 3.32913217 -6.125 2.5 C-5.40570313 2.0359375 -4.68640625 1.571875 -3.9453125 1.09375 C-2 0 -2 0 0 0 Z " fill="#ff0000" transform="translate(79,183)"/>
<path d="M0 0 C0.5534764 2.07553648 1 3.84365964 1 6 C0.34 6 -0.32 6 -1 6 C-0.9175 6.9075 -0.835 7.815 -0.75 8.75 C-1.05464439 12.71037702 -2.14911051 13.4184859 -5 16 C-4.54548816 14.26982492 -4.08621143 12.54090123 -3.625 10.8125 C-3.36976562 9.84957031 -3.11453125 8.88664063 -2.8515625 7.89453125 C-2.05233704 5.17789793 -1.0968638 2.60862825 0 0 Z " fill="#ff0000" transform="translate(110,232)"/>
<path d="M0 0 C0.33 1.32 0.66 2.64 1 4 C-4.75 8 -4.75 8 -7 8 C-7 6 -7 6 -5 4 C-5 3.01 -5 2.02 -5 1 C-3.35 1.33 -1.7 1.66 0 2 C0 1.34 0 0.68 0 0 Z " fill="#ff0000" transform="translate(97,193)"/>
<path d="M0 0 C2.50037734 2.17424117 3.43628586 3.73045798 4 7 C-1.75 11 -1.75 11 -4 11 C-4 10.34 -4 9.68 -4 9 C-2.02 8.34 -0.04 7.68 2 7 C2 6.34 2 5.68 2 5 C1.34 5 0.68 5 0 5 C0 3.35 0 1.7 0 0 Z " fill="#ff0000" transform="translate(281,82)"/>
<path d="M0 0 C4.70491803 2.40983607 4.70491803 2.40983607 6 5 C4.9275 4.979375 3.855 4.95875 2.75 4.9375 C-0.14790424 4.9857984 -2.28612141 5.13155885 -5 6 C-2.25 1.125 -2.25 1.125 0 0 Z " fill="#ff0000" transform="translate(238,33)"/>
<path d="M0 0 C-1 3 -1 3 -4 5 C-5.19232613 7.05003955 -5.19232613 7.05003955 -6 9 C-6.66 7.35 -7.32 5.7 -8 4 C-2.25 0 -2.25 0 0 0 Z " fill="#ff0000" transform="translate(24,215)"/>
<path d="M0 0 C0 3 0 3 -1 6 C1.31 6 3.62 6 6 6 C6 6.66 6 7.32 6 8 C-1.75 7.125 -1.75 7.125 -4 6 C-3.6875 4.125 -3.6875 4.125 -3 2 C-2.01 1.34 -1.02 0.68 0 0 Z " fill="#ff0000" transform="translate(204,73)"/>
<path d="M0 0 C2.97 1.98 2.97 1.98 6 4 C5.625 6.4375 5.625 6.4375 5 9 C4.01 9.495 4.01 9.495 3 10 C3 8.68 3 7.36 3 6 C2.34 5.67 1.68 5.34 1 5 C0.375 2.4375 0.375 2.4375 0 0 Z " fill="#ff0000" transform="translate(248,41)"/>
<path d="M0 0 C0 2.64 0 5.28 0 8 C-2.5 6.1875 -2.5 6.1875 -5 4 C-5 3.01 -5 2.02 -5 1 C-3 0 -3 0 0 0 Z " fill="#ff0000" transform="translate(239,91)"/>
<path d="M0 0 C2.28268066 1.33812314 2.87080937 2.62979921 3.8125 5.0625 C3.255625 4.670625 2.69875 4.27875 2.125 3.875 C1.361875 3.606875 0.59875 3.33875 -0.1875 3.0625 C-2.81137135 4.45342892 -2.81137135 4.45342892 -5.1875 6.0625 C-5.8475 5.7325 -6.5075 5.4025 -7.1875 5.0625 C-2.81294675 0.08036991 -2.81294675 0.08036991 0 0 Z " fill="#ff0000" transform="translate(63.1875,32.9375)"/>
<path d="M0 0 C1.98 0 3.96 0 6 0 C3.63202009 2.61724095 1.10399646 4.32861729 -2 6 C-2.66 6 -3.32 6 -4 6 C-4 5.34 -4 4.68 -4 4 C-3.01 4 -2.02 4 -1 4 C-0.67 2.68 -0.34 1.36 0 0 Z " fill="#ff0000" transform="translate(264,97)"/>
<path d="M0 0 C4.75 0.75 4.75 0.75 7 3 C4.625 4.5625 4.625 4.5625 2 6 C1.34 5.67 0.68 5.34 0 5 C0 3.35 0 1.7 0 0 Z " fill="#ff0000" transform="translate(66,209)"/>
<path d="M0 0 C0.66 0 1.32 0 2 0 C2.33 0.66 2.66 1.32 3 2 C3.99 2.33 4.98 2.66 6 3 C7.25 4.875 7.25 4.875 8 7 C7.67 7.99 7.34 8.98 7 10 C5.82739389 8.71372289 4.6620717 7.42080217 3.5 6.125 C2.8503125 5.40570313 2.200625 4.68640625 1.53125 3.9453125 C0 2 0 2 0 0 Z " fill="#ff0000" transform="translate(79,85)"/>
<path d="M0 0 C0.99 0.33 1.98 0.66 3 1 C1.68 2.32 0.36 3.64 -1 5 C-1 4.34 -1 3.68 -1 3 C-4.0745356 3.7763932 -4.0745356 3.7763932 -6 6 C-6 4.35 -6 2.7 -6 1 C-3.03 1.495 -3.03 1.495 0 2 C0 1.34 0 0.68 0 0 Z " fill="#ff0000" transform="translate(69,264)"/>
<path d="M0 0 C2.93200474 2.85276137 5.64315404 5.65079784 8 9 C6.35 9 4.7 9 3 9 C2.814375 8.1646875 2.814375 8.1646875 2.625 7.3125 C1.94023145 4.77885636 1.00866237 2.42078968 0 0 Z " fill="#ff0000" transform="translate(110,89)"/>
<path d="M0 0 C0 0.66 0 1.32 0 2 C-4.1205746 3.99785435 -7.45194365 4.17835515 -12 4 C-12 3.67 -12 3.34 -12 3 C-10.02 3 -8.04 3 -6 3 C-6 2.34 -6 1.68 -6 1 C-3 0 -3 0 0 0 Z " fill="#ff0000" transform="translate(204,292)"/>
<path d="M0 0 C1.2065625 0.0309375 1.2065625 0.0309375 2.4375 0.0625 C-2.3125 4.9375 -2.3125 4.9375 -4.5625 6.0625 C-3.48963568 0.08511307 -3.48963568 0.08511307 0 0 Z " fill="#ff0000" transform="translate(245.5625,266.9375)"/>
<path d="M0 0 C2.64 1.65 5.28 3.3 8 5 C7.01 5.495 7.01 5.495 6 6 C5.67 6.66 5.34 7.32 5 8 C4.67 6.68 4.34 5.36 4 4 C2.68 4 1.36 4 0 4 C0 2.68 0 1.36 0 0 Z " fill="#ff0000" transform="translate(121,229)"/>
<path d="M0 0 C0.66 0.33 1.32 0.66 2 1 C1.319375 1.61875 1.319375 1.61875 0.625 2.25 C-1.05950374 4.06408095 -1.99265971 5.75285627 -3 8 C-3.99 6.68 -4.98 5.36 -6 4 C-4.02 2.68 -2.04 1.36 0 0 Z " fill="#ff0000" transform="translate(245,86)"/>
<path d="M0 0 C1.32 0.33 2.64 0.66 4 1 C2.02 3.31 0.04 5.62 -2 8 C-2.66 7.01 -3.32 6.02 -4 5 C-3.01 5 -2.02 5 -1 5 C-0.67 3.35 -0.34 1.7 0 0 Z " fill="#ff0000" transform="translate(233,68)"/>
<path d="M0 0 C0.33 0 0.66 0 1 0 C1 2.64 1 5.28 1 8 C0.34 8 -0.32 8 -1 8 C-1 8.99 -1 9.98 -1 11 C-1.66 11 -2.32 11 -3 11 C-2.01 7.37 -1.02 3.74 0 0 Z " fill="#ff0000" transform="translate(172,61)"/>
<path d="M0 0 C0.33 0.99 0.66 1.98 1 3 C-0.14453125 4.82421875 -0.14453125 4.82421875 -1.8125 6.6875 C-2.35519531 7.31011719 -2.89789063 7.93273438 -3.45703125 8.57421875 C-5 10 -5 10 -7 10 C-5.33248852 6.05860922 -2.77289351 3.2107188 0 0 Z " fill="#ff0000" transform="translate(232,39)"/>
<path d="M0 0 C1.485 0.99 1.485 0.99 3 2 C2.67 3.65 2.34 5.3 2 7 C1.01 7.33 0.02 7.66 -1 8 C-0.67 5.36 -0.34 2.72 0 0 Z " fill="#ff0000" transform="translate(251,257)"/>
<path d="M0 0 C0.66 0 1.32 0 2 0 C2 0.66 2 1.32 2 2 C2.99 2 3.98 2 5 2 C5.66 3.98 6.32 5.96 7 8 C1.125 3.375 1.125 3.375 0 0 Z " fill="#ff0000" transform="translate(57,59)"/>
<path d="M0 0 C0.99 0.33 1.98 0.66 3 1 C3.33 4.3 3.66 7.6 4 11 C1.6870518 8.6870518 1.50419025 7.52095125 0.875 4.375 C0.70742187 3.55773438 0.53984375 2.74046875 0.3671875 1.8984375 C0.24601562 1.27195313 0.12484375 0.64546875 0 0 Z " fill="#ff0000" transform="translate(100,46)"/>
<path d="M0 0 C1.96301592 3.50538557 2.95902388 7.13351728 4 11 C2 9.4375 2 9.4375 0 7 C-0.25 3.25 -0.25 3.25 0 0 Z " fill="#ff0000" transform="translate(205,272)"/>
<path d="M0 0 C0 0.99 0 1.98 0 3 C-0.66 3 -1.32 3 -2 3 C-2 3.66 -2 4.32 -2 5 C-3.65 4.67 -5.3 4.34 -7 4 C-2.25 0 -2.25 0 0 0 Z " fill="#ff0000" transform="translate(34,209)"/>
<path d="M0 0 C1 3 1 3 0 6 C-0.66 6 -1.32 6 -2 6 C-2.66 4.68 -3.32 3.36 -4 2 C-2.68 1.34 -1.36 0.68 0 0 Z " fill="#ff0000" transform="translate(97,133)"/>
<path d="M0 0 C1.74627478 2.61941217 2.38722388 4.03824877 3 7 C1.02 7.99 1.02 7.99 -1 9 C-0.67 6.03 -0.34 3.06 0 0 Z " fill="#ff0000" transform="translate(135,80)"/>
<path d="M0 0 C0.625 1.8125 0.625 1.8125 1 4 C0.01 5.485 0.01 5.485 -1 7 C-1.66 7 -2.32 7 -3 7 C-2.25 2.25 -2.25 2.25 0 0 Z " fill="#ff0000" transform="translate(218,56)"/>
</svg>