<svg id="SvgjsSvg1001" width="288" height="288" xmlns="http://www.w3.org/2000/svg" version="1.1" xmlns:xlink="http://www.w3.org/1999/xlink" xmlns:svgjs="http://svgjs.com/svgjs"><defs id="SvgjsDefs1002"></defs><g id="SvgjsG1008"><svg xmlns="http://www.w3.org/2000/svg" viewBox="0 0 569 308" width="288" height="288"><path fill="#ff0000" d="M0 0 C1.32727051 2.4691925 1.32727051 2.4691925 2.50195312 5.7980957 C2.72044418 6.40319473 2.93893524 7.00829376 3.16404724 7.63172913 C3.88527714 9.64126075 4.5832077 11.65808974 5.28125 13.67578125 C5.780243 15.08098867 6.28063079 16.48570151 6.78234863 17.88993835 C8.10376328 21.60072003 9.40546968 25.31813131 10.70343018 29.03717041 C12.0127593 32.77715052 13.34140399 36.51024765 14.66796875 40.24414062 C18.8819062 52.12845854 23.05507017 64.0229604 27 76 C26.16597656 76.6290625 25.33195313 77.258125 24.47265625 77.90625 C1.45151946 95.36002674 -11.82037985 113.26024595 -17 142 C-17.8623334 153.73724958 -17.65330505 165.34700854 -14.33520508 176.68261719 C-13.20775765 180.56083899 -12.71361225 183.14159747 -14 187 C-15.90405273 188.61474609 -15.90405273 188.61474609 -18.43359375 190.0234375 C-19.85273071 190.83119629 -19.85273071 190.83119629 -21.30053711 191.65527344 C-22.33573486 192.2227832 -23.37093262 192.79029297 -24.4375 193.375 C-26.63544536 194.61713673 -28.833361 195.85932606 -31.03125 197.1015625 C-32.17722656 197.74125977 -33.32320313 198.38095703 -34.50390625 199.04003906 C-39.07103969 201.59250404 -43.59808842 204.21377189 -48.12646484 206.83422852 C-50.32527813 208.10646623 -52.52611433 209.37521441 -54.72900391 210.64038086 C-59.59603994 213.43669145 -64.44615658 216.25126319 -69.2421875 219.16796875 C-70.02408447 219.64073242 -70.80598145 220.11349609 -71.61157227 220.60058594 C-73.02674215 221.46020549 -74.43660147 222.32866272 -75.83959961 223.20800781 C-79.36232879 225.34310684 -81.84755085 226.51411275 -86 226 C-87.5617377 223.42702218 -89.09906742 220.84408538 -90.625 218.25 C-91.07101563 217.52039063 -91.51703125 216.79078125 -91.9765625 216.0390625 C-92.3890625 215.33007812 -92.8015625 214.62109375 -93.2265625 213.890625 C-93.61408691 213.24125977 -94.00161133 212.59189453 -94.40087891 211.92285156 C-95 210 -95 210 -94.38476562 207.92822266 C-92.69904293 205.58093107 -91.1546306 204.63560273 -88.6171875 203.2578125 C-87.7092041 202.75612549 -86.8012207 202.25443848 -85.86572266 201.73754883 C-84.87878418 201.20540771 -83.8918457 200.6732666 -82.875 200.125 C-80.77515087 198.96645684 -78.67622116 197.80624597 -76.578125 196.64453125 C-75.49208984 196.04592285 -74.40605469 195.44731445 -73.28710938 194.83056641 C-68.02285094 191.89894061 -62.82326892 188.85917031 -57.625 185.8125 C-56.62791016 185.22960205 -55.63082031 184.6467041 -54.60351562 184.04614258 C-50.03698313 181.37417923 -45.47607919 178.69292074 -40.921875 176 C-40.14763184 175.54262451 -39.37338867 175.08524902 -38.57568359 174.61401367 C-37.16594762 173.78027699 -35.75731318 172.94467324 -34.35009766 172.10668945 C-30.6372034 169.90860615 -26.88283414 167.88168116 -23 166 C-32.81830025 167.43591267 -42.57574008 169.143218 -52.33786011 170.91500854 C-54.92022821 171.38320002 -57.50311474 171.84842437 -60.08618164 172.31274414 C-67.51871855 173.64893202 -74.95021596 174.99021955 -82.37890625 176.34765625 C-84.39838255 176.71124285 -86.41790848 177.07455397 -88.4375 177.4375 C-89.31583496 177.6010498 -90.19416992 177.76459961 -91.09912109 177.93310547 C-96.14892354 178.83238536 -100.86949599 179.14725901 -106 179 C-107.81774185 171.90215087 -109.43230491 165.34918342 -109 158 C-98.04841981 155.55130349 -87.04840975 153.51508906 -76 151.5625 C-72.54022548 150.94869859 -69.08064503 150.33380822 -65.62109375 149.71875 C-64.78243271 149.5699086 -63.94377167 149.4210672 -63.07969666 149.26771545 C-58.33063226 148.42279277 -53.58687886 147.55512787 -48.84765625 146.65625 C-47.84541016 146.46732178 -46.84316406 146.27839355 -45.81054688 146.08374023 C-44.05421034 145.75060426 -42.29887786 145.4121008 -40.54492188 145.06665039 C-35.61062022 144.13654075 -31.02316934 143.85713398 -26 144 C-26 143.34 -26 142.68 -26 142 C-26.68130478 141.9589917 -27.36260956 141.9179834 -28.06455994 141.87573242 C-36.79841661 141.25834043 -45.33516257 139.85845564 -53.94140625 138.3125 C-55.44157281 138.04687213 -56.94181335 137.7816618 -58.44212341 137.5168457 C-61.55975706 136.96541324 -64.67672843 136.41042898 -67.79321289 135.85253906 C-71.78688797 135.13770987 -75.78174294 134.42975364 -79.77705479 133.72413635 C-82.86313063 133.17872219 -85.94876675 132.63085571 -89.03425407 132.0821228 C-90.50816963 131.82008144 -91.98217448 131.55854173 -93.45627022 131.29751587 C-95.50715943 130.93374533 -97.55748306 130.56694604 -99.60766602 130.19921875 C-100.77282242 129.99127686 -101.93797882 129.78333496 -103.13844299 129.5690918 C-106 129 -106 129 -109 128 C-109.29405182 121.53086004 -109.47616054 112.84663134 -105.89324951 107.28070068 C-102.85797273 105.22746839 -100.50464812 106.19392013 -96.97753906 106.83691406 C-96.26658081 106.96166611 -95.55562256 107.08641815 -94.82312012 107.21495056 C-92.46742023 107.632425 -90.1168971 108.0739497 -87.765625 108.515625 C-86.12785772 108.81050559 -84.48981127 109.10383957 -82.85150146 109.39569092 C-78.53099005 110.16948544 -74.21444383 110.96353485 -69.8984375 111.76202393 C-65.52552351 112.56773575 -61.14943459 113.3557668 -56.7734375 114.14453125 C-51.8473746 115.03291666 -46.92168295 115.92294486 -41.99859619 116.82769775 C-41.24523987 116.96581375 -40.49188354 117.10392975 -39.71569824 117.24623108 C-37.68725413 117.61849092 -35.65907662 117.99220261 -33.63092041 118.36602783 C-30.09220128 118.98390131 -26.55840191 119.51202215 -23 120 C-23.72251953 119.58862793 -24.44503906 119.17725586 -25.18945312 118.75341797 C-38.99693425 110.88803825 -52.79663345 103.01183109 -66.49829102 94.96289062 C-71.2003877 92.20252307 -75.91517446 89.47566613 -80.6796875 86.82421875 C-81.56841553 86.32510986 -82.45714355 85.82600098 -83.37280273 85.31176758 C-85.03559428 84.38025608 -86.70410458 83.45885199 -88.37915039 82.54956055 C-89.1086792 82.13875244 -89.83820801 81.72794434 -90.58984375 81.3046875 C-91.54685181 80.7785083 -91.54685181 80.7785083 -92.52319336 80.24169922 C-94.46698962 78.60735506 -94.76763442 77.50650576 -95 75 C-93.83998098 72.65359789 -92.67607664 70.60835981 -91.25 68.4375 C-90.8890625 67.86064453 -90.528125 67.28378906 -90.15625 66.68945312 C-88.32691428 63.816203 -86.45302149 61.35030231 -84 59 C-76.09463627 62.84382112 -68.43495813 66.95541866 -60.875 71.4375 C-58.78549329 72.66593805 -56.69563647 73.89378073 -54.60546875 75.12109375 C-53.52958496 75.7538623 -52.45370117 76.38663086 -51.34521484 77.03857422 C-45.64017388 80.38365516 -39.91481361 83.69324171 -34.1875 87 C-33.13353027 87.61029053 -32.07956055 88.22058105 -30.99365234 88.84936523 C-24.38187104 92.66643822 -17.71990685 96.37667533 -11 100 C-11.92619141 99.00033203 -11.92619141 99.00033203 -12.87109375 97.98046875 C-17.96370975 92.4382763 -22.8557119 86.80767837 -27.5859375 80.94921875 C-30.33861873 77.5863153 -33.16181769 74.29070431 -36 71 C-40.29176284 66.02029085 -44.49571815 60.98324626 -48.625 55.8671875 C-50.44652541 53.66817492 -52.29431614 51.51879831 -54.1875 49.3828125 C-54.73599609 48.75955078 -55.28449219 48.13628906 -55.84960938 47.49414062 C-56.92625116 46.27479602 -58.01057846 45.06218208 -59.10351562 43.85742188 C-61.91404744 40.66380316 -63.67723619 38.30889682 -64 34 C-61.92375562 32.17878563 -59.83975198 30.3680994 -57.75 28.5625 C-57.16347656 28.04623047 -56.57695313 27.52996094 -55.97265625 26.99804688 C-55.39902344 26.50498047 -54.82539062 26.01191406 -54.234375 25.50390625 C-53.71069336 25.04830322 -53.18701172 24.5927002 -52.64746094 24.12329102 C-50.78984852 22.85671207 -49.19459981 22.41931042 -47 22 C-40.32539529 29.64433089 -33.69594 37.30391262 -27.30859375 45.19140625 C-24.58655722 48.50298707 -21.79853451 51.75306941 -19 55 C-14.67307117 60.02282566 -10.4261015 65.09969888 -6.24609375 70.24609375 C-2.2063486 75.19917258 1.90222863 80.09490651 6 85 C2.41443725 74.6291597 -1.34517861 64.32821027 -5.1796875 54.046875 C-5.64507815 52.79655332 -6.1103483 51.54618678 -6.57550049 50.29577637 C-9.45942126 42.54345342 -9.45942126 42.54345342 -12.35742188 34.79638672 C-13.32538663 32.2157817 -14.28904085 29.63364855 -15.24783325 27.04962158 C-16.14284062 24.63768334 -17.04401368 22.22802169 -17.95211792 19.82098389 C-18.35318756 18.73504944 -18.7542572 17.64911499 -19.16748047 16.53027344 C-19.52244598 15.5800531 -19.8774115 14.62983276 -20.24313354 13.65081787 C-21.01059792 10.96288227 -21.14773644 8.77892521 -21 6 C-5.25280553 -2.30306618 -5.25280553 -2.30306618 0 0 Z " transform="translate(111 11)" class="colorF50303 svgShape"></path><path fill="#ffffff" d="M0 0 C9.57 0 19.14 0 29 0 C32.11657882 7.47978917 35.09594597 14.81966094 37.70703125 22.4609375 C38.03611984 23.41279938 38.36520844 24.36466125 38.70426941 25.34536743 C39.74392781 28.35402391 40.77858191 31.36436659 41.8125 34.375 C45.94977566 46.39472899 50.10951429 58.40311142 54.44921875 70.3515625 C54.79072464 71.29276947 55.13223053 72.23397644 55.48408508 73.20370483 C57.07601262 77.67235488 57.07601262 77.67235488 59 82 C61.35599235 82.46751788 61.35599235 82.46751788 64.0625 82.625 C64.98160156 82.69976562 65.90070313 82.77453125 66.84765625 82.8515625 C67.91306641 82.92503906 67.91306641 82.92503906 69 83 C69.1938211 85.97888126 69.38035102 88.95790246 69.5625 91.9375 C69.64661133 93.21270508 69.64661133 93.21270508 69.73242188 94.51367188 C69.78076172 95.32255859 69.82910156 96.13144531 69.87890625 96.96484375 C69.94960327 98.08814087 69.94960327 98.08814087 70.02172852 99.23413086 C70 101 70 101 69 102 C65.97022196 102.08871273 62.96332978 102.1151935 59.93359375 102.09765625 C59.02497086 102.0962413 58.11634796 102.09482635 57.18019104 102.09336853 C54.26592779 102.08775193 51.35174019 102.07519665 48.4375 102.0625 C46.46679798 102.05748714 44.49609476 102.05292386 42.52539062 102.04882812 C37.68356441 102.03777711 32.84179505 102.02050138 28 102 C26.72396393 98.17189179 27.13716013 94.76524893 27.4375 90.8125 C27.48970703 90.06291016 27.54191406 89.31332031 27.59570312 88.54101562 C27.72513784 86.69362918 27.86186518 84.84675629 28 83 C29.98 82.67 31.96 82.34 34 82 C33.54177532 78.53058454 33.10868317 75.32604951 32 72 C20.78 72 9.56 72 -2 72 C-4.05025247 76.91070632 -4.05025247 76.91070632 -5 82 C-2.69 82.33 -0.38 82.66 2 83 C3.19825457 86.59476372 3.14608744 89.88549399 3.125 93.625 C3.13080078 94.66527344 3.13080078 94.66527344 3.13671875 95.7265625 C3.12666646 100.87333354 3.12666646 100.87333354 2 102 C-1.10251201 102.08874135 -4.1826812 102.11518455 -7.28515625 102.09765625 C-8.21597519 102.0962413 -9.14679413 102.09482635 -10.1058197 102.09336853 C-13.09141191 102.08775172 -16.07693029 102.0751964 -19.0625 102.0625 C-21.08137913 102.05748716 -23.10025943 102.05292388 -25.11914062 102.04882812 C-30.07947871 102.03862587 -35.0396563 102.01905382 -40 102 C-39.67 95.73 -39.34 89.46 -39 83 C-34.05 82.505 -34.05 82.505 -29 82 C-27.82762613 78.73111061 -26.66190012 75.46011056 -25.5 72.1875 C-25.16613281 71.25873047 -24.83226562 70.32996094 -24.48828125 69.37304688 C-24.17246094 68.48037109 -23.85664063 67.58769531 -23.53125 66.66796875 C-23.23798828 65.84578857 -22.94472656 65.0236084 -22.64257812 64.17651367 C-21.85842475 61.89869346 -21.85842475 61.89869346 -22 59 C-21.34 59 -20.68 59 -20 59 C-19.87496094 58.31421875 -19.74992187 57.6284375 -19.62109375 56.921875 C-18.92339535 53.63962089 -18.02603884 50.46422012 -17.0625 47.25 C-16.72347656 46.10015625 -16.38445312 44.9503125 -16.03515625 43.765625 C-15 41 -15 41 -13 40 C-13.33 39.01 -13.66 38.02 -14 37 C-13.34 37 -12.68 37 -12 37 C-12 35.02 -12 33.04 -12 31 C-11.34 31 -10.68 31 -10 31 C-9.88785156 30.32195312 -9.77570313 29.64390625 -9.66015625 28.9453125 C-8.59576103 24.1964723 -6.75751789 19.73261169 -5.05859375 15.1796875 C-3.84206097 12.08414567 -3.84206097 12.08414567 -4 9 C-3.34 9 -2.68 9 -2 9 C-2.495 7.515 -2.495 7.515 -3 6 C-2.34 6 -1.68 6 -1 6 C-0.67 4.02 -0.34 2.04 0 0 Z M13 23 C12.82984375 23.67804688 12.6596875 24.35609375 12.484375 25.0546875 C11.01966575 30.6797943 9.28708374 36.00133589 7.05078125 41.36328125 C5.13768304 46.16380649 3.59937604 51.08763072 2 56 C10.25 56 18.5 56 27 56 C25.16423534 49.26886292 23.55923985 43.48369876 20.9375 37.1875 C19.48416127 33.69143327 18.07413099 30.25204537 17.00390625 26.61328125 C16.67261719 25.75089844 16.34132813 24.88851562 16 24 C15.01 23.67 14.02 23.34 13 23 Z " transform="translate(228 126)" class="colorFDFDFD svgShape"></path><path fill="#ffffff" d="M0 0 C2.92212211 4.12005369 4.8214911 7.66751393 5.0859375 12.82421875 C5.7459375 12.82421875 6.4059375 12.82421875 7.0859375 12.82421875 C7.56447508 24.84082897 6.70125169 36.54448436 -1.703125 45.79296875 C-12.41386717 55.86362673 -25.4148912 57.17232231 -39.5390625 56.94921875 C-40.63863281 56.94019531 -41.73820312 56.93117188 -42.87109375 56.921875 C-45.55217958 56.89856121 -48.23315148 56.86270073 -50.9140625 56.82421875 C-50.9140625 61.77421875 -50.9140625 66.72421875 -50.9140625 71.82421875 C-49.4496875 71.80359375 -47.9853125 71.78296875 -46.4765625 71.76171875 C-44.95573732 71.74029868 -43.43334288 71.75241911 -41.9140625 71.82421875 C-37.42952115 76.3087601 -40.9140625 84.48211955 -40.9140625 90.82421875 C-54.7740625 90.82421875 -68.6340625 90.82421875 -82.9140625 90.82421875 C-82.9140625 84.55421875 -82.9140625 78.28421875 -82.9140625 71.82421875 C-80.2740625 71.49421875 -77.6340625 71.16421875 -74.9140625 70.82421875 C-74.5840625 49.70421875 -74.2540625 28.58421875 -73.9140625 6.82421875 C-76.8840625 6.82421875 -79.8540625 6.82421875 -82.9140625 6.82421875 C-84.52076934 3.61080506 -83.73917105 0.19462907 -83.4765625 -3.30078125 C-83.42435547 -4.05488281 -83.37214844 -4.80898437 -83.31835938 -5.5859375 C-83.18861246 -7.44957495 -83.05198762 -9.31273121 -82.9140625 -11.17578125 C-75.57689219 -11.40091961 -68.2394558 -11.60210327 -60.9008379 -11.77418137 C-57.49180428 -11.85483917 -54.08336256 -11.94320016 -50.67504883 -12.05029297 C-46.74087258 -12.17354854 -42.80625817 -12.26127379 -38.87109375 -12.34765625 C-37.66951126 -12.39017517 -36.46792877 -12.43269409 -35.22993469 -12.47650146 C-22.86922627 -12.69301624 -8.54468227 -9.71303678 0 0 Z M-50.9140625 6.82421875 C-50.9140625 17.38421875 -50.9140625 27.94421875 -50.9140625 38.82421875 C-47.4490625 38.88609375 -43.9840625 38.94796875 -40.4140625 39.01171875 C-39.33833984 39.03903076 -38.26261719 39.06634277 -37.15429688 39.09448242 C-30.13626864 39.15469244 -25.21067672 37.97252586 -18.9140625 34.82421875 C-18.9140625 34.16421875 -18.9140625 33.50421875 -18.9140625 32.82421875 C-18.2540625 32.82421875 -17.5940625 32.82421875 -16.9140625 32.82421875 C-13.92498016 27.82647308 -14.30216756 22.46724991 -14.9140625 16.82421875 C-17.06393478 12.2855995 -19.39309262 9.97167944 -23.9140625 7.82421875 C-27.10645905 6.82627319 -29.9998352 6.7080286 -33.3359375 6.7265625 C-34.25987305 6.72906006 -35.18380859 6.73155762 -36.13574219 6.73413086 C-37.30008789 6.74323486 -38.46443359 6.75233887 -39.6640625 6.76171875 C-43.3765625 6.78234375 -47.0890625 6.80296875 -50.9140625 6.82421875 Z " transform="translate(470.914 137.176)" class="colorFDFDFD svgShape"></path><path fill="#ffffff" d="M0 0 C1.94797485 0.00302124 1.94797485 0.00302124 3.93530273 0.00610352 C15.17544864 0.12300607 25.36066555 1.59016639 36.25 4.3125 C36.25 14.5425 36.25 24.7725 36.25 35.3125 C29.98 35.3125 23.71 35.3125 17.25 35.3125 C16.755 26.4025 16.755 26.4025 16.25 17.3125 C12.37457723 17.2313865 8.50086118 17.1719395 4.625 17.125 C3.53058594 17.09986328 2.43617188 17.07472656 1.30859375 17.04882812 C-6.65023757 16.94301431 -6.65023757 16.94301431 -13.75 20.3125 C-15.39404234 23.60058467 -15.51289034 26.7835089 -14.75 30.3125 C-8.98049978 36.63027144 -1.90993605 38.89594219 6 41.75 C31.55957533 51.0085483 31.55957533 51.0085483 37.25 62.3125 C40.06900863 69.68219398 41.04125729 75.85984304 38.25 83.3125 C38.0128125 84.00085938 37.775625 84.68921875 37.53125 85.3984375 C34.65225051 92.3560196 29.164302 96.5234146 22.4296875 99.6015625 C13.61369948 102.94058793 5.54591955 103.50691322 -3.8125 103.5 C-5.49388062 103.4987915 -5.49388062 103.4987915 -7.20922852 103.49755859 C-14.93683101 103.44030462 -22.18343893 102.94036573 -29.75 101.3125 C-33.05 100.6525 -36.35 99.9925 -39.75 99.3125 C-39.42 89.0825 -39.09 78.8525 -38.75 68.3125 C-32.48 68.3125 -26.21 68.3125 -19.75 68.3125 C-19.09 73.9225 -18.43 79.5325 -17.75 85.3125 C-8.23148101 87.2162038 2.31191281 87.65934318 11.25 83.3125 C14.56050548 80.47492388 15.14465557 79.06307907 15.75 74.75 C15.51377943 71.35251208 15.51377943 71.35251208 13.75 69.125 C7.58765449 64.6572995 0.60811276 62.29299079 -6.5625 59.9375 C-14.05907258 57.38918735 -21.07668556 54.65506124 -27.75 50.3125 C-28.348125 49.93867188 -28.94625 49.56484375 -29.5625 49.1796875 C-34.89121828 45.36965393 -37.843617 39.1568141 -39.31640625 32.91015625 C-39.95226976 28.20154675 -39.64092468 23.96510664 -38.75 19.3125 C-38.09 19.3125 -37.43 19.3125 -36.75 19.3125 C-36.729375 18.631875 -36.70875 17.95125 -36.6875 17.25 C-34.98697931 11.92170185 -30.96919195 8.62744889 -26.23828125 5.82421875 C-23.76785698 4.57238941 -21.29471675 3.40484626 -18.75 2.3125 C-18.00347168 1.96719238 -17.25694336 1.62188477 -16.48779297 1.26611328 C-11.20584813 -0.57366526 -5.53786887 -0.02277228 0 0 Z " transform="translate(524.75 124.688)" class="colorFDFDFD svgShape"></path><path fill="#ffffff" d="M0 0 C0 6.27 0 12.54 0 19 C-3.3 19 -6.6 19 -10 19 C-10 40.45 -10 61.9 -10 84 C-2.08 84 5.84 84 14 84 C13.67 82.02 13.34 80.04 13 78 C13.42450134 74.26243651 14.23483675 70.69078742 15 67 C21.6 67 28.2 67 35 67 C35.02290956 71.96628434 35.04283643 76.93238663 35.05493164 81.89868164 C35.0599719 83.58944316 35.06680405 85.28020029 35.07543945 86.97094727 C35.08751857 89.39600707 35.09323123 91.82100944 35.09765625 94.24609375 C35.10281754 95.00651474 35.10797882 95.76693573 35.11329651 96.55039978 C35.11349238 98.3673257 35.06197277 100.18413127 35 102 C33.31496301 103.68503699 31.23740116 103.11965983 28.98905945 103.12442017 C28.27264786 103.12082489 27.55623627 103.11722961 26.81811523 103.11352539 C25.6913588 103.11374443 25.6913588 103.11374443 24.5418396 103.1139679 C22.04739541 103.11326863 19.55302497 103.10547564 17.05859375 103.09765625 C15.33366436 103.09579212 13.60873443 103.09436819 11.88380432 103.09336853 C7.33487497 103.08954297 2.78597733 103.07971238 -1.76293945 103.06866455 C-6.40120006 103.05845124 -11.03946577 103.05387108 -15.67773438 103.04882812 C-24.78517022 103.03809014 -33.89258248 103.02101327 -43 103 C-42.98839844 102.13117188 -42.97679687 101.26234375 -42.96484375 100.3671875 C-42.95582031 99.21476562 -42.94679688 98.06234375 -42.9375 96.875 C-42.92589844 95.73804688 -42.91429687 94.60109375 -42.90234375 93.4296875 C-42.994673 90.1870844 -43.38610094 87.18067388 -44 84 C-39.05 83.505 -39.05 83.505 -34 83 C-34.00222061 82.2277005 -34.00444122 81.455401 -34.00672913 80.65969849 C-34.02674504 73.3905466 -34.04198079 66.12140802 -34.05181217 58.85223579 C-34.05703644 55.1148575 -34.06412584 51.37750193 -34.07543945 47.64013672 C-34.0862845 44.03510184 -34.09228028 40.43008884 -34.09487724 36.82503891 C-34.09672857 35.44789154 -34.1003436 34.07074541 -34.10573006 32.69360733 C-34.11296181 30.76856906 -34.11340824 28.84350888 -34.11352539 26.91845703 C-34.115746 25.82147491 -34.11796661 24.7244928 -34.12025452 23.5942688 C-34 21 -34 21 -33 19 C-36.3 19 -39.6 19 -43 19 C-43 13.06 -43 7.12 -43 1 C-37.35832545 0.85723734 -31.71664615 0.71470156 -26.07495117 0.57275391 C-24.15535141 0.52438655 -22.23575502 0.4758847 -20.31616211 0.42724609 C-17.55843976 0.35739425 -14.80070565 0.28802463 -12.04296875 0.21875 C-10.75376778 0.18593933 -10.75376778 0.18593933 -9.43852234 0.15246582 C-8.63791885 0.13244507 -7.83731537 0.11242432 -7.01245117 0.09179688 C-5.95655037 0.06514954 -5.95655037 0.06514954 -4.87931824 0.03796387 C-3.25316136 0.00511408 -1.62648864 0 0 0 Z " transform="translate(345 125)" class="colorFDFDFD svgShape"></path><path fill="#ff0000" d="M0 0 C1.24910156 -0.01836914 1.24910156 -0.01836914 2.5234375 -0.03710938 C3.71839844 -0.04000977 3.71839844 -0.04000977 4.9375 -0.04296875 C6.03384766 -0.04913208 6.03384766 -0.04913208 7.15234375 -0.05541992 C9 0.1875 9 0.1875 11 2.1875 C11.24050903 5.16140747 11.24050903 5.16140747 11.22705078 9.02392578 C11.22734283 9.72647491 11.22763489 10.42902405 11.22793579 11.15286255 C11.22654023 13.47963731 11.21096872 15.80609354 11.1953125 18.1328125 C11.19158317 19.74421005 11.18873582 21.35560987 11.18673706 22.9670105 C11.17909431 27.21183514 11.15944039 31.4565233 11.1373291 35.70129395 C11.11688443 40.0313126 11.1077383 44.36135326 11.09765625 48.69140625 C11.07619504 57.19016686 11.04205145 65.68881646 11 74.1875 C6.43314982 76.14859911 1.86663755 78.09517985 -2.75 79.9375 C-4.41289062 80.61039063 -4.41289062 80.61039063 -6.109375 81.296875 C-9 82.1875 -9 82.1875 -12 81.1875 C-12.02315123 71.19976384 -12.04092932 61.21203405 -12.05181217 51.22427654 C-12.05703489 46.58676393 -12.06412151 41.94926964 -12.07543945 37.31176758 C-12.08628996 32.83789197 -12.09228145 28.36403401 -12.09487724 23.89014626 C-12.09672758 22.18168675 -12.10034071 20.47322823 -12.10573006 18.76477623 C-12.11296916 16.37530795 -12.11398972 13.985913 -12.11352539 11.59643555 C-12.11712067 10.88721451 -12.12071594 10.17799347 -12.12442017 9.44728088 C-12.11801416 6.40886302 -11.96941367 4.09574101 -11 1.1875 C-7.58173253 -0.52163373 -3.76645237 0.00291521 0 0 Z " transform="translate(151 3.813)" class="colorF50302 svgShape"></path><path fill="#ff0000" d="M0 0 C1.32 0 2.64 0 4 0 C4.38671875 0.79664063 4.7734375 1.59328125 5.171875 2.4140625 C7.83999555 7.84276322 10.45491856 13.0914257 14 18 C12.48133302 21.39743025 10.49720998 24.01618284 8.125 26.875 C6.92230469 28.32519531 6.92230469 28.32519531 5.6953125 29.8046875 C2.31114664 33.83202074 -1.12075602 37.8184236 -4.55395508 41.80395508 C-8.34443294 46.21141741 -12.03893066 50.68925901 -15.70703125 55.19921875 C-18.36423258 58.44489738 -21.04895331 61.66577721 -23.75 64.875 C-24.19802979 65.41068604 -24.64605957 65.94637207 -25.10766602 66.49829102 C-27.92915706 69.83973732 -30.87228003 72.95103556 -34 76 C-37.9374409 73.7757418 -41.3373337 71.20149367 -44.8125 68.3125 C-45.78832031 67.50425781 -46.76414063 66.69601562 -47.76953125 65.86328125 C-48.50558594 65.24839844 -49.24164063 64.63351562 -50 64 C-49.50228441 59.53636019 -48.02276894 57.51419419 -44.9375 54.3125 C-41.87816119 51.04631911 -38.94920213 47.7717504 -36.1875 44.25 C-32.91311214 40.09504966 -29.51757111 36.06672507 -26.0625 32.0625 C-20.94013976 26.12161828 -15.94369015 20.0906974 -11 14 C-8.61678683 11.10342173 -6.23321531 8.20714662 -3.84765625 5.3125 C-1.89854558 2.94099979 -1.89854558 2.94099979 0 0 Z " transform="translate(97 199)" class="colorF60303 svgShape"></path><path fill="#ff0000" d="M0 0 C0.928125 0.804375 1.85625 1.60875 2.8125 2.4375 C7.79948412 6.71645551 12.90348535 10.85274576 18 15 C16.07121574 22.59447288 13.68981854 29.87843853 10.875 37.1875 C10.07613932 39.27708254 9.27798441 41.366935 8.48046875 43.45703125 C8.07231934 44.52518066 7.66416992 45.59333008 7.24365234 46.69384766 C5.97782504 50.05895038 4.75868313 53.43792664 3.55078125 56.82421875 C2.95644287 58.47031128 2.95644287 58.47031128 2.35009766 60.1496582 C1.58747866 62.26535739 0.8354654 64.38491598 0.09521484 66.50854492 C-0.25202637 67.46220947 -0.59926758 68.41587402 -0.95703125 69.3984375 C-1.25585205 70.24067871 -1.55467285 71.08291992 -1.86254883 71.95068359 C-3.26439422 74.47635223 -4.25147663 75.16140824 -7 76 C-8.90698242 75.69213867 -8.90698242 75.69213867 -10.85546875 74.91796875 C-11.55994141 74.64533203 -12.26441406 74.37269531 -12.99023438 74.09179688 C-14.07788086 73.64416992 -14.07788086 73.64416992 -15.1875 73.1875 C-15.92419922 72.90068359 -16.66089844 72.61386719 -17.41992188 72.31835938 C-22.80820194 70.19179806 -22.80820194 70.19179806 -24 69 C-23.54317709 64.26397983 -22.49848613 60.08447533 -20.8828125 55.62158203 C-20.44565918 54.40407257 -20.00850586 53.18656311 -19.55810547 51.93215942 C-19.08063225 50.62396032 -18.60292497 49.31584663 -18.125 48.0078125 C-17.63507075 46.65276153 -17.14565828 45.29752361 -16.65673828 43.94210815 C-15.63532501 41.1148323 -14.60947943 38.28922077 -13.58007812 35.46484375 C-12.25863034 31.83883766 -10.9456807 28.20982801 -9.63565063 24.5796833 C-8.62746829 21.78739187 -7.61624719 18.99620944 -6.60394287 16.20541 C-6.11848825 14.86674387 -5.63366422 13.52784889 -5.1494751 12.18872452 C-4.47494198 10.32544897 -3.79617315 8.46370843 -3.1171875 6.60205078 C-2.73159668 5.54172638 -2.34600586 4.48140198 -1.94873047 3.38894653 C-1 1 -1 1 0 0 Z " transform="translate(114 222)" class="colorF30404 svgShape"></path><path fill="#ff0000" d="M0 0 C6.61242722 1.82221376 12.80520671 4.05223604 19 7 C18.39912008 12.65578229 16.93305238 17.60122415 15 22.9375 C14.54512207 24.21620972 14.54512207 24.21620972 14.08105469 25.52075195 C11.18405369 33.61124595 8.16183553 41.65624618 5.109375 49.68920898 C4.7484375 50.64126221 4.3875 51.59331543 4.015625 52.57421875 C3.69883789 53.40526123 3.38205078 54.23630371 3.05566406 55.0925293 C1.62462604 59.033841 0.32596409 63.02210772 -1 67 C-8.92 67 -16.84 67 -25 67 C-24.24345021 63.21725103 -23.39856217 60.06167473 -22.09814453 56.47875977 C-21.7074881 55.39736221 -21.31683167 54.31596466 -20.91433716 53.20179749 C-20.49143402 52.04336838 -20.06853088 50.88493927 -19.6328125 49.69140625 C-19.19742157 48.49192856 -18.76203064 47.29245087 -18.31344604 46.05662537 C-17.39221275 43.52170367 -16.46953919 40.98736283 -15.54443359 38.45385742 C-14.36384992 35.22004941 -13.18975277 31.98393182 -12.01761055 28.74705601 C-10.89286941 25.64388927 -9.76259296 22.54274115 -8.6328125 19.44140625 C-8.21395782 18.28500137 -7.79510315 17.1285965 -7.36355591 15.93714905 C-2.41382547 2.41382547 -2.41382547 2.41382547 0 0 Z " transform="translate(192 10)" class="colorF40303 svgShape"></path><path fill="#ff0000" d="M0 0 C3.48077209 1.14099629 6.95932886 2.28860184 10.4375 3.4375 C11.43072266 3.76298828 12.42394531 4.08847656 13.44726562 4.42382812 C14.39150391 4.73642578 15.33574219 5.04902344 16.30859375 5.37109375 C17.18314209 5.65911865 18.05769043 5.94714355 18.95874023 6.24389648 C21 7 21 7 22 8 C22.09853953 9.58533545 22.12798689 11.17503341 22.12939453 12.76342773 C22.13254669 13.77795517 22.13569885 14.7924826 22.13894653 15.8377533 C22.1369223 16.94188065 22.13489807 18.046008 22.1328125 19.18359375 C22.13424759 20.87235374 22.13424759 20.87235374 22.13571167 22.5952301 C22.13639373 24.98186295 22.13453764 27.36849764 22.13037109 29.75512695 C22.12502819 33.41817377 22.13031268 37.08109768 22.13671875 40.74414062 C22.13605788 43.05729194 22.13477652 45.37044318 22.1328125 47.68359375 C22.13483673 48.78569687 22.13686096 49.88779999 22.13894653 51.02330017 C22.13579437 52.04097977 22.13264221 53.05865936 22.12939453 54.10717773 C22.12859894 55.00572983 22.12780334 55.90428192 22.12698364 56.83006287 C22 59 22 59 21 61 C14.07 61 7.14 61 0 61 C-1.12528571 51.99771432 -1.12528571 51.99771432 -1.12939453 47.33422852 C-1.13254669 46.29698135 -1.13569885 45.25973419 -1.13894653 44.1910553 C-1.1369223 43.09804611 -1.13489807 42.00503693 -1.1328125 40.87890625 C-1.13376923 39.73840317 -1.13472595 38.59790009 -1.13571167 37.4228363 C-1.1363892 35.02676335 -1.13456482 32.63068852 -1.13037109 30.23461914 C-1.12498208 26.55025177 -1.13034823 22.8660044 -1.13671875 19.18164062 C-1.13605857 16.85156223 -1.13477866 14.52148391 -1.1328125 12.19140625 C-1.13483673 11.08422745 -1.13686096 9.97704865 -1.13894653 8.83631897 C-1.13579437 7.82113693 -1.13264221 6.8059549 -1.12939453 5.76000977 C-1.12859894 4.8625856 -1.12780334 3.96516144 -1.12698364 3.0405426 C-1 1 -1 1 0 0 Z " transform="translate(140 242)" class="colorFB0100 svgShape"></path><path fill="#ff0000" d="M0 0 C4.54071365 1.46583335 7.76266969 4.04531733 11.3125 7.125 C11.86228516 7.59292969 12.41207031 8.06085937 12.97851562 8.54296875 C14.32396409 9.68952483 15.662679 10.84397451 17 12 C16.50228441 16.46363981 15.02276894 18.48580581 11.9375 21.6875 C8.87816119 24.95368089 5.94920213 28.2282496 3.1875 31.75 C-0.74464546 36.74875981 -4.87682439 41.55868866 -9.05200195 46.35449219 C-11.81706121 49.47403863 -11.81706121 49.47403863 -14 53 C-19.1071756 52.44787291 -23.58930481 50.77933653 -28.36328125 48.98828125 C-31.21923433 47.91782773 -34.09894312 46.94088331 -37 46 C-36.67 44.68 -36.34 43.36 -36 42 C-35.34 42 -34.68 42 -34 42 C-33.72615479 41.40775635 -33.45230957 40.8155127 -33.17016602 40.20532227 C-32.04182286 38.07882035 -30.86920306 36.50894637 -29.27734375 34.71484375 C-28.74343018 34.10745361 -28.2095166 33.50006348 -27.65942383 32.87426758 C-27.09118896 32.23513428 -26.5229541 31.59600098 -25.9375 30.9375 C-24.75143564 29.58696283 -23.56654474 28.23539422 -22.3828125 26.8828125 C-21.80305664 26.22055664 -21.22330078 25.55830078 -20.62597656 24.87597656 C-17.74489688 21.55192006 -14.97984949 18.13614323 -12.2109375 14.71875 C-9.6442841 11.56258256 -7.0444445 8.43539747 -4.4375 5.3125 C-3.99510986 4.78245361 -3.55271973 4.25240723 -3.09692383 3.70629883 C-2.06502333 2.47052554 -1.03257499 1.23520975 0 0 Z " transform="translate(237 33)" class="colorF60302 svgShape"></path><path fill="#ff0000" d="M0 0 C1.21679688 2.1262207 1.21679688 2.1262207 2.21875 4.92578125 C2.59386719 5.95123047 2.96898437 6.97667969 3.35546875 8.03320312 C3.73316406 9.11537109 4.11085937 10.19753906 4.5 11.3125 C4.87769531 12.35212891 5.25539062 13.39175781 5.64453125 14.46289062 C6.40453494 16.56922388 7.15188433 18.6801646 7.88671875 20.79541016 C8.64158281 22.96829298 9.41568897 25.13456857 10.20703125 27.29443359 C10.58214844 28.3458252 10.95726562 29.3972168 11.34375 30.48046875 C11.68599609 31.42172607 12.02824219 32.3629834 12.38085938 33.33276367 C13.07704753 36.3319181 13.0163723 38.10038657 12 41 C9.015625 42.58203125 9.015625 42.58203125 5.25 43.8125 C4.01765625 44.23144531 2.7853125 44.65039062 1.515625 45.08203125 C-1.57893782 45.89005599 -3.85122972 46.07922495 -7 46 C-10.63601192 37.45283343 -14.01849336 28.83265262 -17.25 20.125 C-17.69601563 18.94164062 -18.14203125 17.75828125 -18.6015625 16.5390625 C-19.02695313 15.394375 -19.45234375 14.2496875 -19.890625 13.0703125 C-20.46345215 11.53528076 -20.46345215 11.53528076 -21.04785156 9.96923828 C-22.00538236 6.98321533 -22.56427623 4.10149798 -23 1 C-19.91792919 0.63421676 -16.83424623 0.28442175 -13.75 -0.0625 C-12.87730469 -0.16626953 -12.00460938 -0.27003906 -11.10546875 -0.37695312 C-10.26113281 -0.47041016 -9.41679687 -0.56386719 -8.546875 -0.66015625 C-7.77182617 -0.74918213 -6.99677734 -0.83820801 -6.19824219 -0.92993164 C-3.787924 -1.00675986 -2.21208886 -0.98897496 0 0 Z " transform="translate(198 251)" class="colorF00504 svgShape"></path><path fill="#ff0000" d="M0 0 C1.5333805 2.59748082 3.05179668 5.20187896 4.5625 7.8125 C5.00013672 8.55048828 5.43777344 9.28847656 5.88867188 10.04882812 C6.50258789 11.11713867 6.50258789 11.11713867 7.12890625 12.20703125 C7.51119385 12.8616333 7.89348145 13.51623535 8.28735352 14.19067383 C9 16 9 16 8 19 C5.48492126 20.65481428 2.99650085 22.15772086 0.375 23.625 C-1.17518286 24.50788016 -2.72464773 25.39202203 -4.2734375 26.27734375 C-5.06073242 26.72577637 -5.84802734 27.17420898 -6.65917969 27.63623047 C-8.90141664 28.94256501 -11.09861654 30.30031493 -13.2890625 31.69140625 C-13.95728027 32.11147949 -14.62549805 32.53155273 -15.31396484 32.96435547 C-16.57908504 33.76363065 -17.83761118 34.57346612 -19.08837891 35.39501953 C-21.7687325 37.06732546 -23.54582367 38.0103516 -26.7421875 37.9375 C-29.2730573 36.88661981 -30.24927069 35.99136206 -31.875 33.8125 C-34.49942637 30.48412593 -37.32845486 27.9417101 -40.6796875 25.359375 C-42 24 -42 24 -42 21 C-41.41210693 20.68361572 -40.82421387 20.36723145 -40.21850586 20.04125977 C-37.45619932 18.55195768 -34.69647519 17.0579647 -31.9375 15.5625 C-30.93920166 15.02206055 -29.94090332 14.48162109 -28.91235352 13.92480469 C-22.35999833 10.35395281 -15.91409898 6.66295225 -9.65795898 2.59204102 C-6.29318603 0.4758969 -3.98883274 -0.44567964 0 0 Z " transform="translate(276 71)" class="colorF70302 svgShape"></path><path fill="#ff0000" d="M0 0 C3.40876113 3.01107233 6.1656341 6.4546885 9 10 C10.25683594 11.47146484 10.25683594 11.47146484 11.5390625 12.97265625 C18.89637999 21.64961957 18.89637999 21.64961957 19 25 C17.77734375 26.74609375 17.77734375 26.74609375 15.9375 28.4375 C15.28910156 29.03433594 14.64070313 29.63117188 13.97265625 30.24609375 C13.32167969 30.82488281 12.67070312 31.40367187 12 32 C11.46246094 32.52722656 10.92492187 33.05445313 10.37109375 33.59765625 C6.71867087 37.02120668 6.71867087 37.02120668 3.6171875 36.9296875 C0.14484092 35.69622707 -1.34270599 33.90204178 -3.75 31.125 C-4.61367187 30.135 -5.47734375 29.145 -6.3671875 28.125 C-11.69036994 21.83932332 -16.85765722 15.43369343 -22 9 C-7.57967277 -2.24582897 -7.57967277 -2.24582897 0 0 Z " transform="translate(235 237)" class="colorF30404 svgShape"></path><path fill="#ff0000" d="M0 0 C3.48077209 1.14099629 6.95932886 2.28860184 10.4375 3.4375 C11.43072266 3.76298828 12.42394531 4.08847656 13.44726562 4.42382812 C14.39150391 4.73642578 15.33574219 5.04902344 16.30859375 5.37109375 C17.18314209 5.65911865 18.05769043 5.94714355 18.95874023 6.24389648 C21 7 21 7 22 8 C22.09853953 9.58533545 22.12798689 11.17503341 22.12939453 12.76342773 C22.13254669 13.77795517 22.13569885 14.7924826 22.13894653 15.8377533 C22.1369223 16.94188065 22.13489807 18.046008 22.1328125 19.18359375 C22.13424759 20.87235374 22.13424759 20.87235374 22.13571167 22.5952301 C22.13639373 24.98186295 22.13453764 27.36849764 22.13037109 29.75512695 C22.12502819 33.41817377 22.13031268 37.08109768 22.13671875 40.74414062 C22.13605788 43.05729194 22.13477652 45.37044318 22.1328125 47.68359375 C22.13483673 48.78569687 22.13686096 49.88779999 22.13894653 51.02330017 C22.13579437 52.04097977 22.13264221 53.05865936 22.12939453 54.10717773 C22.12859894 55.00572983 22.12780334 55.90428192 22.12698364 56.83006287 C22 59 22 59 21 61 C14.07 61 7.14 61 0 61 C0 58.36 0 55.72 0 53 C0.33 53 0.66 53 1 53 C1 55.31 1 57.62 1 60 C7.27 60 13.54 60 20 60 C20.33 43.17 20.66 26.34 21 9 C17.33560916 8.26712183 13.68647378 7.60012364 10 7 C10 6.34 10 5.68 10 5 C5.545 4.01 5.545 4.01 1 3 C1 19.17 1 35.34 1 52 C0.34 52 -0.32 52 -1 52 C-1.02526739 44.75513449 -1.0428318 37.51028026 -1.05493164 30.26538086 C-1.05997356 27.79857967 -1.06680691 25.33178148 -1.07543945 22.86499023 C-1.08751125 19.32795471 -1.09322956 15.79095855 -1.09765625 12.25390625 C-1.10281754 11.14350479 -1.10797882 10.03310333 -1.11329651 8.88905334 C-1.11337204 7.86807053 -1.11344757 6.84708771 -1.11352539 5.79516602 C-1.115746 4.89137711 -1.11796661 3.9875882 -1.12025452 3.05641174 C-1 1 -1 1 0 0 Z " transform="translate(140 242)" class="colorC31110 svgShape"></path><path fill="#ff0000" d="M0 0 C0.33 0 0.66 0 1 0 C0.67 9.24 0.34 18.48 0 28 C-0.99 28 -1.98 28 -3 28 C-3 28.66 -3 29.32 -3 30 C-4.05840088 29.722771 -4.05840088 29.722771 -5.13818359 29.43994141 C-8.35416616 28.94555473 -10.61177533 29.29434131 -13.7890625 29.9609375 C-15.45001953 30.29738281 -15.45001953 30.29738281 -17.14453125 30.640625 C-18.29308594 30.88296875 -19.44164063 31.1253125 -20.625 31.375 C-28.75103793 33.06908809 -36.70898663 34.45841804 -45 35 C-45 34.34 -45 33.68 -45 33 C-42.03 33 -39.06 33 -36 33 C-36 32.34 -36 31.68 -36 31 C-20.25512528 28.70387244 -20.25512528 28.70387244 -13 29 C-13 28.34 -13 27.68 -13 27 C-9.37 27 -5.74 27 -2 27 C-2 19.41 -2 11.82 -2 4 C-1.34 4 -0.68 4 0 4 C0 2.68 0 1.36 0 0 Z " transform="translate(93 148)" class="colorCD100F svgShape"></path><path fill="#ff0000" d="M0 0 C2.4375 0.8125 2.4375 0.8125 5 2 C5.33 2.99 5.66 3.98 6 5 C8.68220871 5.55221944 11.35941976 6.05868078 14.0625 6.5 C16.42344167 6.90186241 18.68499933 7.40258047 21 8 C19.85793642 9.50287218 18.71125043 11.00223284 17.5625 12.5 C16.92441406 13.3353125 16.28632812 14.170625 15.62890625 15.03125 C15.09136719 15.6809375 14.55382812 16.330625 14 17 C13.67 17 13.34 17 13 17 C13 15.02 13 13.04 13 11 C12.34 10.67 11.68 10.34 11 10 C10.67 10.66 10.34 11.32 10 12 C5.87248551 11.39301257 2.6678852 9.96189209 -1 8 C-0.67 7.34 -0.34 6.68 0 6 C3.96 7.98 3.96 7.98 8 10 C7.4225 9.36191406 6.845 8.72382812 6.25 8.06640625 C5.5075 7.24011719 4.765 6.41382812 4 5.5625 C3.2575 4.73878906 2.515 3.91507812 1.75 3.06640625 C0 1 0 1 0 0 Z " transform="translate(92 101)" class="colorDC0C0B svgShape"></path><path fill="#ff0000" d="M0 0 C0.66 0.99 1.32 1.98 2 3 C-1.3 2.67 -4.6 2.34 -8 2 C-8.66 3.32 -9.32 4.64 -10 6 C-10.845625 6.66 -11.69125 7.32 -12.5625 8 C-15.08066518 10.06618681 -15.6619668 10.84502343 -16 14 C-15.34 14 -14.68 14 -14 14 C-14.33 14.99 -14.66 15.98 -15 17 C-17.31 14.36 -19.62 11.72 -22 9 C-7.96610169 -1.52542373 -7.96610169 -1.52542373 0 0 Z " transform="translate(235 237)" class="colorDC0F0D svgShape"></path><path fill="#ff0000" d="M0 0 C0.66 0.33 1.32 0.66 2 1 C2 24.76 2 48.52 2 73 C0.02 73.495 0.02 73.495 -2 74 C-1 71 -1 71 0 69 C0.09188942 66.81459189 0.11750236 64.62630031 0.11352539 62.43896484 C0.11367142 61.76567642 0.11381744 61.092388 0.1139679 60.3986969 C0.11327027 58.16941119 0.10548489 55.94020865 0.09765625 53.7109375 C0.09579154 52.16679937 0.09436789 50.62266066 0.09336853 49.07852173 C0.08954754 45.01129528 0.07972082 40.94410445 0.06866455 36.87689209 C0.05844144 32.7278288 0.05386898 28.57875975 0.04882812 24.4296875 C0.03809819 16.28644197 0.02102677 8.14322542 0 0 Z " transform="translate(160 5)" class="colorC81512 svgShape"></path><path fill="#ff0000" d="M0 0 C6.61242722 1.82221376 12.80520671 4.05223604 19 7 C18.67 9.31 18.34 11.62 18 14 C17.67 14 17.34 14 17 14 C17 11.69 17 9.38 17 7 C13.44299235 6.28082359 9.88146051 5.59481196 6.3125 4.9375 C4.88357422 4.67259766 4.88357422 4.67259766 3.42578125 4.40234375 C1.08097945 3.94545797 1.08097945 3.94545797 -1 4 C-1.66 6.97 -2.32 9.94 -3 13 C-3.66 13 -4.32 13 -5 13 C-5.33 14.65 -5.66 16.3 -6 18 C-7.33855096 13.98434713 -6.23071006 12.32812817 -4.6875 8.4375 C-4.23761719 7.28121094 -3.78773438 6.12492187 -3.32421875 4.93359375 C-2 2 -2 2 0 0 Z " transform="translate(192 10)" class="colorCC1011 svgShape"></path><path fill="#ff0000" d="M0 0 C1.28027344 2.37670898 1.28027344 2.37670898 2.359375 5.49609375 C2.75253906 6.61177734 3.14570312 7.72746094 3.55078125 8.87695312 C3.94652344 10.05193359 4.34226562 11.22691406 4.75 12.4375 C5.16121094 13.60861328 5.57242188 14.77972656 5.99609375 15.98632812 C9 24.63378582 9 24.63378582 9 27 C8.01 27 7.02 27 6 27 C5.81824219 26.20335938 5.63648437 25.40671875 5.44921875 24.5859375 C4.12155129 18.98930853 2.72466894 14.09394628 0 9 C-0.76745627 6.68341903 -1.38537173 4.36395489 -2 2 C-3.98 2 -5.96 2 -8 2 C-8 2.66 -8 3.32 -8 4 C-10.31 4 -12.62 4 -15 4 C-12.83900627 1.83900627 -11.4789582 1.28436284 -8.625 0.3125 C-7.46871094 -0.09548828 -7.46871094 -0.09548828 -6.2890625 -0.51171875 C-3.63578125 -1.07769171 -2.48624356 -1.08413544 0 0 Z " transform="translate(111 11)" class="colorCA1112 svgShape"></path><path fill="#ff0000" d="M0 0 C4.8333472 -0.08333357 9.23692563 0.04738513 14 1 C14 2.32 14 3.64 14 5 C14.66 5.33 15.32 5.66 16 6 C15.01 6 14.02 6 13 6 C12.67 6.66 12.34 7.32 12 8 C12 7.34 12 6.68 12 6 C8.04 6 4.08 6 0 6 C0 6.66 0 7.32 0 8 C-3.63 8 -7.26 8 -11 8 C-3.76306482 4.38153241 3.98845941 3.69767771 12 4 C12 3.34 12 2.68 12 2 C8.04 1.67 4.08 1.34 0 1 C0 0.67 0 0.34 0 0 Z " transform="translate(73 151)" class="colorCF1211 svgShape"></path><path fill="#ff0000" d="M0 0 C0.33 0 0.66 0 1 0 C1.39745917 7.9491833 1.39745917 7.9491833 -2 12 C-2.7475781 14.33618156 -3.39888021 16.62692264 -4 19 C-4.44328532 20.73308538 -4.90238014 22.46218343 -5.375 24.1875 C-5.58898437 25.00605469 -5.80296875 25.82460938 -6.0234375 26.66796875 C-7.19133717 29.45691315 -8.83284422 30.92753108 -11 33 C-9.02571072 25.26097538 -6.59882073 17.79475369 -3.8125 10.3125 C-3.44447266 9.31283203 -3.07644531 8.31316406 -2.69726562 7.28320312 C-1.80226758 4.8539227 -0.90314552 2.42626047 0 0 Z " transform="translate(102 253)" class="colorCF0F0F svgShape"></path><path fill="#ff0000" d="M0 0 C0.33 0 0.66 0 1 0 C1.7003953 2.7264315 2.3855775 5.45523527 3.0625 8.1875 C3.36124023 9.34088867 3.36124023 9.34088867 3.66601562 10.51757812 C5.49786932 18.00568182 5.49786932 18.00568182 4 22 C-0.03448276 25 -0.03448276 25 -3 25 C-3 24.34 -3 23.68 -3 23 C-2.34 22.67 -1.68 22.34 -1 22 C-0.65657551 20.66923011 -0.32380126 19.33568021 0 18 C0.66 17.34 1.32 16.68 2 16 C1.67 15.21625 1.34 14.4325 1 13.625 C-0.27410171 9.00638131 -0.16923936 4.75750644 0 0 Z " transform="translate(93 176)" class="colorD60D10 svgShape"></path><path fill="#ff0000" d="M0 0 C0.99 0.33 1.98 0.66 3 1 C2.01 1.66 1.02 2.32 0 3 C-0.36297936 4.97747122 -0.36297936 4.97747122 -0.1875 7.125 C-0.125625 8.40375 -0.06375 9.6825 0 11 C0.66 11.33 1.32 11.66 2 12 C2 13.65 2 15.3 2 17 C2.66 17 3.32 17 4 17 C4 18.65 4 20.3 4 22 C4.66 22 5.32 22 6 22 C6.33 24.97 6.66 27.94 7 31 C3.5538839 27.5538839 2.50908478 22.71154743 0.875 18.1875 C0.31619141 16.68993164 0.31619141 16.68993164 -0.25390625 15.16210938 C-0.60582031 14.19466797 -0.95773438 13.22722656 -1.3203125 12.23046875 C-1.64273926 11.34770264 -1.96516602 10.46493652 -2.29736328 9.55541992 C-3.04145733 6.84922383 -3.35479954 4.78775297 -3 2 C-2.01 1.34 -1.02 0.68 0 0 Z " transform="translate(93 15)" class="colorCC0E12 svgShape"></path><path fill="#ff0000" d="M0 0 C2.3828125 0.99609375 2.3828125 0.99609375 5.125 2.4375 C6.03507812 2.91058594 6.94515625 3.38367188 7.8828125 3.87109375 C8.58148438 4.24363281 9.28015625 4.61617188 10 5 C10 5.33 10 5.66 10 6 C7.69 6 5.38 6 3 6 C3.33 5.01 3.66 4.02 4 3 C3.01 3 2.02 3 1 3 C0.67 4.65 0.34 6.3 0 8 C-1.98 8.66 -3.96 9.32 -6 10 C-2.62068966 1.31034483 -2.62068966 1.31034483 0 0 Z " transform="translate(27 70)" class="colorD50E0F svgShape"></path><path fill="#ff0000" d="M0 0 C0.33 0.99 0.66 1.98 1 3 C2.32 3 3.64 3 5 3 C4.67 4.65 4.34 6.3 4 8 C3.39414063 7.86722656 2.78828125 7.73445312 2.1640625 7.59765625 C-3.87728368 6.32432636 -9.84737892 5.49744596 -16 5 C-16 4.34 -16 3.68 -16 3 C-9.97099313 3.51241107 -3.97995357 4.069785 2 5 C0.35 3.68 -1.3 2.36 -3 1 C-2.01 0.67 -1.02 0.34 0 0 Z " transform="translate(86 126)" class="colorD20E0F svgShape"></path><path fill="#ff0000" d="M0 0 C3.40202433 1.28924356 6.50564554 2.7652076 9.64453125 4.6015625 C10.48564453 5.09140625 11.32675781 5.58125 12.19335938 6.0859375 C13.05767578 6.59382813 13.92199219 7.10171875 14.8125 7.625 C15.69615234 8.140625 16.57980469 8.65625 17.49023438 9.1875 C19.66194789 10.45531114 21.8317818 11.72622348 24 13 C21 14 21 14 18.5 13.25 C16.0894699 12.04473495 14.87054704 10.87054704 13 9 C12.34 8.835 11.68 8.67 11 8.5 C9 8 9 8 7.5625 6.5 C5.51486377 4.53426922 3.76252651 4.37331439 1 4 C0.67 2.68 0.34 1.36 0 0 Z " transform="translate(56 87)" class="colorCD1113 svgShape"></path><path fill="#ff0000" d="M0 0 C0.99 0 1.98 0 3 0 C3 1.65 3 3.3 3 5 C0.5428064 6.5471219 -0.632279 7.04484402 -3.5625 6.6875 C-5.38901612 6.17232879 -7.19960942 5.60013019 -9 5 C-5.55930376 2.70620251 -4.27709699 2 0 2 C0 1.34 0 0.68 0 0 Z " transform="translate(90 176)" class="colorEC0908 svgShape"></path><path fill="#ff0000" d="M0 0 C0 0.66 0 1.32 0 2 C-0.99 2 -1.98 2 -3 2 C-2.67 4.64 -2.34 7.28 -2 10 C-1.01 10.33 -0.02 10.66 1 11 C0.67 11.66 0.34 12.32 0 13 C-1.34212062 11.90653119 -2.67347975 10.7998425 -4 9.6875 C-4.7425 9.07261719 -5.485 8.45773438 -6.25 7.82421875 C-8 6 -8 6 -8 3 C-2.25 0 -2.25 0 0 0 Z " transform="translate(242 89)" class="colorD30E0F svgShape"></path><path fill="#ff0000" d="M0 0 C2.9156164 3.54039134 5.50127818 7.1626772 8 11 C6.25 14.875 6.25 14.875 4 16 C3.33333333 12 2.66666667 8 2 4 C1.34 4 0.68 4 0 4 C0 2.68 0 1.36 0 0 Z " transform="translate(103 206)" class="colorD50F0E svgShape"></path><path fill="#ff0000" d="M0 0 C0.33 0 0.66 0 1 0 C1 4.29 1 8.58 1 13 C0.01 13.495 0.01 13.495 -1 14 C-1.66 13.67 -2.32 13.34 -3 13 C-3.66 14.32 -4.32 15.64 -5 17 C-4.35083537 10.99522721 -2.14204997 5.599219 0 0 Z " transform="translate(182 33)" class="colorD40A09 svgShape"></path><path fill="#ff0000" d="M0 0 C2.97 1.98 2.97 1.98 6 4 C5.6875 6.375 5.6875 6.375 5 9 C4.01 9.66 3.02 10.32 2 11 C-0.32590854 7.36576791 -0.16265833 4.22911669 0 0 Z " transform="translate(248 41)" class="colorDB0E0E svgShape"></path><path fill="#ff0000" d="M0 0 C4.59306496 1.4859916 7.43569245 3.85014682 11 7 C8 7 8 7 5.75 5.9375 C2.20237389 4.72808201 -0.36824342 5.28789087 -4 6 C-2.68 4.02 -1.36 2.04 0 0 Z " transform="translate(237 33)" class="colorD21111 svgShape"></path><path fill="#ff0000" d="M0 0 C1.32 0 2.64 0 4 0 C4.66 2.31 5.32 4.62 6 7 C5.34 7 4.68 7 4 7 C4 6.01 4 5.02 4 4 C2.88625 4.680625 1.7725 5.36125 0.625 6.0625 C-1.2734375 7.22265625 -1.2734375 7.22265625 -3 8 C-3.66 7.67 -4.32 7.34 -5 7 C-4.26708288 5.8225266 -3.51296199 4.65823146 -2.75 3.5 C-2.33234375 2.8503125 -1.9146875 2.200625 -1.484375 1.53125 C-0.74960938 0.77328125 -0.74960938 0.77328125 0 0 Z " transform="translate(97 199)" class="colorD60C0B svgShape"></path><path fill="#ff0000" d="M0 0 C1.6852084 4.07679159 0.16939007 6.83075593 -1.4375 10.75 C-1.91058594 11.92046875 -2.38367188 13.0909375 -2.87109375 14.296875 C-3.24363281 15.18890625 -3.61617187 16.0809375 -4 17 C-4.33 17 -4.66 17 -5 17 C-5.05422947 15.5629191 -5.09289723 14.12524538 -5.125 12.6875 C-5.14820313 11.88699219 -5.17140625 11.08648437 -5.1953125 10.26171875 C-5 8 -5 8 -3 5 C-2.34 5 -1.68 5 -1 5 C-0.67 3.35 -0.34 1.7 0 0 Z " transform="translate(208 24)" class="colorD00E0E svgShape"></path><path fill="#ff0000" d="M0 0 C-5.23478261 4.0173913 -5.23478261 4.0173913 -8.75 3.9375 C-11 3 -11 3 -13 0 C-11.20909747 -0.19466332 -9.41723495 -0.38051213 -7.625 -0.5625 C-6.12839844 -0.71912109 -6.12839844 -0.71912109 -4.6015625 -0.87890625 C-2 -1 -2 -1 0 0 Z " transform="translate(258 105)" class="colorD4100F svgShape"></path><path fill="#ff0000" d="M0 0 C0.33 0 0.66 0 1 0 C1 1.65 1 3.3 1 5 C2.98 4.67 4.96 4.34 7 4 C7 4.99 7 5.98 7 7 C7.3062434 8.33981486 7.63451555 9.67511887 8 11 C4.56404834 9.47291037 1.88087546 7.40072955 -1 5 C-0.67 3.35 -0.34 1.7 0 0 Z " transform="translate(48 258)" class="colorCD0E0D svgShape"></path><path fill="#ff0000" d="M0 0 C0.33 0 0.66 0 1 0 C1.33 4.95 1.66 9.9 2 15 C3.32 15.33 4.64 15.66 6 16 C4.02 16.66 2.04 17.32 0 18 C-1.04167441 13.90274731 -0.94409525 10.38504776 -0.5625 6.1875 C-0.46066406 5.02605469 -0.35882813 3.86460938 -0.25390625 2.66796875 C-0.17011719 1.78753906 -0.08632812 0.90710938 0 0 Z " transform="translate(140 68)" class="colorC41114 svgShape"></path><path fill="#ff0000" d="M0 0 C0.66 0.33 1.32 0.66 2 1 C1 3 1 3 -2.5 4.375 C-6.10642443 5.57589733 -6.10642443 5.57589733 -6.9375 8.1875 C-6.958125 8.785625 -6.97875 9.38375 -7 10 C-7.99 8.35 -8.98 6.7 -10 5 C-8.38007835 4.13624104 -6.75388139 3.28424146 -5.125 2.4375 C-4.22007812 1.96183594 -3.31515625 1.48617187 -2.3828125 0.99609375 C-1.20332031 0.50302734 -1.20332031 0.50302734 0 0 Z " transform="translate(223 240)" class="colorC81415 svgShape"></path><path fill="#ff0000" d="M0 0 C1.65 0 3.3 0 5 0 C2.66666667 2.33333333 0.33333333 4.66666667 -2 7 C-4.5 6.8125 -4.5 6.8125 -7 6 C-7.66 5.01 -8.32 4.02 -9 3 C-7 4 -5 5 -3 6 C-3 5.01 -3 4.02 -3 3 C-2.01 3 -1.02 3 0 3 C0 2.01 0 1.02 0 0 Z " transform="translate(243 267)" class="colorCC0F16 svgShape"></path><path fill="#ff0000" d="M0 0 C0 4.02085211 -1.59292359 6.87772197 -4 10 C-6.75 11.4375 -6.75 11.4375 -9 12 C-7.55575365 8.76138697 -5.74227753 6.38030837 -3.375 3.75 C-2.74335937 3.04359375 -2.11171875 2.3371875 -1.4609375 1.609375 C-0.97882813 1.07828125 -0.49671875 0.5471875 0 0 Z " transform="translate(77 224)" class="colorD70F0E svgShape"></path><path fill="#ff0000" d="M0 0 C2.04650391 3.06975587 2.99704565 5.69084152 4.125 9.1875 C4.47820312 10.27417969 4.83140625 11.36085938 5.1953125 12.48046875 C5.46085938 13.31191406 5.72640625 14.14335938 6 15 C5.01 15.66 4.02 16.32 3 17 C2.87625 15.783125 2.7525 14.56625 2.625 13.3125 C2.21117494 9.91193756 1.31977835 7.16746803 0 4 C0 2.68 0 1.36 0 0 Z " transform="translate(132 72)" class="colorC31615 svgShape"></path><path fill="#ff0000" d="M0 0 C4.95 2.64 9.9 5.28 15 8 C15 8.33 15 8.66 15 9 C12.6875 9.1875 12.6875 9.1875 10 9 C8.625 7.75 8.625 7.75 7 6 C4.71441151 4.56701306 2.36835122 3.29589029 0 2 C0 1.34 0 0.68 0 0 Z " transform="translate(38 76)" class="colorC71213 svgShape"></path><path fill="#ff0000" d="M0 0 C0.28875 0.598125 0.5775 1.19625 0.875 1.8125 C2.04742026 4.19327792 2.04742026 4.19327792 4 7 C2.02 7.33 0.04 7.66 -2 8 C-2.125 5.125 -2.125 5.125 -2 2 C-1.34 1.34 -0.68 0.68 0 0 Z " transform="translate(51 255)" class="colorEE060B svgShape"></path><path fill="#ff0000" d="M0 0 C0.33 1.32 0.66 2.64 1 4 C-1.97 6.475 -1.97 6.475 -5 9 C-5.66 8.67 -6.32 8.34 -7 8 C-4.69 5.36 -2.38 2.72 0 0 Z " transform="translate(67 236)" class="colorD70C0D svgShape"></path><path fill="#ff0000" d="M0 0 C1.65 0 3.3 0 5 0 C1.80009492 2.74277578 -1.00499382 4.6302836 -5 6 C-5 4.35 -5 2.7 -5 1 C-3.68 1.33 -2.36 1.66 -1 2 C-0.67 1.34 -0.34 0.68 0 0 Z " transform="translate(85 201)" class="colorDE0D0F svgShape"></path><path fill="#ff0000" d="M0 0 C1.65 0.33 3.3 0.66 5 1 C4.34 2.32 3.68 3.64 3 5 C-0.73487777 4.5020163 -2.81237635 4.12508244 -6 2 C-4.35 2 -2.7 2 -1 2 C-0.67 1.34 -0.34 0.68 0 0 Z " transform="translate(220 81)" class="colorD60D10 svgShape"></path><path fill="#ff0000" d="M0 0 C2.31 0 4.62 0 7 0 C-0.71428571 6 -0.71428571 6 -4 6 C-4 5.34 -4 4.68 -4 4 C-3.01 4 -2.02 4 -1 4 C-0.67 2.68 -0.34 1.36 0 0 Z " transform="translate(39 227)" class="colorD60F0F svgShape"></path><path fill="#ff0000" d="M0 0 C2.1875 -0.3125 2.1875 -0.3125 5 0 C7.8125 2.5 7.8125 2.5 10 5 C9.01 5.495 9.01 5.495 8 6 C6.0546875 5.0390625 6.0546875 5.0390625 3.875 3.625 C3.15054688 3.16351563 2.42609375 2.70203125 1.6796875 2.2265625 C1.12539063 1.82179688 0.57109375 1.41703125 0 1 C0 0.67 0 0.34 0 0 Z " transform="translate(45 105)" class="colorD80D12 svgShape"></path><path fill="#ff0000" d="M0 0 C3.24299151 2.38957269 5.50902342 4.2047869 7 8 C4.03 7.505 4.03 7.505 1 7 C0.67 4.69 0.34 2.38 0 0 Z " transform="translate(108 87)" class="colorDB0B0A svgShape"></path><path fill="#ff0000" d="M0 0 C2.3125 -0.3125 2.3125 -0.3125 5 0 C6.875 2.375 6.875 2.375 8 5 C7.67 5.66 7.34 6.32 7 7 C6.34 6.67 5.68 6.34 5 6 C5 5.34 5 4.68 5 4 C3.02 3.34 1.04 2.68 -1 2 C-0.67 1.34 -0.34 0.68 0 0 Z " transform="translate(271 71)" class="colorCA1315 svgShape"></path><path fill="#ff0000" d="M0 0 C0.33 1.32 0.66 2.64 1 4 C0.01 4.33 -0.98 4.66 -2 5 C-2.73323796 7.01508358 -2.73323796 7.01508358 -3 9 C-4.32 8.67 -5.64 8.34 -7 8 C-4.69 5.36 -2.38 2.72 0 0 Z " transform="translate(232 39)" class="colorD51010 svgShape"></path><path fill="#ff0000" d="M0 0 C0.66 0.33 1.32 0.66 2 1 C1.979375 1.721875 1.95875 2.44375 1.9375 3.1875 C1.99820559 5.91925138 2.39258535 8.34256091 3 11 C-1.76058041 5.47158404 -1.76058041 5.47158404 -2 2 C-1.34 1.34 -0.68 0.68 0 0 Z " transform="translate(18 217)" class="colorC21114 svgShape"></path><path fill="#ff0000" d="M0 0 C0.66 1.32 1.32 2.64 2 4 C1.360625 4.103125 0.72125 4.20625 0.0625 4.3125 C-0.618125 4.539375 -1.29875 4.76625 -2 5 C-2.33 5.99 -2.66 6.98 -3 8 C-3.99 8.33 -4.98 8.66 -6 9 C-4.47291037 5.56404834 -2.40072955 2.88087546 0 0 Z " transform="translate(89 209)" class="colorDC0F0F svgShape"></path><path fill="#ff0000" d="M0 0 C0.66 0.33 1.32 0.66 2 1 C1 4 1 4 -1.3125 5.25 C-4.16597407 6.04631835 -5.24802325 5.8214856 -8 5 C-6.71475739 4.13619741 -5.42157581 3.28419631 -4.125 2.4375 C-3.04605469 1.72400391 -3.04605469 1.72400391 -1.9453125 0.99609375 C-1.30335938 0.66738281 -0.66140625 0.33867188 0 0 Z " transform="translate(264 75)" class="colorD10E10 svgShape"></path><path fill="#ff0000" d="M0 0 C0.99 0.33 1.98 0.66 3 1 C1.02 3.31 -0.96 5.62 -3 8 C-3.66 6.68 -4.32 5.36 -5 4 C-3.35 3.67 -1.7 3.34 0 3 C0 2.01 0 1.02 0 0 Z " transform="translate(237 64)" class="colorD70E0E svgShape"></path><path fill="#ff0000" d="M0 0 C2.91517292 1.07401108 4.77810176 1.77810176 7 4 C6.01 4 5.02 4 4 4 C4 4.99 4 5.98 4 7 C3.34 7 2.68 7 2 7 C1.34 4.69 0.68 2.38 0 0 Z " transform="translate(80 101)" class="colorDE0C0B svgShape"></path><path fill="#ff0000" d="M0 0 C0.66 0.33 1.32 0.66 2 1 C-0.31944788 4.47917182 -2.26369964 5.29429766 -6 7 C-6.66 6.34 -7.32 5.68 -8 5 C-6.71475739 4.13619741 -5.42157581 3.28419631 -4.125 2.4375 C-3.04605469 1.72400391 -3.04605469 1.72400391 -1.9453125 0.99609375 C-1.30335938 0.66738281 -0.66140625 0.33867188 0 0 Z " transform="translate(250 83)" class="colorD00D0E svgShape"></path><path fill="#ff0000" d="M0 0 C2.64 1.65 5.28 3.3 8 5 C6.02 5.99 6.02 5.99 4 7 C2.66666667 5.66666667 1.33333333 4.33333333 0 3 C0 2.01 0 1.02 0 0 Z " transform="translate(121 229)" class="colorD50E0B svgShape"></path><path fill="#ff0000" d="M0 0 C0 0.66 0 1.32 0 2 C-0.99 2 -1.98 2 -3 2 C-3 2.66 -3 3.32 -3 4 C-6 6 -6 6 -8.1875 5.625 C-8.785625 5.41875 -9.38375 5.2125 -10 5 C-8.71186658 4.16121545 -7.41936744 3.32913217 -6.125 2.5 C-5.40570313 2.0359375 -4.68640625 1.571875 -3.9453125 1.09375 C-2 0 -2 0 0 0 Z " transform="translate(72 187)" class="colorCF130E svgShape"></path><path fill="#ff0000" d="M0 0 C0.66 0 1.32 0 2 0 C2 1.32 2 2.64 2 4 C4.31 4.33 6.62 4.66 9 5 C5.18510326 6.46726798 2.70988378 5.43336419 -1 4 C-0.67 2.68 -0.34 1.36 0 0 Z " transform="translate(201 75)" class="colorC00E0E svgShape"></path><path fill="#ff0000" d="M0 0 C0 0.66 0 1.32 0 2 C-0.9590625 2.1546875 -0.9590625 2.1546875 -1.9375 2.3125 C-2.618125 2.539375 -3.29875 2.76625 -4 3 C-4.33 3.99 -4.66 4.98 -5 6 C-6.32 5.34 -7.64 4.68 -9 4 C-2.25 0 -2.25 0 0 0 Z " transform="translate(81 182)" class="colorD81011 svgShape"></path><path fill="#ff0000" d="M0 0 C0.33 1.65 0.66 3.3 1 5 C-1.97 4.505 -1.97 4.505 -5 4 C-4.67 3.01 -4.34 2.02 -4 1 C-2 0 -2 0 0 0 Z " transform="translate(270 73)" class="colorE60A08 svgShape"></path><path fill="#ff0000" d="M0 0 C2.2477975 2.05233685 3.0022242 3.00667261 4 6 C3.67 6.66 3.34 7.32 3 8 C2.34 8 1.68 8 1 8 C0.17361624 5.10765685 0 3.11257569 0 0 Z " transform="translate(281 82)" class="colorD21112 svgShape"></path><path fill="#ff0000" d="M0 0 C0.66 0.33 1.32 0.66 2 1 C-1.32307692 4.93846154 -1.32307692 4.93846154 -4.75 5.25 C-5.4925 5.1675 -6.235 5.085 -7 5 C-4.702779 3.25728062 -2.40133271 1.60088848 0 0 Z " transform="translate(37 206)" class="colorCD1210 svgShape"></path><path fill="#ff0000" d="M0 0 C2.4375 0.6875 2.4375 0.6875 5 2 C5.8125 4.625 5.8125 4.625 6 7 C1.125 3.375 1.125 3.375 0 0 Z " transform="translate(58 60)" class="colorCF0F12 svgShape"></path><path fill="#ff0000" d="M0 0 C0.33 1.32 0.66 2.64 1 4 C0.34 4 -0.32 4 -1 4 C-1 4.99 -1 5.98 -1 7 C-2.32 7.33 -3.64 7.66 -5 8 C-3.62845496 5.04590299 -2.01136276 2.55991624 0 0 Z " transform="translate(224 48)" class="colorCF1012 svgShape"></path></svg></g></svg>