<svg version="1.1" xmlns="http://www.w3.org/2000/svg" width="512px" height="512px" transform="rotate(0) scale(1, 1)">
<path d="M0 0 C4.83735148 2.61364524 8.06265925 6.09032151 9.79296875 11.28125 C10.3322381 20.60277917 9.42023944 29.51203951 7.82421875 38.6796875 C7.62445435 39.88066071 7.42468994 41.08163391 7.21887207 42.31900024 C6.58749558 46.09995417 5.94053781 49.87803946 5.29296875 53.65625 C4.858335 56.2420129 4.4247321 58.8279493 3.9921875 61.4140625 C2.93767103 67.70517677 1.87039985 73.99402185 0.79296875 80.28125 C1.41034409 80.06971786 2.02771942 79.85818573 2.6638031 79.64024353 C3.47398392 79.36571854 4.28416473 79.09119354 5.11889648 78.80834961 C6.32339699 78.39823891 6.32339699 78.39823891 7.55223083 77.97984314 C13.23015362 76.20964151 18.76306897 76.50194973 24.16796875 78.96875 C35.54096653 85.59158003 37.36577312 102.31184581 40.7734375 114.14453125 C41.25893881 115.81984968 41.74478314 117.49506873 42.23094177 119.17019653 C43.2721855 122.76053921 44.31111761 126.35153944 45.34820557 129.94308472 C47.00820617 135.69173197 48.67338933 141.43887019 50.33935547 147.18579102 C52.37415292 154.20622426 54.40778091 161.22699407 56.43984985 168.24821758 C61.56934935 185.97115742 66.71991997 203.68795505 71.87246704 221.40420532 C73.41580665 226.71095077 74.95833036 232.01793317 76.50073242 237.32495117 C81.53314009 254.63934856 86.56962203 271.95255107 91.61341476 289.26363564 C92.43257774 292.07516753 93.25165567 294.88672419 94.07070923 297.69828796 C96.40196147 305.70057988 98.73347497 313.70279473 101.06687355 321.7044611 C102.00639589 324.9267824 102.94531529 328.14927917 103.88408279 331.37182045 C104.31857753 332.86280554 104.75334263 334.35371187 105.18839645 335.84453392 C105.7812378 337.87613543 106.37315207 339.90800482 106.96484375 341.93994141 C107.29581055 343.07509186 107.62677734 344.21024231 107.96777344 345.37979126 C110.06977027 352.77059557 111.08601075 360.17394013 108.73046875 367.65625 C102.85795178 375.61256331 96.00024043 377.93909964 86.66015625 380.5390625 C85.3361912 380.92191878 84.01270085 381.30641984 82.68965149 381.69242859 C79.10622377 382.73309158 75.51675586 383.75128395 71.92583847 384.76575089 C68.09678168 385.85195505 64.27393049 386.95958149 60.45043945 388.06518555 C54.06152075 389.91006191 47.66941885 391.74347347 41.27490234 393.56884766 C32.4157894 396.09855405 23.56565476 398.65843347 14.71875 401.23046875 C13.3259419 401.63525237 11.9331298 402.04002227 10.54031372 402.44477844 C8.45186452 403.05169176 6.36341739 403.65861213 4.27499962 404.26563358 C-2.85054635 406.33628525 -9.97861827 408.39818685 -17.10668564 410.46013832 C-35.94077258 415.90875279 -54.76668295 421.3853283 -73.59083557 426.86815262 C-76.08630194 427.5949939 -78.58178426 428.32178044 -81.07727051 429.04855347 C-89.45215194 431.48764402 -97.82693831 433.92706077 -106.20166016 436.36669922 C-115.23978339 438.99958301 -124.27805768 441.63194774 -133.31643867 444.26394653 C-135.754765 444.97404393 -138.1930521 445.68427586 -140.6313324 446.39453125 C-147.92639568 448.51934851 -155.22176935 450.64307195 -162.51872158 452.7613945 C-166.58948968 453.94315525 -170.66003018 455.12569853 -174.73046875 456.30859375 C-175.54369158 456.54489502 -176.35691441 456.78119629 -177.19478035 457.0246582 C-189.08818582 460.48226068 -200.96918934 463.98039924 -212.84431458 467.50024414 C-219.79401408 469.55976739 -226.7469296 471.60833538 -233.70061779 473.65434647 C-239.42181841 475.33871438 -245.13865687 477.03694344 -250.85261917 478.74569416 C-254.39751697 479.80203469 -257.94632993 480.84470558 -261.49633408 481.88374138 C-263.13771318 482.36714244 -264.77746446 482.85611329 -266.41534805 483.35122871 C-286.46359657 489.40418314 -286.46359657 489.40418314 -296.58203125 486.21875 C-305.45126957 479.67240743 -307.48088323 471.30506771 -310.33203125 461.15625 C-310.83712467 459.41170895 -311.34395081 457.66766886 -311.85229492 455.92407227 C-313.00510197 451.95732163 -314.14610991 447.9873967 -315.27978516 444.01513672 C-317.18051743 437.36090937 -319.10889709 430.7148263 -321.04210281 424.06997871 C-324.3940761 412.54835614 -327.73469553 401.02348793 -331.06696701 389.49615288 C-336.16274224 371.86918957 -341.2868691 354.25057924 -346.42123699 336.63482285 C-348.09886169 330.87846533 -349.7744645 325.12152207 -351.44897461 319.36425781 C-352.40996376 316.06053823 -353.37099154 312.75682988 -354.33203125 309.453125 C-354.57028185 308.63403908 -354.80853245 307.81495316 -355.05400276 306.97104645 C-358.07412826 296.58950487 -361.10411745 286.21091379 -364.14583397 275.83567715 C-366.22079919 268.75720369 -368.28985508 261.67701986 -370.35483742 254.59562778 C-371.58039806 250.3940538 -372.80909491 246.19345599 -374.04559326 241.99508667 C-375.19500796 238.09235818 -376.33617179 234.18731097 -377.47119141 230.28037262 C-377.8866343 228.85584064 -378.30508204 227.43218073 -378.72686768 226.00951385 C-384.94851086 205.00719458 -384.94851086 205.00719458 -381.31640625 197.08984375 C-377.70331316 191.19948424 -372.99944587 189.02738207 -366.53515625 186.92724609 C-365.87930542 186.71384268 -365.22345459 186.50043926 -364.54772949 186.28056908 C-356.6489521 183.73671053 -348.67945472 181.4326107 -340.70703125 179.1328125 C-339.01843545 178.64324571 -337.32992047 178.15340005 -335.64147949 177.66329956 C-332.04329789 176.61944793 -328.44459755 175.57741244 -324.84545898 174.53686523 C-319.09596905 172.87459071 -313.34769117 171.20815199 -307.59960938 169.54101562 C-301.64499105 167.81415396 -295.69031194 166.08750421 -289.73522949 164.36224365 C-277.1504249 160.71616632 -264.56788856 157.06240635 -251.98828125 153.3984375 C-251.18547855 153.16461239 -250.38267586 152.93078728 -249.55554581 152.68987656 C-245.53846085 151.51977805 -241.52143957 150.34946112 -237.50445557 149.17901611 C-229.4134012 146.82152626 -221.32196702 144.46534073 -213.23046875 142.109375 C-212.0166836 141.75595221 -212.0166836 141.75595221 -210.77837753 141.39538956 C-198.58677533 137.84566616 -186.3939765 134.3000722 -174.20042038 130.75706673 C-171.43329229 129.95303741 -168.66618361 129.14894133 -165.89907837 128.34483337 C-157.66698662 125.95270069 -149.43478182 123.56095976 -141.20212746 121.17076397 C-124.07892523 116.19897455 -106.95883975 111.21739528 -89.85435867 106.18152237 C-87.50790695 105.49084479 -85.16126319 104.800824 -82.81454468 104.11105347 C-81.3032833 103.6668104 -79.79202231 103.22256604 -78.28076172 102.77832031 C-77.54883291 102.56318598 -76.81690411 102.34805164 -76.06279564 102.12639809 C-71.80906717 100.8755375 -67.55684282 99.61971891 -63.30571747 98.36004162 C-61.3488108 97.78102666 -59.39121851 97.20440487 -57.43328857 96.62886047 C-55.07937646 95.9368021 -52.7266269 95.2407717 -50.37530518 94.53996277 C-48.83480499 94.08886894 -48.83480499 94.08886894 -47.26318359 93.62866211 C-46.37674164 93.36653427 -45.49029968 93.10440643 -44.57699585 92.83433533 C-42.20703125 92.28125 -42.20703125 92.28125 -38.20703125 92.28125 C-38.16226151 91.66896042 -38.11749176 91.05667084 -38.07136536 90.42582703 C-37.39399392 82.09168203 -36.15526655 73.86587567 -34.84375 65.61328125 C-34.72830149 64.88314001 -34.61285297 64.15299877 -34.49390602 63.40073204 C-33.88405071 59.54584626 -33.26970789 55.69170736 -32.65161133 51.83813477 C-32.01812409 47.88276444 -31.40052215 43.92508218 -30.78641033 39.96666431 C-30.30709425 36.89642886 -29.81592645 33.82817224 -29.32160378 30.76032066 C-29.0887676 29.30232092 -28.86031793 27.84361302 -28.63654137 26.38419533 C-25.83485806 8.17737456 -25.83485806 8.17737456 -19.08203125 2.34375 C-13.4891383 -1.66854277 -6.61688918 -2.15488073 0 0 Z " fill="#fefefe" transform="translate(402.20703125,12.71875)"/>
<path d="M0 0 C4.83735148 2.61364524 8.06265925 6.09032151 9.79296875 11.28125 C10.3322381 20.60277917 9.42023944 29.51203951 7.82421875 38.6796875 C7.62445435 39.88066071 7.42468994 41.08163391 7.21887207 42.31900024 C6.58749558 46.09995417 5.94053781 49.87803946 5.29296875 53.65625 C4.858335 56.2420129 4.4247321 58.8279493 3.9921875 61.4140625 C2.93767103 67.70517677 1.87039985 73.99402185 0.79296875 80.28125 C1.41034409 80.06971786 2.02771942 79.85818573 2.6638031 79.64024353 C3.47398392 79.36571854 4.28416473 79.09119354 5.11889648 78.80834961 C6.32339699 78.39823891 6.32339699 78.39823891 7.55223083 77.97984314 C13.23015362 76.20964151 18.76306897 76.50194973 24.16796875 78.96875 C35.54096653 85.59158003 37.36577312 102.31184581 40.7734375 114.14453125 C41.25893881 115.81984968 41.74478314 117.49506873 42.23094177 119.17019653 C43.2721855 122.76053921 44.31111761 126.35153944 45.34820557 129.94308472 C47.00820617 135.69173197 48.67338933 141.43887019 50.33935547 147.18579102 C52.37415292 154.20622426 54.40778091 161.22699407 56.43984985 168.24821758 C61.56934935 185.97115742 66.71991997 203.68795505 71.87246704 221.40420532 C73.41580665 226.71095077 74.95833036 232.01793317 76.50073242 237.32495117 C81.53314009 254.63934856 86.56962203 271.95255107 91.61341476 289.26363564 C92.43257774 292.07516753 93.25165567 294.88672419 94.07070923 297.69828796 C96.40196147 305.70057988 98.73347497 313.70279473 101.06687355 321.7044611 C102.00639589 324.9267824 102.94531529 328.14927917 103.88408279 331.37182045 C104.31857753 332.86280554 104.75334263 334.35371187 105.18839645 335.84453392 C105.7812378 337.87613543 106.37315207 339.90800482 106.96484375 341.93994141 C107.29581055 343.07509186 107.62677734 344.21024231 107.96777344 345.37979126 C110.06977027 352.77059557 111.08601075 360.17394013 108.73046875 367.65625 C102.85795178 375.61256331 96.00024043 377.93909964 86.66015625 380.5390625 C85.3361912 380.92191878 84.01270085 381.30641984 82.68965149 381.69242859 C79.10622377 382.73309158 75.51675586 383.75128395 71.92583847 384.76575089 C68.09678168 385.85195505 64.27393049 386.95958149 60.45043945 388.06518555 C54.06152075 389.91006191 47.66941885 391.74347347 41.27490234 393.56884766 C32.4157894 396.09855405 23.56565476 398.65843347 14.71875 401.23046875 C13.3259419 401.63525237 11.9331298 402.04002227 10.54031372 402.44477844 C8.45186452 403.05169176 6.36341739 403.65861213 4.27499962 404.26563358 C-2.85054635 406.33628525 -9.97861827 408.39818685 -17.10668564 410.46013832 C-35.94077258 415.90875279 -54.76668295 421.3853283 -73.59083557 426.86815262 C-76.08630194 427.5949939 -78.58178426 428.32178044 -81.07727051 429.04855347 C-89.45215194 431.48764402 -97.82693831 433.92706077 -106.20166016 436.36669922 C-115.23978339 438.99958301 -124.27805768 441.63194774 -133.31643867 444.26394653 C-135.754765 444.97404393 -138.1930521 445.68427586 -140.6313324 446.39453125 C-147.92639568 448.51934851 -155.22176935 450.64307195 -162.51872158 452.7613945 C-166.58948968 453.94315525 -170.66003018 455.12569853 -174.73046875 456.30859375 C-175.54369158 456.54489502 -176.35691441 456.78119629 -177.19478035 457.0246582 C-189.08818582 460.48226068 -200.96918934 463.98039924 -212.84431458 467.50024414 C-219.79401408 469.55976739 -226.7469296 471.60833538 -233.70061779 473.65434647 C-239.42181841 475.33871438 -245.13865687 477.03694344 -250.85261917 478.74569416 C-254.39751697 479.80203469 -257.94632993 480.84470558 -261.49633408 481.88374138 C-263.13771318 482.36714244 -264.77746446 482.85611329 -266.41534805 483.35122871 C-286.46359657 489.40418314 -286.46359657 489.40418314 -296.58203125 486.21875 C-305.45126957 479.67240743 -307.48088323 471.30506771 -310.33203125 461.15625 C-310.83712467 459.41170895 -311.34395081 457.66766886 -311.85229492 455.92407227 C-313.00510197 451.95732163 -314.14610991 447.9873967 -315.27978516 444.01513672 C-317.18051743 437.36090937 -319.10889709 430.7148263 -321.04210281 424.06997871 C-324.3940761 412.54835614 -327.73469553 401.02348793 -331.06696701 389.49615288 C-336.16274224 371.86918957 -341.2868691 354.25057924 -346.42123699 336.63482285 C-348.09886169 330.87846533 -349.7744645 325.12152207 -351.44897461 319.36425781 C-352.40996376 316.06053823 -353.37099154 312.75682988 -354.33203125 309.453125 C-354.57028185 308.63403908 -354.80853245 307.81495316 -355.05400276 306.97104645 C-358.07412826 296.58950487 -361.10411745 286.21091379 -364.14583397 275.83567715 C-366.22079919 268.75720369 -368.28985508 261.67701986 -370.35483742 254.59562778 C-371.58039806 250.3940538 -372.80909491 246.19345599 -374.04559326 241.99508667 C-375.19500796 238.09235818 -376.33617179 234.18731097 -377.47119141 230.28037262 C-377.8866343 228.85584064 -378.30508204 227.43218073 -378.72686768 226.00951385 C-384.94851086 205.00719458 -384.94851086 205.00719458 -381.31640625 197.08984375 C-377.70331316 191.19948424 -372.99944587 189.02738207 -366.53515625 186.92724609 C-365.87930542 186.71384268 -365.22345459 186.50043926 -364.54772949 186.28056908 C-356.6489521 183.73671053 -348.67945472 181.4326107 -340.70703125 179.1328125 C-339.01843545 178.64324571 -337.32992047 178.15340005 -335.64147949 177.66329956 C-332.04329789 176.61944793 -328.44459755 175.57741244 -324.84545898 174.53686523 C-319.09596905 172.87459071 -313.34769117 171.20815199 -307.59960938 169.54101562 C-301.64499105 167.81415396 -295.69031194 166.08750421 -289.73522949 164.36224365 C-277.1504249 160.71616632 -264.56788856 157.06240635 -251.98828125 153.3984375 C-251.18547855 153.16461239 -250.38267586 152.93078728 -249.55554581 152.68987656 C-245.53846085 151.51977805 -241.52143957 150.34946112 -237.50445557 149.17901611 C-229.4134012 146.82152626 -221.32196702 144.46534073 -213.23046875 142.109375 C-212.0166836 141.75595221 -212.0166836 141.75595221 -210.77837753 141.39538956 C-198.58677533 137.84566616 -186.3939765 134.3000722 -174.20042038 130.75706673 C-171.43329229 129.95303741 -168.66618361 129.14894133 -165.89907837 128.34483337 C-157.66698662 125.95270069 -149.43478182 123.56095976 -141.20212746 121.17076397 C-124.07892523 116.19897455 -106.95883975 111.21739528 -89.85435867 106.18152237 C-87.50790695 105.49084479 -85.16126319 104.800824 -82.81454468 104.11105347 C-81.3032833 103.6668104 -79.79202231 103.22256604 -78.28076172 102.77832031 C-77.54883291 102.56318598 -76.81690411 102.34805164 -76.06279564 102.12639809 C-71.80906717 100.8755375 -67.55684282 99.61971891 -63.30571747 98.36004162 C-61.3488108 97.78102666 -59.39121851 97.20440487 -57.43328857 96.62886047 C-55.07937646 95.9368021 -52.7266269 95.2407717 -50.37530518 94.53996277 C-48.83480499 94.08886894 -48.83480499 94.08886894 -47.26318359 93.62866211 C-46.37674164 93.36653427 -45.49029968 93.10440643 -44.57699585 92.83433533 C-42.20703125 92.28125 -42.20703125 92.28125 -38.20703125 92.28125 C-38.16226151 91.66896042 -38.11749176 91.05667084 -38.07136536 90.42582703 C-37.39399392 82.09168203 -36.15526655 73.86587567 -34.84375 65.61328125 C-34.72830149 64.88314001 -34.61285297 64.15299877 -34.49390602 63.40073204 C-33.88405071 59.54584626 -33.26970789 55.69170736 -32.65161133 51.83813477 C-32.01812409 47.88276444 -31.40052215 43.92508218 -30.78641033 39.96666431 C-30.30709425 36.89642886 -29.81592645 33.82817224 -29.32160378 30.76032066 C-29.0887676 29.30232092 -28.86031793 27.84361302 -28.63654137 26.38419533 C-25.83485806 8.17737456 -25.83485806 8.17737456 -19.08203125 2.34375 C-13.4891383 -1.66854277 -6.61688918 -2.15488073 0 0 Z M-4.20703125 103.28125 C-6.88194628 116.5456816 -9.17086485 129.86267502 -11.33203125 143.21875 C-11.45991028 144.00671967 -11.58778931 144.79468933 -11.71954346 145.60653687 C-12.09487791 147.92358752 -12.46788186 150.24099947 -12.83984375 152.55859375 C-12.94808472 153.22912781 -13.05632568 153.89966187 -13.16784668 154.59051514 C-13.87414735 159.02221342 -14.51686283 163.46048494 -15.14086914 167.90454102 C-16.19149029 175.30005535 -17.39518621 182.66502282 -18.6328125 190.03125 C-18.86474399 191.41908378 -19.09652628 192.80694251 -19.32817078 194.19482422 C-19.93470165 197.82645554 -20.54316939 201.45775958 -21.15209961 205.08898926 C-21.87370088 209.3943837 -22.59329378 213.70011467 -23.31213951 218.00597 C-23.90533306 221.55770038 -24.50106248 225.10896826 -25.10220337 228.65936279 C-26.16663987 234.95925233 -27.21571874 241.25919463 -28.17058659 247.57675934 C-28.48027521 249.62166073 -28.7966961 251.66541354 -29.11503601 253.70898438 C-29.50241994 256.21174008 -29.87695029 258.71653863 -30.23518372 261.22363281 C-31.99311341 272.42011421 -36.39104179 281.93783206 -41.8515625 291.78710938 C-43.73287289 295.24882893 -45.42181593 298.79789285 -47.11132812 302.35644531 C-48.20703125 304.28125 -48.20703125 304.28125 -50.20703125 305.28125 C-56.51214876 305.739804 -56.51214876 305.739804 -58.84301758 304.20166016 C-60.85015224 301.37579274 -61.07210113 298.7174207 -61.59375 295.3046875 C-61.70048538 294.62000397 -61.80722076 293.93532043 -61.91719055 293.22988892 C-62.14053673 291.77996709 -62.35785885 290.32910629 -62.56958008 288.87744141 C-62.89065441 286.68274998 -63.23172434 284.49191204 -63.57617188 282.30078125 C-65.50162978 269.65038392 -65.08730497 259.26188915 -62.8984375 246.65625 C-62.65307461 245.20960963 -62.4084489 243.76284407 -62.164505 242.31596375 C-61.64412754 239.23667669 -61.11954483 236.15814969 -60.5914917 233.08016968 C-59.34146798 225.79151203 -58.11339864 218.49914379 -56.88477325 211.20685387 C-56.6067904 209.5573767 -56.32854519 207.90794372 -56.0500412 206.25855446 C-52.88038997 187.48302964 -49.90654712 168.67927349 -46.97485352 149.86523438 C-46.80092575 148.75130814 -46.62699799 147.6373819 -46.44779968 146.48970032 C-46.13016536 144.45313694 -45.81386882 142.41636414 -45.49934387 140.37931824 C-44.63108642 134.80120594 -43.66512764 129.2525652 -42.5954895 123.70930481 C-42.08317382 120.50708025 -42.06327298 117.51581108 -42.20703125 114.28125 C-54.62391156 117.22112901 -66.8399354 120.73989082 -79.07373047 124.35791016 C-82.13803692 125.26091834 -85.20503121 126.15400051 -88.2734375 127.04296875 C-98.08600748 129.8865789 -107.87922645 132.77911821 -117.64453125 135.78125 C-126.65739667 138.54826299 -135.71199543 141.13416592 -144.79614258 143.65625 C-159.87050504 147.84467663 -174.87786106 152.2451939 -189.83203125 156.84375 C-198.13872847 159.39553125 -206.48034705 161.75924132 -214.87207031 164.01416016 C-224.68190628 166.65768586 -234.42443444 169.52164588 -244.17041016 172.39013672 C-247.19523497 173.27778832 -250.22216975 174.15781537 -253.25 175.03515625 C-263.07006691 177.88239458 -272.8714442 180.77646798 -282.64453125 183.78125 C-290.63367546 186.23586576 -298.65221685 188.55186475 -306.70703125 190.78125 C-315.15462475 193.1207158 -323.56975308 195.54598714 -331.95703125 198.09375 C-333.3946582 198.52880859 -333.3946582 198.52880859 -334.86132812 198.97265625 C-341.15087069 200.81791242 -341.15087069 200.81791242 -347.20703125 203.28125 C-350.45165641 209.77050032 -346.89539422 218.06476473 -345.08203125 224.53125 C-344.60552124 226.26507935 -344.60552124 226.26507935 -344.11938477 228.03393555 C-342.03802728 235.52921067 -339.80482198 242.96334681 -337.40991211 250.36376953 C-334.68872439 258.78886353 -332.31260878 267.30777853 -329.90527344 275.82666016 C-328.88242849 279.42235353 -327.8291954 283.00876261 -326.76953125 286.59375 C-324.47452297 294.3644043 -322.20138659 302.14130166 -319.93603516 309.9206543 C-318.43482979 315.07522482 -316.92974415 320.22857194 -315.4140625 325.37890625 C-312.60269263 334.94746899 -309.84975512 344.52259816 -307.26953125 354.15625 C-304.45042236 364.66444724 -301.2446569 375.04143947 -298.015625 385.4296875 C-296.34885474 390.79822839 -294.76888801 396.18146784 -293.25 401.59375 C-291.56288978 407.55866405 -289.81280728 413.50535767 -288.05883789 419.45092773 C-286.35706232 425.24381322 -284.71954547 431.04805914 -283.15234375 436.87890625 C-282.80719727 438.1426709 -282.46205078 439.40643555 -282.10644531 440.70849609 C-281.43585857 443.16997775 -280.77842276 445.63508913 -280.13574219 448.10400391 C-278.04251764 456.45689251 -278.04251764 456.45689251 -272.20703125 462.28125 C-266.01519814 461.60120656 -260.01762938 459.71805438 -254.01953125 458.09375 C-252.86420898 457.78203857 -251.70888672 457.47032715 -250.51855469 457.14916992 C-242.05998642 454.84244738 -233.70072298 452.30443856 -225.359375 449.609375 C-220.65622112 448.09188386 -215.9135699 446.73557039 -211.15625 445.3984375 C-206.0376197 443.95835835 -200.9359095 442.46009022 -195.83203125 440.96875 C-194.29289062 440.51943115 -194.29289062 440.51943115 -192.72265625 440.06103516 C-188.51976175 438.83388892 -184.31712015 437.60588045 -180.11474609 436.37695312 C-169.79881569 433.36023248 -159.48163295 430.3497268 -149.14453125 427.40625 C-129.30524532 421.75459455 -109.50297353 415.97768847 -89.73046875 410.09692383 C-81.99640282 407.80058459 -74.24760796 405.56143667 -66.48706055 403.35644531 C-60.59953213 401.68293748 -54.72340218 399.97441407 -48.85327148 398.2409668 C-39.68682129 395.53441754 -30.50904071 392.86671043 -21.33300781 390.19287109 C-18.24634185 389.29271406 -15.1601993 388.390785 -12.07421875 387.48828125 C-2.77149513 384.76874711 6.53393498 382.06066597 15.85546875 379.40625 C28.69676726 375.74661779 41.52568455 372.04502901 54.33984375 368.29150391 C56.4613203 367.67084002 58.58355112 367.05273884 60.70703125 366.43896484 C63.0098803 365.77214215 65.30832592 365.09241664 67.60546875 364.40625 C68.78753906 364.05820312 69.96960938 363.71015625 71.1875 363.3515625 C74.08841289 362.44352084 74.08841289 362.44352084 75.79296875 359.28125 C76.26542538 353.21050588 75.22689027 348.59735578 73.23046875 342.90625 C70.58270693 334.97576338 68.3032528 326.98937154 66.16796875 318.90625 C63.8837625 310.30042161 61.4864876 301.76874104 58.79296875 293.28125 C55.00280125 281.11515825 51.36761171 268.92547394 48.06079102 256.61889648 C45.41664148 246.8068612 42.55279674 237.06177963 39.68408203 227.31347656 C38.21222008 222.30511342 36.75320139 217.2930135 35.29296875 212.28125 C34.70969793 210.28123177 34.12636457 208.28123177 33.54296875 206.28125 C30.04296875 194.28125 26.54296875 182.28125 23.04296875 170.28125 C22.6097229 168.79588745 22.6097229 168.79588745 22.16772461 167.28051758 C21.58513006 165.28298086 21.00261038 163.28542231 20.42016602 161.2878418 C18.9511463 156.2499707 17.48077733 151.2125004 16.0078125 146.17578125 C15.71366455 145.16870117 15.4195166 144.16162109 15.11645508 143.12402344 C14.53061306 141.12031136 13.94323622 139.11704734 13.35424805 137.11425781 C11.90512838 132.17082732 10.49626352 127.22135655 9.16015625 122.24609375 C8.8979126 121.28405029 8.63566895 120.32200684 8.36547852 119.33081055 C7.87288433 117.516298 7.3909163 115.69885391 6.92163086 113.87817383 C5.2593297 107.6978524 5.2593297 107.6978524 0.79296875 103.28125 C-1.87538091 102.94626699 -1.87538091 102.94626699 -4.20703125 103.28125 Z " fill="#bbbbbb" transform="translate(402.20703125,12.71875)"/>
<path d="M0 0 C3.375 0.3125 3.375 0.3125 7 1 C9.47030353 4.7054553 10.39993646 8.50588508 11.5625 12.75 C12.09682835 14.65908608 12.63203975 16.56792515 13.16796875 18.4765625 C13.45978027 19.51973633 13.7515918 20.56291016 14.05224609 21.63769531 C15.79208473 27.81004402 17.58497977 33.96706423 19.375 40.125 C19.56592224 40.78268372 19.75684448 41.44036743 19.95355225 42.11798096 C22.99159171 52.58248092 26.07793021 63.03213347 29.18432617 73.4765625 C31.48066541 81.21062843 33.71981333 88.95942329 35.92480469 96.7199707 C37.59831252 102.60749912 39.30683593 108.48362907 41.0402832 114.35375977 C43.74683246 123.52020996 46.41453957 132.69799054 49.08837891 141.87402344 C49.98853594 144.9606894 50.890465 148.04683195 51.79296875 151.1328125 C54.53650289 160.51807048 57.26549507 169.90660802 59.9375 179.3125 C62.61016114 188.71721587 65.38638412 198.09012811 68.17285156 207.46166992 C70.17738979 214.207861 72.16004552 220.95749433 74.05859375 227.734375 C74.79181302 230.27782441 75.55688466 232.80249175 76.34765625 235.328125 C76.58009033 236.08270996 76.81252441 236.83729492 77.05200195 237.61474609 C77.50093455 239.06847748 77.95842576 240.51960801 78.42651367 241.96728516 C79.91015734 246.81000087 80.52918485 250.93040917 80 256 C76.99619473 259.98442099 73.4493701 261.10850354 68.796875 262.33203125 C68.09079605 262.52932831 67.3847171 262.72662537 66.65724182 262.92990112 C64.35800308 263.56962457 62.05420298 264.19092085 59.75 264.8125 C58.15218971 265.25417728 56.55477925 265.69730347 54.95776367 266.1418457 C51.77386968 267.0271797 48.58851171 267.90688979 45.40185547 268.78222656 C39.68760287 270.35671965 33.99828167 272.01344723 28.3125 273.6875 C26.41412266 274.24369495 24.51568583 274.79968692 22.6171875 275.35546875 C21.69647461 275.62536621 20.77576172 275.89526367 19.82714844 276.17333984 C16.88859135 277.03257597 13.94842349 277.88610225 11.0078125 278.73828125 C1.17108474 281.59162882 -8.64741765 284.49025089 -18.4375 287.5 C-27.45102504 290.2672155 -36.50602777 292.85435853 -45.59130859 295.375 C-55.75594589 298.19772277 -65.88079071 301.14965317 -76.00292969 304.12060547 C-81.06323971 305.60539178 -86.12517093 307.08461404 -91.1875 308.5625 C-92.68422241 308.99949219 -92.68422241 308.99949219 -94.21118164 309.4453125 C-101.4912473 311.56764882 -108.78057836 313.6560706 -116.07373047 315.73291016 C-125.71106268 318.4809919 -135.32881792 321.29556759 -144.94726562 324.10888672 C-147.979478 324.99400949 -151.01295433 325.87465837 -154.046875 326.75390625 C-163.86529507 329.60228327 -173.66554714 332.49582441 -183.4375 335.5 C-192.44814343 338.26633083 -201.50032858 340.85232201 -210.58251953 343.37280273 C-217.84004255 345.38865612 -225.08169666 347.45281227 -232.3125 349.5625 C-233.29581299 349.84802734 -234.27912598 350.13355469 -235.29223633 350.42773438 C-240.12453664 351.83787469 -244.94012771 353.28606314 -249.73828125 354.80859375 C-250.64731201 355.093396 -251.55634277 355.37819824 -252.49291992 355.67163086 C-254.19327862 356.20676833 -255.89037429 356.75243897 -257.58325195 357.31079102 C-262.08104719 358.7199633 -265.32846006 359.37860429 -270 358 C-273.53948428 354.83974618 -274.03218884 350.46682073 -275 346 C-266.75476331 342.39512984 -258.23805904 339.84177686 -249.63635254 337.25628662 C-156.80288866 311.5229273 -156.80288866 311.5229273 -75.91015625 262.09765625 C-75.27980469 261.73542969 -74.64945313 261.37320312 -74 261 C-71.41285764 261.70558428 -69.34820964 262.81437852 -66.9921875 264.0703125 C-57.98419795 268.55768737 -46.57074552 268.45834502 -36.8671875 266.3046875 C-34.4062049 265.3866407 -32.25898669 264.33636026 -30 263 C-29.21367187 262.55269531 -28.42734375 262.10539062 -27.6171875 261.64453125 C-17.49185488 255.41227207 -12.71878002 247.15634006 -9 236 C-7.73694 223.5948322 -8.4905368 212.6026254 -15.984375 202.26171875 C-21.45142981 195.71870103 -27.85409096 190.71530301 -36 188 C-35.48214924 184.28033192 -34.27416099 181.33252176 -32.5657196 178.00117493 C-28.7103727 170.45409818 -26.65165969 163.35406779 -25.47946167 154.91390991 C-25.17239755 152.70379927 -24.83745508 150.49929232 -24.49633789 148.29418945 C-24.10737472 145.77676647 -23.72046946 143.25915568 -23.34141541 140.74021912 C-21.67411641 129.68423902 -19.79344579 118.66365808 -17.93783665 107.63804626 C-16.7247474 100.42938911 -15.52351001 93.21877768 -14.32421875 86.0078125 C-14.11748032 84.7647937 -13.91074188 83.5217749 -13.69773865 82.24108887 C-11.6260728 69.77090595 -9.60321551 57.29341264 -7.609375 44.81054688 C-6.46502868 37.65471461 -5.31383234 30.49999426 -4.15856934 23.34591675 C-3.75962557 20.87218531 -3.36269382 18.39813654 -2.96582031 15.92407227 C-2.72212047 14.41420665 -2.47831092 12.90435874 -2.234375 11.39453125 C-2.12420044 10.70445984 -2.01402588 10.01438843 -1.9005127 9.30340576 C-1.39096089 6.16300938 -0.84395406 3.06932254 0 0 Z " fill="#d7defe" transform="translate(398,116)"/>
<path d="M0 0 C4.83735148 2.61364524 8.06265925 6.09032151 9.79296875 11.28125 C10.3322381 20.60277917 9.42023944 29.51203951 7.82421875 38.6796875 C7.62445435 39.88066071 7.42468994 41.08163391 7.21887207 42.31900024 C6.58749558 46.09995417 5.94053781 49.87803946 5.29296875 53.65625 C4.858335 56.2420129 4.4247321 58.8279493 3.9921875 61.4140625 C2.93767103 67.70517677 1.87039985 73.99402185 0.79296875 80.28125 C1.41034409 80.06971786 2.02771942 79.85818573 2.6638031 79.64024353 C3.47398392 79.36571854 4.28416473 79.09119354 5.11889648 78.80834961 C6.32339699 78.39823891 6.32339699 78.39823891 7.55223083 77.97984314 C13.23015362 76.20964151 18.76306897 76.50194973 24.16796875 78.96875 C35.54096653 85.59158003 37.36577312 102.31184581 40.7734375 114.14453125 C41.25893881 115.81984968 41.74478314 117.49506873 42.23094177 119.17019653 C43.2721855 122.76053921 44.31111761 126.35153944 45.34820557 129.94308472 C47.00820617 135.69173197 48.67338933 141.43887019 50.33935547 147.18579102 C52.37415292 154.20622426 54.40778091 161.22699407 56.43984985 168.24821758 C61.56934935 185.97115742 66.71991997 203.68795505 71.87246704 221.40420532 C73.41580665 226.71095077 74.95833036 232.01793317 76.50073242 237.32495117 C81.53314009 254.63934856 86.56962203 271.95255107 91.61341476 289.26363564 C92.43257774 292.07516753 93.25165567 294.88672419 94.07070923 297.69828796 C96.40196147 305.70057988 98.73347497 313.70279473 101.06687355 321.7044611 C102.00639589 324.9267824 102.94531529 328.14927917 103.88408279 331.37182045 C104.31857753 332.86280554 104.75334263 334.35371187 105.18839645 335.84453392 C105.7812378 337.87613543 106.37315207 339.90800482 106.96484375 341.93994141 C107.29581055 343.07509186 107.62677734 344.21024231 107.96777344 345.37979126 C110.06977027 352.77059557 111.08601075 360.17394013 108.73046875 367.65625 C102.85795178 375.61256331 96.00024043 377.93909964 86.66015625 380.5390625 C85.3361912 380.92191878 84.01270085 381.30641984 82.68965149 381.69242859 C79.10622377 382.73309158 75.51675586 383.75128395 71.92583847 384.76575089 C68.09678168 385.85195505 64.27393049 386.95958149 60.45043945 388.06518555 C54.06152075 389.91006191 47.66941885 391.74347347 41.27490234 393.56884766 C32.4157894 396.09855405 23.56565476 398.65843347 14.71875 401.23046875 C13.3259419 401.63525237 11.9331298 402.04002227 10.54031372 402.44477844 C8.45186452 403.05169176 6.36341739 403.65861213 4.27499962 404.26563358 C-2.85054635 406.33628525 -9.97861827 408.39818685 -17.10668564 410.46013832 C-35.94077258 415.90875279 -54.76668295 421.3853283 -73.59083557 426.86815262 C-76.08630194 427.5949939 -78.58178426 428.32178044 -81.07727051 429.04855347 C-89.45215194 431.48764402 -97.82693831 433.92706077 -106.20166016 436.36669922 C-115.23978339 438.99958301 -124.27805768 441.63194774 -133.31643867 444.26394653 C-135.754765 444.97404393 -138.1930521 445.68427586 -140.6313324 446.39453125 C-147.92639568 448.51934851 -155.22176935 450.64307195 -162.51872158 452.7613945 C-166.58948968 453.94315525 -170.66003018 455.12569853 -174.73046875 456.30859375 C-175.54369158 456.54489502 -176.35691441 456.78119629 -177.19478035 457.0246582 C-189.08818582 460.48226068 -200.96918934 463.98039924 -212.84431458 467.50024414 C-219.79401408 469.55976739 -226.7469296 471.60833538 -233.70061779 473.65434647 C-239.42181841 475.33871438 -245.13865687 477.03694344 -250.85261917 478.74569416 C-254.39751697 479.80203469 -257.94632993 480.84470558 -261.49633408 481.88374138 C-263.13771318 482.36714244 -264.77746446 482.85611329 -266.41534805 483.35122871 C-286.46359657 489.40418314 -286.46359657 489.40418314 -296.58203125 486.21875 C-305.45126957 479.67240743 -307.48088323 471.30506771 -310.33203125 461.15625 C-310.83712467 459.41170895 -311.34395081 457.66766886 -311.85229492 455.92407227 C-313.00510197 451.95732163 -314.14610991 447.9873967 -315.27978516 444.01513672 C-317.18051743 437.36090937 -319.10889709 430.7148263 -321.04210281 424.06997871 C-324.3940761 412.54835614 -327.73469553 401.02348793 -331.06696701 389.49615288 C-336.16274224 371.86918957 -341.2868691 354.25057924 -346.42123699 336.63482285 C-348.09886169 330.87846533 -349.7744645 325.12152207 -351.44897461 319.36425781 C-352.40996376 316.06053823 -353.37099154 312.75682988 -354.33203125 309.453125 C-354.57028185 308.63403908 -354.80853245 307.81495316 -355.05400276 306.97104645 C-358.07412826 296.58950487 -361.10411745 286.21091379 -364.14583397 275.83567715 C-366.22079919 268.75720369 -368.28985508 261.67701986 -370.35483742 254.59562778 C-371.58039806 250.3940538 -372.80909491 246.19345599 -374.04559326 241.99508667 C-375.19500796 238.09235818 -376.33617179 234.18731097 -377.47119141 230.28037262 C-377.8866343 228.85584064 -378.30508204 227.43218073 -378.72686768 226.00951385 C-384.94851086 205.00719458 -384.94851086 205.00719458 -381.31640625 197.08984375 C-377.70331316 191.19948424 -372.99944587 189.02738207 -366.53515625 186.92724609 C-365.87930542 186.71384268 -365.22345459 186.50043926 -364.54772949 186.28056908 C-356.6489521 183.73671053 -348.67945472 181.4326107 -340.70703125 179.1328125 C-339.01843545 178.64324571 -337.32992047 178.15340005 -335.64147949 177.66329956 C-332.04329789 176.61944793 -328.44459755 175.57741244 -324.84545898 174.53686523 C-319.09596905 172.87459071 -313.34769117 171.20815199 -307.59960938 169.54101562 C-301.64499105 167.81415396 -295.69031194 166.08750421 -289.73522949 164.36224365 C-277.1504249 160.71616632 -264.56788856 157.06240635 -251.98828125 153.3984375 C-251.18547855 153.16461239 -250.38267586 152.93078728 -249.55554581 152.68987656 C-245.53846085 151.51977805 -241.52143957 150.34946112 -237.50445557 149.17901611 C-229.4134012 146.82152626 -221.32196702 144.46534073 -213.23046875 142.109375 C-212.0166836 141.75595221 -212.0166836 141.75595221 -210.77837753 141.39538956 C-198.58677533 137.84566616 -186.3939765 134.3000722 -174.20042038 130.75706673 C-171.43329229 129.95303741 -168.66618361 129.14894133 -165.89907837 128.34483337 C-157.66698662 125.95270069 -149.43478182 123.56095976 -141.20212746 121.17076397 C-124.07892523 116.19897455 -106.95883975 111.21739528 -89.85435867 106.18152237 C-87.50790695 105.49084479 -85.16126319 104.800824 -82.81454468 104.11105347 C-81.3032833 103.6668104 -79.79202231 103.22256604 -78.28076172 102.77832031 C-77.54883291 102.56318598 -76.81690411 102.34805164 -76.06279564 102.12639809 C-71.80906717 100.8755375 -67.55684282 99.61971891 -63.30571747 98.36004162 C-61.3488108 97.78102666 -59.39121851 97.20440487 -57.43328857 96.62886047 C-55.07937646 95.9368021 -52.7266269 95.2407717 -50.37530518 94.53996277 C-48.83480499 94.08886894 -48.83480499 94.08886894 -47.26318359 93.62866211 C-46.37674164 93.36653427 -45.49029968 93.10440643 -44.57699585 92.83433533 C-42.20703125 92.28125 -42.20703125 92.28125 -38.20703125 92.28125 C-38.16226151 91.66896042 -38.11749176 91.05667084 -38.07136536 90.42582703 C-37.39399392 82.09168203 -36.15526655 73.86587567 -34.84375 65.61328125 C-34.72830149 64.88314001 -34.61285297 64.15299877 -34.49390602 63.40073204 C-33.88405071 59.54584626 -33.26970789 55.69170736 -32.65161133 51.83813477 C-32.01812409 47.88276444 -31.40052215 43.92508218 -30.78641033 39.96666431 C-30.30709425 36.89642886 -29.81592645 33.82817224 -29.32160378 30.76032066 C-29.0887676 29.30232092 -28.86031793 27.84361302 -28.63654137 26.38419533 C-25.83485806 8.17737456 -25.83485806 8.17737456 -19.08203125 2.34375 C-13.4891383 -1.66854277 -6.61688918 -2.15488073 0 0 Z M4.98046875 84.21875 C3.26923828 84.75822266 3.26923828 84.75822266 1.5234375 85.30859375 C-1.08747063 86.0187482 -1.08747063 86.0187482 -2.20703125 87.28125 C-2.67746106 90.06357816 -3.09470633 92.83880557 -3.484375 95.6328125 C-4.68896514 103.9579626 -6.00528985 112.25903584 -7.3984375 120.5546875 C-7.59086029 121.70253723 -7.78328308 122.85038696 -7.98153687 124.03302002 C-8.57621837 127.57431968 -9.17258638 131.11533121 -9.76953125 134.65625 C-10.56446515 139.3720681 -11.35710492 144.0882639 -12.1484375 148.8046875 C-12.41413292 150.373965 -12.41413292 150.373965 -12.68519592 151.97494507 C-13.58766444 157.35475755 -14.42536637 162.73709139 -15.18408203 168.13916016 C-16.21481996 175.45742772 -17.40832293 182.74321127 -18.6328125 190.03125 C-18.86474399 191.41908378 -19.09652628 192.80694251 -19.32817078 194.19482422 C-19.93470165 197.82645554 -20.54316939 201.45775958 -21.15209961 205.08898926 C-21.87370088 209.3943837 -22.59329378 213.70011467 -23.31213951 218.00597 C-23.90533306 221.55770038 -24.50106248 225.10896826 -25.10220337 228.65936279 C-26.16663987 234.95925233 -27.21571874 241.25919463 -28.17058659 247.57675934 C-28.48027521 249.62166073 -28.7966961 251.66541354 -29.11503601 253.70898438 C-29.50241994 256.21174008 -29.87695029 258.71653863 -30.23518372 261.22363281 C-31.99311341 272.42011421 -36.39104179 281.93783206 -41.8515625 291.78710938 C-43.73287289 295.24882893 -45.42181593 298.79789285 -47.11132812 302.35644531 C-48.20703125 304.28125 -48.20703125 304.28125 -50.20703125 305.28125 C-56.51214876 305.739804 -56.51214876 305.739804 -58.84301758 304.20166016 C-60.85015224 301.37579274 -61.07210113 298.7174207 -61.59375 295.3046875 C-61.70048538 294.62000397 -61.80722076 293.93532043 -61.91719055 293.22988892 C-62.14053673 291.77996709 -62.35785885 290.32910629 -62.56958008 288.87744141 C-62.89065441 286.68274998 -63.23172434 284.49191204 -63.57617188 282.30078125 C-65.501631 269.65037588 -65.08729289 259.26189872 -62.8984375 246.65625 C-62.6531199 245.20983859 -62.40853997 243.76330191 -62.16464233 242.31665039 C-61.64431615 239.23759125 -61.11978158 236.15929281 -60.59176636 233.08154297 C-59.34061275 225.78648084 -58.11110494 218.48775973 -56.88121986 211.18908691 C-56.60299738 209.53840799 -56.32451183 207.88777339 -56.04576683 206.23718262 C-52.90187166 187.61600986 -49.95577431 168.96644734 -47.06274414 150.3046875 C-44.2498142 132.21655553 -44.2498142 132.21655553 -42.53515625 123.34375 C-41.43957798 117.66642714 -40.57749091 112.03488906 -40.01953125 106.28125 C-39.89674805 105.10175781 -39.89674805 105.10175781 -39.77148438 103.8984375 C-39.57745674 102.0266415 -39.39127508 100.15403434 -39.20703125 98.28125 C-44.16975604 98.88993972 -48.84523239 99.90328287 -53.64257812 101.32470703 C-54.35730034 101.53226875 -55.07202255 101.73983047 -55.80840302 101.95368195 C-58.18220718 102.6442865 -60.5539634 103.3416695 -62.92578125 104.0390625 C-64.62560917 104.53503971 -66.32556356 105.03058367 -68.02563477 105.52572632 C-71.67294131 106.58898536 -75.31935259 107.65524292 -78.96508789 108.72387695 C-84.78330978 110.42930466 -90.60342799 112.12819553 -96.42382812 113.82617188 C-104.45514993 116.1697322 -112.4856586 118.51605782 -120.515625 120.86425781 C-131.1605976 123.97684232 -141.80808193 127.0807383 -152.45703125 130.1796875 C-153.258757 130.41300529 -154.06048275 130.64632309 -154.88650322 130.88671112 C-158.09896789 131.82156911 -161.31144901 132.75637053 -164.52396297 133.69105911 C-170.15365684 135.32905613 -175.78307913 136.96798386 -181.41235352 138.60742188 C-200.34349316 144.12067284 -219.2760231 149.62911752 -238.21072388 155.13012695 C-247.27804778 157.76451689 -256.3447972 160.40084809 -265.41015625 163.04199219 C-268.96607997 164.07770024 -272.52207673 165.11315718 -276.078125 166.1484375 C-277.39017221 166.53045822 -277.39017221 166.53045822 -278.72872543 166.92019653 C-290.21175396 170.26238778 -301.70293203 173.57468696 -313.20289612 176.85812378 C-319.13633578 178.55238725 -325.06701225 180.25622516 -330.99698925 181.96256447 C-335.72934633 183.32333918 -340.46514525 184.67111276 -345.20403957 186.00893211 C-348.09649773 186.82886732 -350.98525805 187.66125987 -353.87312126 188.49721909 C-355.82747983 189.05885599 -357.78619011 189.60528121 -359.74501038 190.15115356 C-369.54907806 192.93772232 -369.54907806 192.93772232 -376.32818604 200.19189453 C-379.61736437 208.01154539 -375.85642417 217.02518686 -373.53515625 224.609375 C-373.14099272 225.92968047 -372.74799378 227.25033409 -372.35606384 228.57130432 C-371.51275981 231.40565879 -370.66209222 234.23765361 -369.80551147 237.06802368 C-368.42963773 241.61539133 -367.0711961 246.16784971 -365.71606445 250.72143555 C-365.24942642 252.28893158 -364.78276674 253.85642116 -364.31608582 255.42390442 C-364.08303427 256.20673105 -363.84998272 256.98955769 -363.609869 257.79610634 C-362.89338374 260.20055362 -362.17528537 262.60451378 -361.45674133 265.00834656 C-356.88436978 280.31131095 -352.43147682 295.64782149 -348.00140762 310.99247742 C-346.35807097 316.68243077 -344.71082508 322.37125473 -343.06405449 328.060215 C-342.64339539 329.51347503 -342.22278822 330.9667501 -341.80223274 332.42004013 C-338.3106643 344.48520868 -334.80505997 356.54625932 -331.29296875 368.60546875 C-331.04385113 369.46094677 -330.79473351 370.31642479 -330.53806686 371.19782639 C-328.04506023 379.7585742 -325.55072787 388.31893275 -323.0526638 396.87820625 C-321.85871406 400.96940647 -320.66545071 405.06080656 -319.47265625 409.15234375 C-319.2425951 409.94147785 -319.01253395 410.73061195 -318.77550125 411.54365921 C-315.81381492 421.70741391 -312.8872604 431.88011082 -310.00390625 442.06640625 C-309.39582796 444.20640181 -308.7876772 446.34637677 -308.17944336 448.48632812 C-307.111213 452.24617976 -306.05630104 456.00938316 -305.01000977 459.77539062 C-304.55144172 461.39337031 -304.09241133 463.01121907 -303.6328125 464.62890625 C-303.44221252 465.33112808 -303.25161255 466.03334991 -303.05523682 466.7568512 C-301.39654389 472.52116254 -298.98767233 476.77759754 -294.39453125 480.65625 C-286.74001674 484.55855151 -278.94717657 481.02264458 -271.20703125 478.71484375 C-269.88892487 478.3292674 -268.57056814 477.94454601 -267.25198364 477.56060791 C-264.40465071 476.72958676 -261.55914334 475.89266732 -258.71490479 475.05111694 C-254.12105301 473.69193378 -249.52345832 472.34572676 -244.92529297 471.0012207 C-239.20827813 469.3285539 -233.4922635 467.6525404 -227.77745628 465.97234631 C-217.1367519 462.84393488 -206.48995116 459.73686137 -195.83984375 456.640625 C-195.04102468 456.40835897 -194.24220562 456.17609295 -193.41917992 455.93678856 C-190.17661342 454.99398875 -186.93402979 454.05124792 -183.69140148 453.1086607 C-174.55365665 450.45227056 -165.4174506 447.79060162 -156.28125 445.12890625 C-152.92497348 444.15118372 -149.56868742 443.17349393 -146.21240234 442.19580078 C-144.96879141 441.83352717 -144.96879141 441.83352717 -143.70005703 441.4639349 C-128.99632491 437.18066454 -114.29211691 432.89902825 -99.58782959 428.61766434 C-97.14456398 427.90625953 -94.70130917 427.19481764 -92.25805664 426.48336792 C-71.46623053 420.42909568 -50.67269406 414.38073804 -29.87724304 408.33892822 C-20.7556224 405.68873913 -11.63419919 403.03787594 -2.51342773 400.38476562 C-1.62975682 400.1277248 -0.74608591 399.87068398 0.16436291 399.60585403 C3.69611417 398.57853111 7.2278627 397.55119885 10.75957298 396.52373505 C20.92268454 393.56713911 31.08708839 390.61509051 41.25409889 387.67192841 C47.44826485 385.87868996 53.6413484 384.08175058 59.83357811 382.28183746 C64.06445927 381.05228202 68.29667355 379.82747534 72.53001976 378.60643578 C75.69194238 377.69279654 78.85166132 376.77163166 82.01171875 375.8515625 C83.12922516 375.53089813 84.24673157 375.21023376 85.39810181 374.87985229 C96.06428937 371.86324275 96.06428937 371.86324275 103.79296875 364.28125 C105.72392001 358.48839623 104.7731375 353.33945851 103.07836914 347.59936523 C102.89362785 346.96400345 102.70888657 346.32864166 102.51854706 345.67402649 C101.90143467 343.55991985 101.27102578 341.4500225 100.640625 339.33984375 C100.19315607 337.81641639 99.74655976 336.29273249 99.30076599 334.76881409 C98.33743007 331.48219461 97.36826671 328.19737161 96.39453125 324.91381836 C94.82914873 319.63474594 93.27679527 314.35189745 91.7265625 309.06835938 C90.09142429 303.49763251 88.45540405 297.9271723 86.81497192 292.35800171 C83.02080065 279.47638842 79.25272164 266.5874254 75.5078125 253.69140625 C75.25116695 252.8076362 74.99452141 251.92386616 74.73009872 251.0133152 C73.4348451 246.55244388 72.14009888 242.09142547 70.84558105 237.63034058 C68.51143037 229.58736587 66.17303553 221.54562483 63.83489609 213.50380898 C63.05597937 210.82475583 62.27713771 208.14568088 61.49832153 205.46659851 C60.19448628 200.98148639 58.89059068 196.49639181 57.58666229 192.01130676 C57.05370109 190.17808745 56.5207473 188.34486598 55.9878006 186.51164246 C52.78553801 175.49657254 49.58264214 164.48168733 46.37793922 153.46732712 C45.13288679 149.18813835 43.88808922 144.90887594 42.64404297 140.62939453 C42.17155459 139.00423029 41.69906118 137.3790675 41.2265625 135.75390625 C40.99847082 134.96923603 40.77037914 134.18456581 40.5353756 133.37611771 C39.44289967 129.6195675 38.34805448 125.86374047 37.24746704 122.10955811 C36.83896545 120.7159434 36.43046723 119.3223277 36.02197266 117.92871094 C35.82750864 117.26557262 35.63304462 116.60243431 35.43268776 115.9192009 C34.25917338 111.90722307 33.11802482 107.88743477 31.99755859 103.86035156 C31.73234909 102.92615387 31.46713959 101.99195618 31.19389343 101.02944946 C30.73030376 99.39500029 30.27754926 97.75740495 29.83992004 96.11581421 C28.18543641 90.36109935 25.6893657 85.91511494 20.35546875 82.90625 C14.83124155 81.55887751 10.32255595 82.50317685 4.98046875 84.21875 Z " fill="#041143" transform="translate(402.20703125,12.71875)"/>
<path d="M0 0 C3.58758109 2.21361386 5.3791804 4.16112732 7 8 C7.56404181 16.03465538 6.06230521 23.73018549 4.69140625 31.625 C4.4461361 33.07099969 4.20160187 34.51712437 3.95774841 35.96336365 C3.43744951 39.04200756 2.91294909 42.11989228 2.38500977 45.19723511 C1.13202291 52.5036879 -0.09815028 59.8139961 -1.32936478 67.1241436 C-1.60782987 68.77698505 -1.88655574 70.42978259 -2.16553879 72.0825367 C-4.88325338 88.18459673 -7.47489362 104.30405326 -10 120.4375 C-10.17691376 121.56728271 -10.35382751 122.69706543 -10.53610229 123.86108398 C-11.20937198 128.16299651 -11.88203432 132.46500316 -12.55360413 136.7671814 C-13.66802114 143.90036102 -14.79663763 151.03115897 -15.9375 158.16015625 C-16.18213737 159.6888887 -16.18213737 159.6888887 -16.43171692 161.24850464 C-17.3453631 166.94679265 -18.26657859 172.64379631 -19.1940918 178.33984375 C-21.12639898 190.22632139 -23.03521242 202.11244982 -24.79983521 214.0249939 C-25.48864544 218.6736684 -26.19574361 223.31951203 -26.90707588 227.96478844 C-27.4181608 231.31018583 -27.9186765 234.65658306 -28.39868164 238.0065918 C-30.59239037 253.2596565 -32.87592996 266.73640555 -41 280 C-41.86279166 281.67784411 -42.70971455 283.36407431 -43.53125 285.0625 C-45.35416667 288.70833333 -47.17708333 292.35416667 -49 296 C-50.65 295.67 -52.3 295.34 -54 295 C-55.7209593 289.46300052 -56.76892145 283.98048498 -57.625 278.25 C-57.7590625 277.41984375 -57.893125 276.5896875 -58.03125 275.734375 C-59.59703323 265.38103286 -59.04919797 255.65427928 -57.34765625 245.35546875 C-57.08478569 243.70157387 -57.08478569 243.70157387 -56.81660461 242.01426697 C-56.24035383 238.40393077 -55.65165902 234.7957503 -55.0625 231.1875 C-54.65323498 228.64250754 -54.24455296 226.09742127 -53.83642578 223.55224609 C-50.53558206 203.03455637 -47.12341772 182.53493526 -43.68313599 162.04022217 C-41.51744323 149.13764937 -39.40077035 136.22780879 -37.3125 123.3125 C-35.18455003 110.15578785 -32.99081563 97.01330404 -30.70483398 83.88314819 C-29.04307504 74.32337431 -27.46999335 64.75184044 -25.953125 55.16796875 C-25.776035 54.05072922 -25.59894501 52.93348969 -25.41648865 51.78239441 C-24.53847705 46.23610221 -23.6665158 40.68894471 -22.80297852 35.14038086 C-18.18756125 5.68968467 -18.18756125 5.68968467 -14.5 1.75 C-9.68405094 -1.62116434 -5.52618964 -1.26257408 0 0 Z " fill="#f94dc6" transform="translate(400,18)"/>
<path d="M0 0 C0.10957031 0.83144531 0.21914063 1.66289062 0.33203125 2.51953125 C0.49058594 3.60621094 0.64914062 4.69289063 0.8125 5.8125 C0.96332031 6.89144531 1.11414063 7.97039062 1.26953125 9.08203125 C2.02452725 12.09797782 2.4706963 13.25171645 5 15 C9.51696573 15.61242538 9.51696573 15.61242538 13.51953125 13.86328125 C15.51058614 11.35738895 16.79467219 8.6910108 18.1875 5.8125 C18.71730469 4.72582031 19.24710937 3.63914062 19.79296875 2.51953125 C20.19128906 1.68808594 20.58960938 0.85664063 21 0 C31.95453296 3.33297492 39.53159354 10.04987309 45.74609375 19.56640625 C49.13142157 26.13668423 50.55875128 31.84658512 50.5 39.25 C50.49500488 40.08120361 50.49000977 40.91240723 50.48486328 41.76879883 C50.16065921 53.29145861 45.3271293 62.43910976 37.4140625 70.64453125 C27.38618609 79.94267957 16.79484216 81.48378012 3.71875 81.2734375 C-7.80348414 80.81599031 -16.14772193 74.3116353 -23.8125 66.125 C-27.17829612 62.09695233 -29.21408013 57.90903602 -31 53 C-31.4125 51.9275 -31.825 50.855 -32.25 49.75 C-34.51804707 38.40976464 -33.06784136 28.14025802 -27.33984375 18.0859375 C-21.32466501 9.11875112 -11.57585354 -0.66147734 0 0 Z " fill="#fa0a0a" transform="translate(340,303)"/>
<path d="M0 0 C7.19273565 0.06807005 12.40255836 5.34140991 17.8359375 9.515625 C21.76828134 12.37665722 24.0112037 13.96099423 28.9609375 14.15625 C34.85834682 12.79576292 40.40419119 10.1153744 45.9296875 7.70703125 C47.20972656 7.16755859 47.20972656 7.16755859 48.515625 6.6171875 C49.66466309 6.11614502 49.66466309 6.11614502 50.83691406 5.60498047 C53.30163745 4.91563684 54.61314825 5.16575397 57 6 C58.04810567 9.92685537 57.87843683 12.45783394 56.75 16.34375 C56.4715625 17.34277344 56.193125 18.34179688 55.90625 19.37109375 C55.30208333 21.45703125 54.69791667 23.54296875 54.09375 25.62890625 C53.8153125 26.62792969 53.536875 27.62695312 53.25 28.65625 C52.98703125 29.56181641 52.7240625 30.46738281 52.453125 31.40039062 C51.80528234 35.11710865 52.14626329 37.72469148 54.25927734 40.88110352 C54.7795752 41.45787842 55.29987305 42.03465332 55.8359375 42.62890625 C56.40570313 43.27150391 56.97546875 43.91410156 57.5625 44.57617188 C58.160625 45.23166016 58.75875 45.88714844 59.375 46.5625 C60.55053778 47.87535496 61.72504913 49.18912986 62.8984375 50.50390625 C63.71622681 51.42018799 63.71622681 51.42018799 64.55053711 52.35498047 C68.95601085 57.35482586 68.95601085 57.35482586 69.1875 60.75 C69.0946875 61.86375 69.0946875 61.86375 69 63 C66.65667135 64.17166433 65.10507833 64.18453343 62.4921875 64.28125 C61.13480469 64.33732422 61.13480469 64.33732422 59.75 64.39453125 C58.80125 64.42933594 57.8525 64.46414063 56.875 64.5 C54.10525142 64.60415489 51.33919172 64.71676477 48.57202148 64.87597656 C46 65 46 65 43.75805664 64.92871094 C41.39942625 64.86843589 41.39942625 64.86843589 38 66 C35.35646196 68.77914316 33.55926592 71.91860011 31.6875 75.25 C31.17638672 76.10980469 30.66527344 76.96960938 30.13867188 77.85546875 C28.13597629 81.23583139 26.19578585 84.64151248 24.3125 88.08984375 C23.6628125 89.03537109 23.6628125 89.03537109 23 90 C20.3125 90.3125 20.3125 90.3125 18 90 C17.484375 88.88625 16.96875 87.7725 16.4375 86.625 C16.05722656 85.81804687 15.67695313 85.01109375 15.28515625 84.1796875 C14.24678601 81.61058909 13.5046149 79.23642743 12.80859375 76.5703125 C10.64742319 68.08069787 10.64742319 68.08069787 5.08056641 61.74462891 C0.58844528 59.86931633 -4.08397204 59.03897141 -8.88134766 58.33398438 C-11.66646011 57.89493922 -14.30912042 57.14529777 -17 56.3125 C-17.7425 56.10238281 -18.485 55.89226562 -19.25 55.67578125 C-21 55 -21 55 -23 53 C-22.80027665 50.36600146 -22.21517904 49.22600812 -20.3894043 47.30834961 C-19.70789307 46.76186768 -19.02638184 46.21538574 -18.32421875 45.65234375 C-17.57849609 45.04712891 -16.83277344 44.44191406 -16.06445312 43.81835938 C-15.28005859 43.19767578 -14.49566406 42.57699219 -13.6875 41.9375 C-12.91470703 41.31294922 -12.14191406 40.68839844 -11.34570312 40.04492188 C-5.28092065 35.15867839 -5.28092065 35.15867839 -2.76757812 33.73901367 C-0.67633759 32.03527318 -0.67633759 32.03527318 -0.56176758 28.82958984 C-0.58907959 27.55293457 -0.6163916 26.2762793 -0.64453125 24.9609375 C-0.65256271 24.27947662 -0.66059418 23.59801575 -0.66886902 22.89590454 C-0.69785414 20.72147561 -0.7541182 18.54882091 -0.8125 16.375 C-0.85495373 14.19426939 -0.89180104 12.01357754 -0.92399597 9.83267212 C-0.9556619 7.85879522 -1.00251274 5.88517957 -1.05004883 3.91162109 C-1 1 -1 1 0 0 Z " fill="#ffcf02" transform="translate(144,328)"/>
<path d="M0 0 C2 2 2 2 2.23774719 4.69819641 C2.13867032 13.8122554 1.59552079 22.84063682 0.79296875 31.91796875 C0.66549558 33.39291711 0.5381638 34.86787769 0.41096497 36.34284973 C0.14550656 39.40125528 -0.12503158 42.45916283 -0.39868164 45.5168457 C-0.74834328 49.43408294 -1.0796395 53.35265019 -1.40669727 57.27183056 C-1.66260187 60.30350377 -1.93070345 63.33400699 -2.20227623 66.36431313 C-2.32985245 67.81002126 -2.45301463 69.2561261 -2.57163429 70.70259666 C-2.73781354 72.71323256 -2.92278696 74.72228855 -3.10864258 76.73120117 C-3.2085701 77.87256027 -3.30849762 79.01391937 -3.41145325 80.18986511 C-4.03907444 83.18656876 -4.475746 84.30295868 -7 86 C-13.06936742 85.98542769 -16.40342903 83.73519109 -20.9375 80.125 C-22.26002521 79.11366692 -23.58430149 78.10462035 -24.91015625 77.09765625 C-25.58578613 76.58090332 -26.26141602 76.06415039 -26.95751953 75.53173828 C-30.19316696 73.10519609 -33.52915466 70.83344136 -36.875 68.5625 C-45.31760017 62.80303886 -53.66785499 56.91782834 -62 51 C-62.69061523 50.50983398 -63.38123047 50.01966797 -64.09277344 49.51464844 C-66.06291679 48.11542548 -68.0317991 46.71445364 -70 45.3125 C-70.89066162 44.6791272 -70.89066162 44.6791272 -71.79931641 44.03295898 C-75.88239724 41.11760276 -75.88239724 41.11760276 -77 40 C-76.99926758 36.68408203 -76.99926758 36.68408203 -76 33 C-73.5746491 31.24743957 -71.70978629 30.20044543 -69.01171875 29.0546875 C-68.28932007 28.7221698 -67.56692139 28.3896521 -66.82263184 28.04705811 C-64.45491715 26.96418258 -62.07218689 25.91989665 -59.6875 24.875 C-58.05066254 24.13459448 -56.41500684 23.39157109 -54.78051758 22.64599609 C-51.46357476 21.13693017 -48.1408468 19.64194143 -44.8125 18.15820312 C-40.39601624 16.18518988 -36.00520753 14.16149922 -31.625 12.109375 C-30.98472366 11.80955719 -30.34444733 11.50973938 -29.68476868 11.20083618 C-27.85231213 10.34229594 -26.01990531 9.48364959 -24.1875 8.625 C-4.33411215 -0.61915888 -4.33411215 -0.61915888 0 0 Z " fill="#01d5fe" transform="translate(285,242)"/>
<path d="M0 0 C7.425 0.99 7.425 0.99 15 2 C14.40499604 10.0147033 13.49891029 17.87661303 12.25 25.8125 C10.60052956 36.57161551 9.16808544 47.34498608 7.81790161 58.14489746 C6.11864007 71.73572734 4.28562867 85.26369849 1.89453125 98.75390625 C1.21768607 102.59499348 0.65330647 106.44042963 0.125 110.3046875 C-1.11859418 119.14409498 -2.69879571 127.91961811 -4.29418945 136.70141602 C-4.80703086 139.53231026 -5.31091396 142.36470407 -5.81445312 145.19726562 C-10.19483989 169.54877606 -16.62209976 192.73765157 -25 216 C-28.3 215.67 -31.6 215.34 -35 215 C-34.45609825 207.25462587 -33.57967892 199.66752485 -32.25 192.01953125 C-32.07625854 190.99368423 -31.90251709 189.96783722 -31.72351074 188.91090393 C-31.34886086 186.70000492 -30.97213291 184.48945721 -30.59350586 182.27923584 C-29.56118094 176.24930749 -28.5457705 170.21653952 -27.53125 164.18359375 C-27.32052856 162.93149109 -27.10980713 161.67938843 -26.8927002 160.38934326 C-24.85817574 148.24926239 -22.94843165 136.09072684 -21.05361938 123.92819214 C-17.63901316 102.01286125 -14.01224174 80.14495494 -10.18164062 58.29858398 C-7.58434698 43.4749236 -5.10866273 28.63607544 -2.76293945 13.77050781 C-2.6491243 13.05449905 -2.53530914 12.3384903 -2.41804504 11.6007843 C-2.11697183 9.70482909 -1.81909437 7.80836715 -1.52148438 5.91186523 C-1 3 -1 3 0 0 Z " fill="#fb8cdb" transform="translate(378,52)"/>
<path d="M0 0 C2.26174961 3.39262442 2.81979976 6.38528001 3.5 10.3125 C3.69227173 11.38818237 3.69227173 11.38818237 3.88842773 12.4855957 C5.08847488 19.30394266 6.14898773 26.12860343 7 33 C7.09168457 33.69496582 7.18336914 34.38993164 7.27783203 35.10595703 C10.75232238 62.0964565 14.60353651 103.79292697 2 129 C3.0725 129.20625 4.145 129.4125 5.25 129.625 C9 131 9 131 11.375 133.375 C13.35324166 137.78800062 13.6155015 141.59609151 13.82421875 146.390625 C13.83011664 148.98197097 13.83011664 148.98197097 15 151 C15.95261719 150.95359375 16.90523438 150.9071875 17.88671875 150.859375 C19.76810547 150.80523437 19.76810547 150.80523437 21.6875 150.75 C22.92886719 150.70359375 24.17023438 150.6571875 25.44921875 150.609375 C29.5696687 151.06266982 31.10787892 152.10251321 34 155 C36.16536174 159.33072349 35.67727249 165.29739913 36 170 C40.29 169.67 44.58 169.34 49 169 C49.33 170.32 49.66 171.64 50 173 C44.49569115 176.27916272 40.44195781 177.85892771 34 177 C31.03141843 174.79259319 30.17134209 173.51402627 29 170 C28.69513559 166.87513984 28.49158784 163.74971889 28.28125 160.6171875 C28.28503015 158.07586139 28.28503015 158.07586139 27 157 C23.46842758 157.05025523 19.94632361 157.19824672 16.41796875 157.35546875 C13 157 13 157 10.67578125 155.30078125 C7.60555386 151.08548071 6.74755155 147.34112972 6.375 142.1875 C6.30023438 141.21167969 6.22546875 140.23585938 6.1484375 139.23046875 C6.09945312 138.49441406 6.05046875 137.75835937 6 137 C3.03 136.01 3.03 136.01 0 135 C-0.13535156 135.59683594 -0.27070313 136.19367188 -0.41015625 136.80859375 C-1.95528193 143.03535774 -4.05142124 148.89601012 -6.5 154.8125 C-6.94484741 155.88745728 -6.94484741 155.88745728 -7.39868164 156.98413086 C-9.11824818 161.07160951 -10.9686757 165.05501957 -13 169 C-15.9221804 167.64581884 -18.30185504 166.07203863 -20.8125 164.0625 C-24.39733145 161.31166311 -27.77903764 159.58286089 -32 158 C-31.48214924 154.28033192 -30.27416099 151.33252176 -28.5657196 148.00117493 C-24.7103727 140.45409818 -22.65165969 133.35406779 -21.47946167 124.91390991 C-21.17239755 122.70379927 -20.83745508 120.49929232 -20.49633789 118.29418945 C-20.10737472 115.77676647 -19.72046946 113.25915568 -19.34141541 110.74021912 C-17.67373263 99.68169416 -15.79262439 88.65856831 -13.93670368 77.63039875 C-10.69763608 58.38284476 -7.48069564 39.13118254 -4.44506836 19.8503418 C-1.54296946 1.54296946 -1.54296946 1.54296946 0 0 Z " fill="#fbfbfc" transform="translate(394,146)"/>
<path d="M0 0 C4.00733209 2.38734678 5.77744843 4.5173109 7 9 C9.48498007 26.02942226 9.46553119 46.60340642 4 63 C1.65185547 62.74707031 1.65185547 62.74707031 -1 62 C-2.37451172 60.29199219 -2.37451172 60.29199219 -3.4296875 58.046875 C-3.82937744 57.21003174 -4.22906738 56.37318848 -4.64086914 55.51098633 C-5.04813232 54.59986084 -5.45539551 53.68873535 -5.875 52.75 C-6.30482178 51.81502686 -6.73464355 50.88005371 -7.17749023 49.91674805 C-10.13411421 43.32891183 -12.73664557 36.6474109 -15.0625 29.8125 C-15.34915527 28.97750977 -15.63581055 28.14251953 -15.93115234 27.28222656 C-18.08432221 20.61683089 -20.43660096 12.85961344 -17.8125 6.0625 C-13.51426561 -1.20003397 -7.71426513 -1.7489283 0 0 Z " fill="#fc0000" transform="translate(263,42)"/>
<path d="M0 0 C3.64286664 2.05901158 4.76789785 3.46515592 6.4375 7.3125 C7.27214751 12.78407809 6.03644658 16.44533014 3 21 C4.08861328 21.38285156 4.08861328 21.38285156 5.19921875 21.7734375 C8.1552984 23.06801074 10.30564666 24.60455104 12.8125 26.625 C13.60269531 27.25664062 14.39289063 27.88828125 15.20703125 28.5390625 C15.79871094 29.02117187 16.39039063 29.50328125 17 30 C14.79357971 32.2751756 13.01898208 33.90218833 10 35 C6.554359 34.51602108 4.45842043 33.059096 1.75 30.9375 C1.04359375 30.38964844 0.3371875 29.84179688 -0.390625 29.27734375 C-0.92171875 28.85582031 -1.4528125 28.43429688 -2 28 C-1.71125 28.55429688 -1.4225 29.10859375 -1.125 29.6796875 C-0.568125 30.76636719 -0.568125 30.76636719 0 31.875 C0.37125 32.59429687 0.7425 33.31359375 1.125 34.0546875 C2 36 2 36 2 38 C-0.97 39.32 -3.94 40.64 -7 42 C-11.03060846 34.23370564 -14.73698988 26.33113068 -18.375 18.375 C-18.82794434 17.39063965 -19.28088867 16.4062793 -19.74755859 15.39208984 C-20.16859863 14.46605957 -20.58963867 13.5400293 -21.0234375 12.5859375 C-21.40419434 11.7511084 -21.78495117 10.9162793 -22.17724609 10.05615234 C-23 8 -23 8 -23 6 C-21.06374902 5.01836578 -19.12595461 4.03977546 -17.1875 3.0625 C-16.10855469 2.51722656 -15.02960937 1.97195312 -13.91796875 1.41015625 C-8.98889877 -0.97189765 -5.29973916 -1.31458374 0 0 Z M-10 9 C-10.77242269 10.83700789 -10.77242269 10.83700789 -11 13 C-9.64555699 14.77190909 -9.64555699 14.77190909 -8 16 C-6.68 15.34 -5.36 14.68 -4 14 C-4.33 12.35 -4.66 10.7 -5 9 C-6.65 9 -8.3 9 -10 9 Z " fill="#ffffff" transform="translate(65,128)"/>
<path d="M0 0 C1.85564602 4.80387577 3.70694675 9.60939427 5.55419922 14.41650391 C6.1835333 16.05238264 6.81406291 17.68780196 7.44580078 19.32275391 C8.3524162 21.66970655 9.25475215 24.01826518 10.15625 26.3671875 C10.44060913 27.10057343 10.72496826 27.83395935 11.01794434 28.58956909 C13 33.77225659 13 33.77225659 13 36 C10.09399739 37.25664978 8.20395416 38 5 38 C3.02 33.38 1.04 28.76 -1 24 C-1.33 24.99 -1.66 25.98 -2 27 C-2.99 27 -3.98 27 -5 27 C-4.79503906 27.59167969 -4.59007813 28.18335937 -4.37890625 28.79296875 C-3.0002429 32.83660816 -1.68249153 36.76855249 -1 41 C-3.29449772 42.44468375 -4.71222424 43.00238234 -7.44775391 42.97973633 C-10 42 -10 42 -11.68505859 39.10424805 C-12.19414623 37.83171875 -12.68060358 36.54998598 -13.1484375 35.26171875 C-13.41008698 34.584543 -13.67173645 33.90736725 -13.9413147 33.20967102 C-14.49013651 31.77662713 -15.0291708 30.33980204 -15.55908203 28.8996582 C-16.37132327 26.69746855 -17.21595699 24.50994417 -18.06640625 22.32226562 C-18.5957177 20.92782866 -19.12312592 19.53266746 -19.6484375 18.13671875 C-19.90039886 17.48241379 -20.15236023 16.82810883 -20.41195679 16.15397644 C-21.64110365 12.77052346 -22.42145462 10.41417308 -21 7 C-18.69 6.34 -16.38 5.68 -14 5 C-12.68 6.32 -11.36 7.64 -10 9 C-9.67 6.69 -9.34 4.38 -9 2 C-5.62902617 0.50178941 -3.79557881 0 0 0 Z " fill="#ffffff" transform="translate(60,64)"/>
<path d="M0 0 C11.27403215 8.49212811 17.87664945 26.62683249 22.0625 39.625 C18.95536891 40.60120815 17.53457181 40.83891887 14.51953125 39.47265625 C8.10797406 35.14461839 1.97590195 30.61473047 -3.9375 25.625 C-4.76894531 24.92890625 -5.60039062 24.2328125 -6.45703125 23.515625 C-15.61384326 15.64579626 -15.61384326 15.64579626 -16.3125 9.125 C-15.91085498 5.3763131 -15.2779622 3.55057776 -12.9375 0.625 C-8.75686263 -2.4023581 -4.55120332 -2.13035049 0 0 Z " fill="#fc0000" transform="translate(218.9375,71.375)"/>
<path d="M0 0 C0.04296875 2.265625 0.04296875 2.265625 -1 5 C-3.69281536 6.74768832 -6.66714647 7.70084209 -9.6875 8.75 C-10.60289551 9.08290039 -11.51829102 9.41580078 -12.46142578 9.75878906 C-65.51845662 28.61846169 -65.51845662 28.61846169 -85 28 C-85.33 26.68 -85.66 25.36 -86 24 C-78.937775 20.25025781 -71.81056424 17.27664602 -64.25 14.6875 C-62.58553833 14.11491455 -62.58553833 14.11491455 -60.88745117 13.53076172 C-52.11003876 10.57753388 -43.25746926 8.00952031 -34.3125 5.625 C-32.50797363 5.14293091 -32.50797363 5.14293091 -30.66699219 4.65112305 C-24.44759842 3.03303812 -18.20418512 1.54435542 -11.91796875 0.2109375 C-10.71293701 -0.0463916 -9.50790527 -0.3037207 -8.26635742 -0.56884766 C-5.13762197 -0.98183419 -3.01487275 -0.83942259 0 0 Z " fill="#d9e0ff" transform="translate(161,204)"/>
<path d="M0 0 C2.9375 2 2.9375 2 5 5 C6.1302645 11.60015625 4.3543939 16.58688897 1.125 22.25 C0.72587402 22.97727295 0.32674805 23.7045459 -0.08447266 24.45385742 C-4.07020758 31.51118915 -8.86603052 37.74471228 -14 44 C-14.76183594 45.16595703 -14.76183594 45.16595703 -15.5390625 46.35546875 C-16.26222656 47.16951172 -16.26222656 47.16951172 -17 48 C-18.32 48 -19.64 48 -21 48 C-21.55630136 34.03065484 -21.7639387 12.90431601 -12.05859375 1.7734375 C-8.09618626 -1.64009761 -4.88322712 -1.17870999 0 0 Z " fill="#fc0000" transform="translate(311,52)"/>
<path d="M0 0 C2.71705898 1.40071985 3.89407009 2.63082885 6 5 C6.875 8.3125 6.875 8.3125 7 11 C4.1875 12.5625 4.1875 12.5625 1 14 C-2 13 -2 13 -4 10 C-5.32 10.33 -6.64 10.66 -8 11 C-6.93128004 13.29954913 -5.84621788 15.58860271 -4.75 17.875 C-4.44964844 18.52597656 -4.14929687 19.17695313 -3.83984375 19.84765625 C-2.45645223 22.70274088 -1.46688223 24.69799576 1.234375 26.4453125 C1.81703125 26.62835938 2.3996875 26.81140625 3 27 C3.98120464 23.94736336 3.98120464 22.05263664 3 19 C7.25706941 16.0437018 7.25706941 16.0437018 10.125 15.875 C12.61185311 17.36711187 13.58392204 19.21408952 14.578125 21.8984375 C15.38219929 25.90391869 14.74509666 29.33117475 13 33 C10.09250306 36.21194689 6.98534344 37.70439697 2.875 38.9375 C-0.3837622 39.00834266 -2.09478143 38.44353048 -5 37 C-7.44995625 34.30997266 -9.15667602 31.12833348 -11 28 C-11.639375 26.96617187 -12.27875 25.93234375 -12.9375 24.8671875 C-16.35434803 19.0392572 -19.14862 13.99377831 -18.6328125 7.09765625 C-17.48216624 3.28347697 -15.35396695 2.0386858 -12 0 C-7.79656314 -1.40114562 -4.27923485 -1.0570512 0 0 Z " fill="#ffffff" transform="translate(36,142)"/>
<path d="M0 0 C1.1875 3.5625 1.1875 3.5625 2 7 C0.39967863 7.84069415 -1.20541171 8.67231505 -2.8125 9.5 C-3.70582031 9.9640625 -4.59914063 10.428125 -5.51953125 10.90625 C-8 12 -8 12 -11 12 C-10.67 13.65 -10.34 15.3 -10 17 C-6.535 16.505 -6.535 16.505 -3 16 C0 21.75 0 21.75 0 24 C-1.98 24.66 -3.96 25.32 -6 26 C-5.67 27.65 -5.34 29.3 -5 31 C-0.38 29.68 4.24 28.36 9 27 C11 30 11 30 11 36 C4.07 38.31 -2.86 40.62 -10 43 C-13.10701247 35.75030424 -16.00573294 28.45604539 -18.75 21.0625 C-19.05558838 20.24612061 -19.36117676 19.42974121 -19.67602539 18.58862305 C-21.08924213 14.7491267 -22.37616982 11.06310449 -23 7 C-19.00694901 5.3162635 -15.0060953 3.65245302 -11 2 C-10.18402344 1.65839844 -9.36804688 1.31679687 -8.52734375 0.96484375 C-3.34878178 -1.11626059 -3.34878178 -1.11626059 0 0 Z " fill="#ffffff" transform="translate(93,116)"/>
<path d="M0 0 C0.66 2.64 1.32 5.28 2 8 C0.56328432 8.64757625 -0.87440416 9.29299453 -2.3125 9.9375 C-3.11300781 10.29714844 -3.91351563 10.65679687 -4.73828125 11.02734375 C-7 12 -7 12 -10 13 C-10 14.65 -10 16.3 -10 18 C-7.69 17.34 -5.38 16.68 -3 16 C-2.34 18.97 -1.68 21.94 -1 25 C-2.65 25.66 -4.3 26.32 -6 27 C-5.67 28.32 -5.34 29.64 -5 31 C-4.32453125 30.855625 -3.6490625 30.71125 -2.953125 30.5625 C-2.06109375 30.376875 -1.1690625 30.19125 -0.25 30 C0.63171875 29.814375 1.5134375 29.62875 2.421875 29.4375 C5 29 5 29 9 29 C10.35439668 31.70879335 10.06501451 34.00933268 10 37 C6.8980736 38.0070436 3.79311902 39.00440805 0.6875 40 C-0.63411133 40.42925781 -0.63411133 40.42925781 -1.98242188 40.8671875 C-2.82998047 41.13789062 -3.67753906 41.40859375 -4.55078125 41.6875 C-5.33106689 41.93886719 -6.11135254 42.19023438 -6.9152832 42.44921875 C-9 43 -9 43 -12 43 C-13.40944187 38.67783876 -14.81516938 34.35449354 -16.2175293 30.0300293 C-16.69470989 28.56030011 -17.17288831 27.09089449 -17.65209961 25.62182617 C-18.34233537 23.50524654 -19.02892644 21.38751372 -19.71484375 19.26953125 C-19.92842026 18.61725052 -20.14199677 17.96496979 -20.36204529 17.29292297 C-21.46152621 13.88532053 -22.38394375 10.52832217 -23 7 C-5.97969543 0 -5.97969543 0 0 0 Z " fill="#ffffff" transform="translate(87,55)"/>
<path d="M0 0 C4.83137555 7.73020087 5.50048534 20.57176913 4.5625 29.5 C3.20023655 32.98133993 2.00732224 34.19286083 -1.0625 36.3125 C-5.18007374 37.76127595 -9.1286246 38.4949585 -13.4375 37.5 C-19.3987634 32.92432755 -19.74997695 25.54802958 -20.70849609 18.51025391 C-22.26890053 5.40348967 -22.26890053 5.40348967 -18.4375 0.5 C-12.44396199 -3.09612281 -6.14463384 -3.78131313 0 0 Z M-11.4375 6.5 C-14.64935899 11.31778849 -14.09744746 17.18319511 -12.984375 22.77734375 C-12.52843581 24.36987421 -11.99244772 25.93920954 -11.4375 27.5 C-8.53676819 28.17801034 -8.53676819 28.17801034 -5.4375 28.5 C-3.2845939 26.74662023 -3.2845939 26.74662023 -3.171875 24.65234375 C-3.0877882 14.8025432 -3.0877882 14.8025432 -7.4375 6.5 C-8.7575 6.5 -10.0775 6.5 -11.4375 6.5 Z " fill="#ffffff" transform="translate(150.4375,45.5)"/>
<path d="M0 0 C0.59355614 2.64860427 0.74209269 5.29197322 1 8 C-3.29 8.99 -7.58 9.98 -12 11 C-12.33 12.65 -12.66 14.3 -13 16 C-9.535 15.505 -9.535 15.505 -6 15 C-4.5216774 17.95664519 -4.93967217 20.74229737 -5 24 C-6.98 24.33 -8.96 24.66 -11 25 C-10.67 26.98 -10.34 28.96 -10 31 C-3.07 30.01 -3.07 30.01 4 29 C4.87890625 35.15234375 4.87890625 35.15234375 5 37 C1.74056235 40.25943765 -7.41582556 39.92867973 -11.86328125 40.12890625 C-13.90930281 40.12564306 -15.95515036 40.06931694 -18 40 C-19.51600607 34.23917694 -20.6965791 28.508163 -21.625 22.625 C-21.75688721 21.79444092 -21.88877441 20.96388184 -22.0246582 20.1081543 C-22.89751896 14.34230809 -23.28713758 8.83846409 -23 3 C-20.8131784 2.51774669 -18.62550745 2.03934417 -16.4375 1.5625 C-15.21933594 1.29566406 -14.00117188 1.02882813 -12.74609375 0.75390625 C-2.58289963 -1.29144981 -2.58289963 -1.29144981 0 0 Z " fill="#ffffff" transform="translate(168,99)"/>
<path d="M0 0 C3.58389714 2.21134079 5.39095214 4.15813242 7 8 C7.90410951 14.71434265 6.37126239 21.44977339 5 28 C1.38883686 28.90208822 -1.23006088 28.99618059 -4.86328125 28.22265625 C-5.74951172 28.03896484 -6.63574219 27.85527344 -7.54882812 27.66601562 C-8.46083984 27.46685547 -9.37285156 27.26769531 -10.3125 27.0625 C-11.24384766 26.86720703 -12.17519531 26.67191406 -13.13476562 26.47070312 C-15.42516419 25.98913215 -17.71327271 25.49866228 -20 25 C-18.99135899 7.3487824 -18.99135899 7.3487824 -14.5625 2.125 C-9.89161688 -1.74841527 -5.64811387 -1.29043023 0 0 Z " fill="#fd8cdc" transform="translate(400,18)"/>
<path d="M0 0 C8.25 1.32 16.5 2.64 25 4 C25 9.64472613 24.26840715 12.24099477 21.71875 16.9296875 C21.38580933 17.56488312 21.05286865 18.20007874 20.70983887 18.85452271 C19.65130617 20.86762616 18.57603864 22.87120902 17.5 24.875 C16.77621701 26.24419664 16.05354851 27.61398304 15.33203125 28.984375 C13.56751251 32.3298798 11.78793684 35.66695603 10 39 C8.35 38.67 6.7 38.34 5 38 C3.2790407 32.46300052 2.23107855 26.98048498 1.375 21.25 C1.17390625 20.00476563 1.17390625 20.00476563 0.96875 18.734375 C-0.00517237 12.29456175 0 6.6707386 0 0 Z " fill="#f94dc7" transform="translate(341,275)"/>
<path d="M0 0 C1.36279297 2.08203125 1.36279297 2.08203125 2.7421875 4.8125 C3.50595703 6.30330078 3.50595703 6.30330078 4.28515625 7.82421875 C5.07212891 9.39623047 5.07212891 9.39623047 5.875 11 C6.91294262 13.04223622 7.9519917 15.0839105 8.9921875 17.125 C9.49331055 18.11628906 9.99443359 19.10757813 10.51074219 20.12890625 C12.27765771 23.53528766 14.17051076 26.85633198 16.12158203 30.16015625 C17 32 17 32 17 35 C14.36 35.33 11.72 35.66 9 36 C8.66226563 35.4946875 8.32453125 34.989375 7.9765625 34.46875 C7.53054687 33.8190625 7.08453125 33.169375 6.625 32.5 C6.18414062 31.8503125 5.74328125 31.200625 5.2890625 30.53125 C4.86367187 30.0259375 4.43828125 29.520625 4 29 C3.34 29 2.68 29 2 29 C2 32.3 2 35.6 2 39 C-0.64 39.66 -3.28 40.32 -6 41 C-7.10709198 37.67872407 -7.3069636 34.84997596 -7.53515625 31.35546875 C-7.62216797 30.03869141 -7.70917969 28.72191406 -7.79882812 27.36523438 C-7.84209229 26.67905029 -7.88535645 25.99286621 -7.92993164 25.28588867 C-8.06137902 23.20524374 -8.19911419 21.12508946 -8.33789062 19.04492188 C-8.70871498 13.35668397 -9.05603086 7.70372419 -9 2 C-3.375 -1.125 -3.375 -1.125 0 0 Z M-1 14 C-0.67 16.64 -0.34 19.28 0 22 C0.66 22 1.32 22 2 22 C1.55296014 17.52116304 1.55296014 17.52116304 -1 14 Z " fill="#ffffff" transform="translate(112,110)"/>
<path d="M0 0 C2.02755186 2.93995019 2 4.27704003 2 8 C0.02 8.99 0.02 8.99 -2 10 C-0.84406327 13.30744902 0.67180522 16.2620163 2.41796875 19.28515625 C2.86720703 20.06310547 3.31644531 20.84105469 3.77929688 21.64257812 C4.72277047 23.26388712 5.67337861 24.88106411 6.63085938 26.49414062 C7.07623047 27.27080078 7.52160156 28.04746094 7.98046875 28.84765625 C8.39192139 29.54898682 8.80337402 30.25031738 9.22729492 30.97290039 C10.17429339 33.45723792 10.01872709 34.56731951 9 37 C6.09303401 39.14197494 4.64478912 40 1 40 C0.71801758 39.45061768 0.43603516 38.90123535 0.14550781 38.33520508 C-1.14723655 35.82462352 -2.44852687 33.31856695 -3.75 30.8125 C-4.1934375 29.94818359 -4.636875 29.08386719 -5.09375 28.19335938 C-7.39887724 23.769549 -9.66823401 19.75991349 -13 16 C-14.65 16.66 -16.3 17.32 -18 18 C-22.04415218 12.60779709 -22.04415218 12.60779709 -21.85083008 9.9465332 C-20.75940289 7.44956076 -19.71318155 6.87606145 -17.32421875 5.60546875 C-16.57849609 5.20779297 -15.83277344 4.81011719 -15.06445312 4.40039062 C-14.28005859 4.00013672 -13.49566406 3.59988281 -12.6875 3.1875 C-11.91470703 2.76791016 -11.14191406 2.34832031 -10.34570312 1.91601562 C-3.79666863 -1.5020961 -3.79666863 -1.5020961 0 0 Z " fill="#ffffff" transform="translate(22,81)"/>
<path d="M0 0 C2 5.625 2 5.625 2 9 C-0.31 9.33 -2.62 9.66 -5 10 C-4.74605469 10.84820312 -4.49210937 11.69640625 -4.23046875 12.5703125 C-1.75761702 20.99838395 0.27199975 29.38618059 2 38 C-0.97 38.99 -3.94 39.98 -7 41 C-8.89265075 38.16102388 -9.51993993 36.49511953 -10.2890625 33.25390625 C-10.61777344 31.87428711 -10.61777344 31.87428711 -10.953125 30.46679688 C-11.17484375 29.50837891 -11.3965625 28.54996094 -11.625 27.5625 C-11.96917969 26.13067383 -11.96917969 26.13067383 -12.3203125 24.66992188 C-13.27232911 20.62101792 -14 17.18706719 -14 13 C-16.31 13 -18.62 13 -21 13 C-22.49821059 9.62902617 -23 7.79557881 -23 4 C-20.29352533 3.32488828 -17.58522815 2.65972659 -14.875 2 C-14.11445312 1.80921875 -13.35390625 1.6184375 -12.5703125 1.421875 C-8.28411166 0.3872748 -4.44599099 -0.2272711 0 0 Z " fill="#ffffff" transform="translate(140,103)"/>
<path d="M0 0 C0.33 2.97 0.66 5.94 1 9 C-0.98 9.33 -2.96 9.66 -5 10 C-3.02 19.24 -1.04 28.48 1 38 C-3.2099725 39.683989 -4.78952566 40.24059853 -9 40 C-10.61134055 33.65748931 -12.18466443 27.30666028 -13.6875 20.9375 C-13.93886719 19.87402344 -14.19023438 18.81054688 -14.44921875 17.71484375 C-15 15 -15 15 -15 12 C-17.31 12.33 -19.62 12.66 -22 13 C-22.66 10.03 -23.32 7.06 -24 4 C-15.86598282 1.69873891 -8.51472723 -0.17029454 0 0 Z " fill="#ffffff" transform="translate(127,46)"/>
<path d="M0 0 C2.82424288 2.19022918 4.41508603 3.83017207 6 7 C6.31500605 10.08005912 6.51083648 13.16099912 6.71875 16.25 C6.83187492 18.95865993 6.83187492 18.95865993 8 21 C8.95261719 20.95359375 9.90523438 20.9071875 10.88671875 20.859375 C12.14097656 20.82328125 13.39523437 20.7871875 14.6875 20.75 C15.92886719 20.70359375 17.17023438 20.6571875 18.44921875 20.609375 C22.5696687 21.06266982 24.10787892 22.10251321 27 25 C29.16536174 29.33072349 28.67727249 35.29739913 29 40 C35.435 39.505 35.435 39.505 42 39 C42.495 40.98 42.495 40.98 43 43 C37.49569115 46.27916272 33.44195781 47.85892771 27 47 C24.03141843 44.79259319 23.17134209 43.51402627 22 40 C21.69513559 36.87513984 21.49158784 33.74971889 21.28125 30.6171875 C21.28503015 28.07586139 21.28503015 28.07586139 20 27 C16.46842758 27.05025523 12.94632361 27.19824672 9.41796875 27.35546875 C6 27 6 27 3.67578125 25.30078125 C0.6074727 21.0881152 -0.23527966 17.40197977 -0.5625 12.25 C-0.51235954 8.81311556 -0.51235954 8.81311556 -2 6 C-6.54950416 5.73752861 -9.88439805 6.00455663 -14 8 C-14.33 6.68 -14.66 5.36 -15 4 C-10.6251019 -0.66655798 -6.07394438 -1.1868627 0 0 Z " fill="#fa9511" transform="translate(401,276)"/>
<path d="M0 0 C2.89094238 0.30974383 4.04691751 1.04170446 6.25 3 C8.62172248 7.06580996 8.96059544 10.39749489 8 15 C4.95408202 19.21053368 1.99328395 20.80161185 -3 22 C-5.33177975 22.34403308 -7.66487041 22.67949202 -10 23 C-10.33 23.33 -10.66 23.66 -11 24 C-10.95844193 27.09796521 -10.87308139 30.18417832 -10.69726562 33.27734375 C-10.60378346 36.80196777 -10.90728088 38.84141833 -12.69921875 41.90625 C-15.25486748 44.23193373 -16.61961373 44.77592144 -20 45.25 C-20.845625 45.37890625 -21.69125 45.5078125 -22.5625 45.640625 C-23.366875 45.75921875 -24.17125 45.8778125 -25 46 C-26.33747753 46.31629536 -27.67265104 46.64358222 -29 47 C-28.39174965 51.34464536 -27.73832608 55.67551867 -27 60 C-28.485 60.495 -28.485 60.495 -30 61 C-33.35407832 58.28479374 -34.6551394 55.03458181 -36 51 C-36 46.95455472 -35.69010498 44.88047877 -33.1875 41.6875 C-29.06175032 39.50327958 -25.14681694 38.99476758 -20.546875 38.39453125 C-18.0708079 38.26765024 -18.0708079 38.26765024 -17 37 C-17.17875477 35.27554224 -17.36211482 33.55139065 -17.57299805 31.83056641 C-18.58749691 23.01756 -18.58749691 23.01756 -16.8046875 19.9296875 C-12.44567326 16.41299486 -8.54826358 15.79368762 -3.19140625 15.37890625 C-0.71626355 15.1032176 -0.71626355 15.1032176 2 13 C2.45469585 9.51399852 2.50809355 7.71133096 0.4375 4.8125 C-0.036875 4.214375 -0.51125 3.61625 -1 3 C-0.67 2.01 -0.34 1.02 0 0 Z " fill="#fd900f" transform="translate(274,358)"/>
<path d="M0 0 C4.97333608 -0.29254918 8.0436971 -0.16504232 12 3 C14.34297502 6.01239646 14.42689066 9.2892083 14.30859375 13.046875 C13.68361363 17.00244536 11.21823746 19.05567032 8.17578125 21.4140625 C6.47744823 22.64733475 4.74120478 23.82803524 3 25 C3.2098669 29.30227153 4.17492044 31.44935713 7.0625 34.5 C9.29579212 36.94316777 9.95449315 37.77246577 10.625 41.125 C9.22174395 47.57997784 4.16767531 50.521757 -1 54 C-0.95547581 56.32891902 -0.95547581 56.32891902 0 59 C1.99665598 60.67067133 3.99651034 62.33752986 6 64 C6 65.32 6 66.64 6 68 C2.91885755 68.29087708 1.41606352 68.27590027 -1.203125 66.5390625 C-2.21632813 65.59160156 -2.21632813 65.59160156 -3.25 64.625 C-3.93578125 63.99851563 -4.6215625 63.37203125 -5.328125 62.7265625 C-7.52808092 60.4546454 -7.96020887 59.35812021 -8.3125 56.1875 C-7.91472651 52.1302104 -6.86868823 50.86868823 -4 48 C-1.72213643 46.22453461 0.60067502 44.61493027 3 43 C2.78839542 38.66210608 1.83065579 36.58657375 -1.125 33.5625 C-3.56535894 30.87396896 -3.97321793 30.29995922 -4.3125 26.5 C-2.25258294 21.00688785 1.61150056 17.59233296 6.4375 14.375 C8.20716198 13.05656294 8.20716198 13.05656294 8.75 10.625 C7.81204068 7.34214238 6.87299393 7.06619501 4 5.375 C3.2575 4.99085938 2.515 4.60671875 1.75 4.2109375 C1.1725 3.81132812 0.595 3.41171875 0 3 C0 2.01 0 1.02 0 0 Z " fill="#fd8f0e" transform="translate(321,147)"/>
<path d="M0 0 C2.96714383 0.32968265 4.31954439 1.23965829 6.75 3.0625 C9.32145475 6.41967703 9.64844316 7.97888922 9.34765625 12.07421875 C8.80966757 15.05431334 8.01620735 16.72363687 6 19 C1.18021721 21.55164971 -3.69935754 22.79108154 -9 24 C-10.15233929 27.81964212 -9.48956382 29.31990114 -8 33 C-7.53308706 36.65748468 -7.89972156 38.74428998 -9.25 42.1875 C-12.907713 45.92834284 -16.2859622 46.44154494 -21.3203125 47.45703125 C-23.95767334 47.87021845 -23.95767334 47.87021845 -26 49 C-25.56720308 51.59678151 -25.17333302 53.69185241 -23.875 56 C-22.71572222 58.64977777 -23.24149256 60.26937322 -24 63 C-25.75 62.9375 -25.75 62.9375 -28 62 C-31.4172584 57.44365546 -32.76598971 53.73694113 -32.42578125 48.01171875 C-32 46 -32 46 -30.25 43.625 C-25.39186563 41.19593281 -20.29496173 40.11472878 -15 39 C-15.13019531 37.90300781 -15.26039063 36.80601562 -15.39453125 35.67578125 C-15.53526907 34.2214904 -15.67451354 32.76705449 -15.8125 31.3125 C-15.90208984 30.59126953 -15.99167969 29.87003906 -16.08398438 29.12695312 C-16.44217649 24.99831767 -16.27323515 23.34336551 -13.65625 20.0546875 C-9.86780972 17.12421752 -6.3287657 16.06382739 -1.75 14.9375 C1.77312166 14.39837692 1.77312166 14.39837692 3 13 C2.71884585 8.17052244 2.71884585 8.17052244 0.4375 4.0625 C-0.036875 3.711875 -0.51125 3.36125 -1 3 C-0.67 2.01 -0.34 1.02 0 0 Z " fill="#fd8f0e" transform="translate(152,246)"/>
<path d="M0 0 C0.66 0 1.32 0 2 0 C1.63996924 9.00076901 0.85438257 17.76715827 -0.62988281 26.64794922 C-2.18550777 35.96147218 -3.52811286 45.30448123 -4.88317871 54.64886475 C-8.45552614 79.26429013 -8.45552614 79.26429013 -10.4375 87.125 C-11.93977947 93.40102034 -13.0066398 99.71169092 -13.99780273 106.08447266 C-14.90080328 111.80160657 -14.90080328 111.80160657 -16 114 C-16.66 114 -17.32 114 -18 114 C-18.22048222 106.71575482 -17.58261071 99.8166022 -16.4609375 92.625 C-16.2995932 91.55409119 -16.1382489 90.48318237 -15.97201538 89.37982178 C-15.44777835 85.91858891 -14.91209273 82.45925951 -14.375 79 C-14.00803767 76.60711174 -13.64117633 74.21420799 -13.27441406 71.82128906 C-5.3224025 20.22512951 -5.3224025 20.22512951 0 0 Z " fill="#ffc0ec" transform="translate(380,73)"/>
<path d="M0 0 C2.625 1.625 2.625 1.625 4.625 3.625 C4.69251477 7.13576802 4.49212357 9.59979492 2.16796875 12.34765625 C-3.22231932 17.12727988 -7.90858087 19.14760961 -15.1484375 18.9296875 C-18.8537082 18.42265046 -20.7812885 17.28521693 -23.375 14.625 C-24.39223335 9.77357941 -24.39223335 9.77357941 -23.375 6.625 C-17.53918898 -0.76702729 -8.78433388 -3.57880269 0 0 Z " fill="#ff0000" transform="translate(285.375,197.375)"/>
<path d="M0 0 C1.20785156 -0.01933594 2.41570312 -0.03867188 3.66015625 -0.05859375 C6.9375 0.4375 6.9375 0.4375 9.3671875 2.25 C10.9375 4.4375 10.9375 4.4375 11 7.875 C9.57612772 12.64916 7.54576549 15.02255859 3.14453125 17.41015625 C-1.79762576 19.53104199 -6.72977752 20.3296665 -12.0625 19.4375 C-15.125 17.875 -15.125 17.875 -17.0625 15.4375 C-17.6875 12 -17.6875 12 -17.0625 8.4375 C-12.29330936 2.44194606 -7.6141787 0.00814351 0 0 Z " fill="#ff0000" transform="translate(213.0625,215.5625)"/>
<path d="M0 0 C1.35551476 2.25684456 2.41576678 4.33955041 3.453125 6.73828125 C3.75820984 7.415457 4.06329468 8.09263275 4.37762451 8.79032898 C5.01981859 10.22388405 5.65484234 11.66066958 6.28320312 13.1003418 C7.24485921 15.30073719 8.22969131 17.48954053 9.21875 19.67773438 C9.83994273 21.07229342 10.45977991 22.46745723 11.078125 23.86328125 C11.37180969 24.51758621 11.66549438 25.17189117 11.96807861 25.84602356 C13.42328726 29.2046506 14 31.26391879 14 35 C11.03 35.99 8.06 36.98 5 38 C0.62798651 29.46527153 -3.58903652 20.8820802 -7.5 12.125 C-7.84998047 11.34656738 -8.19996094 10.56813477 -8.56054688 9.76611328 C-11 4.24789361 -11 4.24789361 -11 2 C-3.5096884 -1.60111134 -3.5096884 -1.60111134 0 0 Z " fill="#ffffff" transform="translate(35,75)"/>
<path d="M0 0 C3.33144108 2.01143612 5.30746955 3.29665489 6.7734375 6.90234375 C7.39419019 9.95340177 7.52957215 12.04015047 6 14.8125 C4.22949545 17.00455326 2.53393354 18.73303323 0 20 C-4.18144011 20.39447548 -6.30946048 20.45035186 -9.875 18.125 C-12.78710658 15.21289342 -12.96068305 14.3997223 -13.375 10.1875 C-13.34874901 6.5779882 -13.05911955 6.07312154 -10.625 3.0625 C-6.84598336 0.09327264 -4.82619179 -0.55686828 0 0 Z " fill="#fa8cde" transform="translate(458,230)"/>
<path d="M0 0 C2.475 0.495 2.475 0.495 5 1 C5.62157744 12.63731099 5.62157744 12.63731099 3.375 17.5625 C-0.74566057 21.79159901 -3.88911123 24.22104432 -9.875 24.625 C-15.58141401 24.38400514 -19.12076079 22.07412922 -23 18 C-25.24149231 14.67172353 -26.12115535 13.1146292 -25.6875 9.125 C-25.460625 8.42375 -25.23375 7.7225 -25 7 C-21.69246035 8.06313774 -20.52444302 9.55282011 -18.9375 12.5 C-18.63714844 13.1084375 -18.33679688 13.716875 -18.02734375 14.34375 C-16.95352189 16.33047815 -16.95352189 16.33047815 -14 18 C-11.85719641 18.42737035 -11.85719641 18.42737035 -9.5625 18.4375 C-8.80066406 18.47746094 -8.03882813 18.51742187 -7.25390625 18.55859375 C-3.79855063 17.70224045 -2.81711604 15.98957895 -1 13 C-0.30897518 9.66097809 -0.30897518 9.66097809 -0.25 6.1875 C-0.19328125 5.02605469 -0.1365625 3.86460937 -0.078125 2.66796875 C-0.05234375 1.78753906 -0.0265625 0.90710938 0 0 Z " fill="#101d4b" transform="translate(249,194)"/>
<path d="M0 0 C8.85108502 0.4539018 17.30130122 1.21259614 26 3 C25.67 6.96 25.34 10.92 25 15 C24.67 14.01 24.34 13.02 24 12 C23.18917969 11.95101563 22.37835938 11.90203125 21.54296875 11.8515625 C14.23864773 11.35837202 7.16973078 10.47992439 0 9 C0 6.03 0 3.06 0 0 Z " fill="#be0e96" transform="translate(342,267)"/>
<path d="M0 0 C1.134375 0.020625 2.26875 0.04125 3.4375 0.0625 C3.77515809 3.77045276 4.10685514 7.47891581 4.4375 11.1875 C4.53289062 12.23421875 4.62828125 13.2809375 4.7265625 14.359375 C5.66128851 24.90842572 5.66128851 24.90842572 5.4375 29.0625 C4.4375 30.0625 4.4375 30.0625 0.875 30.125 C-0.259375 30.104375 -1.39375 30.08375 -2.5625 30.0625 C-5.22557219 8.44881585 -5.22557219 8.44881585 -4.5625 1.0625 C-3.5625 0.0625 -3.5625 0.0625 0 0 Z " fill="#ffffff" transform="translate(176.5625,96.9375)"/>
<path d="M0 0 C0.33 0.66 0.66 1.32 1 2 C9.13758737 3.93031142 17.67361182 4.42990495 26 5 C25.34 8.3 24.68 11.6 24 15 C15.5653016 14.02716362 7.2519027 13.06297567 -1 11 C-0.67 7.37 -0.34 3.74 0 0 Z " fill="#f80eb2" transform="translate(379,41)"/>
<path d="M0 0 C5.3503559 0.57021934 10.67787852 1.20734361 16 2 C14.65150163 6.35970831 12.95092154 10.31341438 10.875 14.375 C10.33617187 15.43460937 9.79734375 16.49421875 9.2421875 17.5859375 C8.83226562 18.38257813 8.42234375 19.17921875 8 20 C6.35 19.67 4.7 19.34 3 19 C0.86608597 12.74051886 0.41044485 6.57791873 0 0 Z " fill="#faf6fa" transform="translate(343,294)"/>
<path d="M0 0 C2.0625 0.4375 2.0625 0.4375 4 1 C4.85854854 10.65390133 4.85854854 10.65390133 1.9375 14.625 C-1 17 -1 17 -4.4375 17.6875 C-8.99158926 16.80864067 -10.91646817 15.45061895 -14 12 C-14.875 8.1875 -14.875 8.1875 -15 5 C-13.68 5 -12.36 5 -11 5 C-10.360625 5.99 -9.72125 6.98 -9.0625 8 C-8.0415625 9.485 -8.0415625 9.485 -7 11 C-4.41357927 11.25032949 -4.41357927 11.25032949 -2 11 C-1.93941406 10.28972656 -1.87882812 9.57945312 -1.81640625 8.84765625 C-1.73261719 7.92855469 -1.64882813 7.00945312 -1.5625 6.0625 C-1.48128906 5.14597656 -1.40007812 4.22945312 -1.31640625 3.28515625 C-1 1 -1 1 0 0 Z " fill="#0f1d4b" transform="translate(271,176)"/>
<path d="M0 0 C2.0625 0.4375 2.0625 0.4375 4 1 C4.61479609 9.79499966 4.61479609 9.79499966 2.4375 14.0625 C-0.7891021 16.627235 -2.89763122 17 -7 17 C-11.17305347 15.29284176 -13.15166084 13.08580235 -15 9 C-15.1875 6.1875 -15.1875 6.1875 -15 4 C-13.1875 4.1875 -13.1875 4.1875 -11 5 C-10.525625 5.825 -10.05125 6.65 -9.5625 7.5 C-8.22232165 10.25461912 -8.22232165 10.25461912 -5.3125 10.8125 C-4.549375 10.874375 -3.78625 10.93625 -3 11 C-0.56357324 7.34535987 -0.92040166 5.29831033 -1 1 C-0.67 0.67 -0.34 0.34 0 0 Z " fill="#0d1b49" transform="translate(211,194)"/>
<path d="M0 0 C5.07753463 1.16207494 5.07753463 1.16207494 7 4 C8.74057407 10.63593866 8.74057407 10.63593866 7.01171875 13.8203125 C5.22815758 15.99846685 3.5322451 17.73387745 1 19 C-5.39889197 19.46537396 -5.39889197 19.46537396 -7.9375 17.5 C-8.288125 17.005 -8.63875 16.51 -9 16 C-7.88625 15.54625 -6.7725 15.0925 -5.625 14.625 C-2.03800992 13.27534014 -2.03800992 13.27534014 0 11 C0.24315656 8.33050591 0.24315656 8.33050591 0.125 5.375 C0.10695313 4.37210938 0.08890625 3.36921875 0.0703125 2.3359375 C0.04710937 1.56507813 0.02390625 0.79421875 0 0 Z " fill="#f750ca" transform="translate(457,231)"/>
<path d="M0 0 C0.33 0 0.66 0 1 0 C1.22731216 6.93302093 0.42002108 13.2168636 -1 20 C-5.31096276 21.00514676 -8.62835032 20.77146759 -13 20 C-12.01 19.34 -11.02 18.68 -10 18 C-8.72069948 15.33381691 -8.72069948 15.33381691 -7.625 12.25 C-5.66019167 7.29630142 -3.76067402 3.76067402 0 0 Z " fill="#f74bc5" transform="translate(406,26)"/>
<path d="M0 0 C2.97 0 5.94 0 9 0 C8.34 3.3 7.68 6.6 7 10 C4.03 9.67 1.06 9.34 -2 9 C-1.51421457 5.87709365 -1.0013988 3.00419641 0 0 Z " fill="#bc0e95" transform="translate(396,46)"/>
<path d="M0 0 C4.95 0.33 9.9 0.66 15 1 C15 1.33 15 1.66 15 2 C14.236875 2.04125 13.47375 2.0825 12.6875 2.125 C9.67594887 2.77823609 9.67594887 2.77823609 8.1875 6.0625 C7.795625 7.031875 7.40375 8.00125 7 9 C4.69 9 2.38 9 0 9 C0 6.03 0 3.06 0 0 Z " fill="#f20faf" transform="translate(342,267)"/>
<path d="M0 0 C1.134375 0.020625 2.26875 0.04125 3.4375 0.0625 C3.4375 2.7025 3.4375 5.3425 3.4375 8.0625 C0.7975 8.0625 -1.8425 8.0625 -4.5625 8.0625 C-4.60491723 5.72955225 -4.60342937 3.39547433 -4.5625 1.0625 C-3.5625 0.0625 -3.5625 0.0625 0 0 Z " fill="#ffffff" transform="translate(179.5625,127.9375)"/>
<path d="M0 0 C2.31 0.33 4.62 0.66 7 1 C6.32902328 5.19360449 4.1441606 8.40334352 2 12 C1.34 11.67 0.68 11.34 0 11 C0 7.37 0 3.74 0 0 Z " fill="#ed85d2" transform="translate(341,275)"/>
</svg>