<svg id="SvgjsSvg1006" width="288px" height="288px" xmlns="http://www.w3.org/2000/svg" version="1.1" xmlns:xlink="http://www.w3.org/1999/xlink" xmlns:svgjs="http://svgjs.com/svgjs" transform="rotate(50) scale(1, 1)"><defs id="SvgjsDefs1007"/><g id="SvgjsG1008"><svg xmlns="http://www.w3.org/2000/svg" viewBox="0 0 512 512" width="288" height="288"><path fill="#f0ecca" d="M0 0 C4.09287533 2.67093742 5.96761669 5.45964686 8.23242188 9.63525391 C10.14805911 13.07603309 12.07405365 16.32471884 15 19 C18.99487714 20.12973407 22.21311217 20.13635901 26.34765625 19.97265625 C31.73806571 20.01301226 35.53697695 22.15416648 40 25 C40.27972656 24.34773438 40.55945313 23.69546875 40.84765625 23.0234375 C44.7503001 14.51542293 48.70939729 10.07127995 57.5 6.6875 C64.07011833 4.39762052 70.54751713 3.87588015 77.47314453 3.83886719 C78.54063179 3.83141983 78.54063179 3.83141983 79.62968445 3.82382202 C81.96407064 3.80932165 84.29838882 3.80241761 86.6328125 3.796875 C87.84000757 3.79263393 87.84000757 3.79263393 89.07159042 3.78830719 C93.33353752 3.77336124 97.59545119 3.76410369 101.85742188 3.75976562 C106.22462548 3.75429814 110.59151463 3.73029345 114.95862007 3.70179367 C118.34759366 3.68302136 121.73649383 3.67795393 125.12551498 3.67642975 C126.73361803 3.67343379 128.34172076 3.66551092 129.94977188 3.65224457 C145.61971268 3.53222836 159.10457844 5.10620924 171.23828125 16.01171875 C172.88018022 17.63387544 174.46532864 19.27676833 176 21 C176.556875 20.29875 177.11375 19.5975 177.6875 18.875 C178.8321875 17.451875 178.8321875 17.451875 180 16 C180.70125 15.01 181.4025 14.02 182.125 13 C186.50799886 7.73223429 193.38748052 5.08941892 200 4 C204.64313136 3.75124063 209.28836644 3.76875596 213.9375 3.75 C215.18080078 3.729375 216.42410156 3.70875 217.70507812 3.6875 C230.03238707 3.63626963 242.3942787 4.55540984 252 13 C254.5625 15.875 254.5625 15.875 256 18 C256.36351562 17.46890625 256.72703125 16.9378125 257.1015625 16.390625 C261.74274018 9.86917533 266.1957226 6.23386747 274 4 C283.9238119 3.04123775 292.46296905 3.82896825 300.3125 10.25 C303.77779237 13.49395633 305.91945817 16.7522271 308 21 C308.48726563 20.43152344 308.97453125 19.86304688 309.4765625 19.27734375 C317.17246344 10.895808 327.29590043 4.46995007 338.90625 3.76171875 C355.61163048 3.35498222 368.31117421 7.56951043 380.75 19.1875 C392.37732993 31.48043737 396.64776529 45.88061267 396.54541016 62.45483398 C396.25331742 70.94329619 394.07666447 76.84617799 388.3125 83.125 C386 85 386 85 384 85 C384.804375 86.36125 384.804375 86.36125 385.625 87.75 C387.53234941 91.10829735 389.35099004 94.5068778 391.125 97.9375 C391.62257813 98.89527344 392.12015625 99.85304688 392.6328125 100.83984375 C398.94168455 115.42235085 397.72380266 134.43179041 392 149 C385.32611216 164.65920022 374.90671122 177.23445311 358.875 183.9375 C348.05772682 187.05038437 336.01955278 185.876301 326 181 C325.32582031 180.60554687 324.65164063 180.21109375 323.95703125 179.8046875 C321.47909513 178.78581556 320.48054494 179.06797529 318 180 C316.67138083 180.6339336 315.35856575 181.30192102 314.0625 182 C307.66082529 185.25388991 301.16420464 186.16505448 294.1796875 184.2109375 C289.6087981 182.61417347 285.77848021 181.08105045 282 178 C279.99307401 178.99898325 277.99097016 180.00467365 276 181.03515625 C275.34 181.37417969 274.68 181.71320313 274 182.0625 C273.34 182.40410156 272.68 182.74570312 272 183.09765625 C266.43896046 185.60664089 259.6180231 186.15292638 253.78125 184.29296875 C252.45246125 183.73334426 251.12430843 183.17220677 249.796875 182.609375 C245.87102759 181.27800066 242.16391863 182.95386002 238.33374023 184.03198242 C234.06908091 185.09004965 230.03921033 185.30634041 225.66015625 185.30078125 C224.89376328 185.30506638 224.1273703 185.3093515 223.3377533 185.31376648 C221.72851543 185.31946933 220.11925181 185.32004018 218.51000977 185.31567383 C216.0719739 185.31251229 213.63515221 185.33602814 211.19726562 185.36132812 C199.23204609 185.41231204 190.90161154 184.58849691 181.953125 176.140625 C179.34267349 173.27957014 177.66999169 170.48520005 176 167 C175.53851563 167.50789062 175.07703125 168.01578125 174.6015625 168.5390625 C165.45891848 178.18762358 154.58316724 184.2216717 141.15234375 185.3125 C134.94779823 185.4118721 129.12855927 185.2735172 123.22265625 183.2421875 C120.77090653 182.83446921 120.77090653 182.83446921 117.58740234 183.96606445 C112.20328468 185.3581759 106.91231035 185.30560247 101.37890625 185.30078125 C100.2795726 185.30506638 99.18023895 185.3093515 98.04759216 185.31376648 C95.73217454 185.31948686 93.41673896 185.32002703 91.10131836 185.31567383 C87.57699685 185.312513 84.0535149 185.33600587 80.52929688 185.36132812 C78.27083438 185.3636014 76.01236965 185.36430448 73.75390625 185.36328125 C72.70989151 185.372491 71.66587677 185.38170074 70.59022522 185.39118958 C63.07333719 185.34411222 56.27672049 184.60648221 50.25 179.8125 C44.38219849 172.47774811 41.86687354 165.87348661 39.875 156.6875 C39.40306496 154.54338431 38.9217018 152.40131607 38.4296875 150.26171875 C38.22585449 149.32287842 38.02202148 148.38403809 37.81201172 147.41674805 C36.93533803 144.80754996 36.21505985 143.61533021 34 142 C27.99992466 142 22.62781271 144.16913183 18 148 C16.36598271 151.15576293 15.80982233 154.32259843 15.25 157.8125 C13.68633819 166.47725408 11.31924445 174.22725038 3.96484375 179.78515625 C-10.66383077 188.8299232 -28.89094424 194.08864044 -46.015625 190.33984375 C-51.25885756 188.4821954 -54.93356348 185.59104284 -58.9296875 181.7890625 C-61.19637599 179.8303015 -63.51177436 178.45872596 -66.125 177 C-74.22585991 172.27863993 -78.54969871 166.0537578 -81 157 C-81.42405523 151.35746922 -81.04708544 145.74836515 -80.75585938 140.10546875 C-80.2670865 133.70511837 -80.2670865 133.70511837 -83.328125 128.484375 C-84.65070313 127.74960937 -84.65070313 127.74960937 -86 127 C-91.49635034 119.75296029 -92.10167573 111.8239989 -91 103 C-90.03125 100.71484375 -90.03125 100.71484375 -89 98.8125 C-87.5649247 95.09714414 -87.5649247 95.09714414 -89.40625 92.35546875 C-91.51249675 89.48295686 -93.72116831 86.73700949 -96 84 C-100.34007174 78.30038772 -102.53763374 73.29031346 -102 66 C-100.23799716 58.10361692 -96.89369813 51.17429068 -89.9765625 46.6875 C-86.28017955 44.70876712 -84.31226416 44 -80 44 C-79.96036133 43.43603516 -79.92072266 42.87207031 -79.87988281 42.29101562 C-79.68727411 39.69239434 -79.46880965 37.09654123 -79.25 34.5 C-79.188125 33.613125 -79.12625 32.72625 -79.0625 31.8125 C-78.42189674 24.55232972 -76.76011919 18.15281884 -71.125 13.1875 C-64.55490683 8.58843478 -59.03962727 6.78300601 -51 7 C-46.79857654 7.84830924 -42.83658189 9.08170906 -39 11 C-34.18960433 7.96185537 -29.8987463 4.48771721 -25.5625 0.8046875 C-17.66033522 -4.7605566 -8.39407638 -4.03880156 0 0 Z " transform="translate(108 161)" class="colorF0ECCA svgShape"/><path fill="#ff1000" d="M0 0 C8.83393725 7.32434038 14.06938443 15.39565329 17.6875 26.25 C18.67153534 39.82968766 17.60904892 52.09354354 8.68359375 63.10546875 C5.42055455 66.61116057 1.94922433 69.90643971 -1.47998047 73.24853516 C-8.17547167 79.90161323 -12.97649719 87.41940432 -16.3125 96.25 C-15.673125 96.45625 -15.03375 96.6625 -14.375 96.875 C-12.3125 98.25 -12.3125 98.25 -11.4375 101.1875 C-11.3125 104.25 -11.3125 104.25 -13.3125 107.25 C-13.9725 107.25 -14.6325 107.25 -15.3125 107.25 C-14.3225 108.735 -14.3225 108.735 -13.3125 110.25 C-13.53452665 116.46674629 -13.53452665 116.46674629 -16.0390625 118.98828125 C-18.88237757 120.56627226 -20.37614273 120.39868329 -23.5625 119.9375 C-24.45453125 119.81761719 -25.3465625 119.69773437 -26.265625 119.57421875 C-26.94109375 119.46722656 -27.6165625 119.36023438 -28.3125 119.25 C-28.60898438 119.88421875 -28.90546875 120.5184375 -29.2109375 121.171875 C-30.62989766 123.84877857 -31.4247454 124.3380775 -34.3125 125.25 C-39.00135576 125.77938694 -41.93518605 125.98565864 -45.75 123.0625 C-48.31159564 120.25099259 -49.09948668 118.97773314 -49.3125 115.25 C-49.92738281 115.22421875 -50.54226562 115.1984375 -51.17578125 115.171875 C-57.74960021 114.71055437 -57.74960021 114.71055437 -60.375 112.5625 C-61.58389083 109.58056929 -61.64527202 107.44461136 -61.3125 104.25 C-60.9825 103.610625 -60.6525 102.97125 -60.3125 102.3125 C-59.04672161 100.09761773 -59.04672161 100.09761773 -59.375 96.6875 C-59.3125 93.25 -59.3125 93.25 -58.0625 91.3125 C-56.3125 90.25 -56.3125 90.25 -52.3125 90.25 C-53.94839428 80.9512325 -55.81800881 72.33740495 -60.25 63.9375 C-60.59675781 63.27951416 -60.94351563 62.62152832 -61.30078125 61.94360352 C-61.9841601 60.6550426 -62.66885647 59.36717942 -63.35498047 58.08007812 C-69.53469122 46.26898383 -71.58374526 34.93889696 -67.75 21.9375 C-62.63772912 8.59178234 -53.65536078 0.52231857 -41.046875 -5.5859375 C-27.68773102 -11.27311594 -11.6178701 -8.06046026 0 0 Z " transform="translate(112.313 202.75)" class="colorF6C531 svgShape"/><path fill="#ece8c7" d="M0 0 C7.19842584 0 10.48049663 1.58098494 16 6 C31.9120622 23.43408554 34.08865885 46.03765942 33.51171875 68.609375 C32.68467525 84.81692771 27.33460333 104.34407892 14.89453125 115.6328125 C10.21654589 119.00867822 5.778605 121 0 121 C0 81.07 0 41.14 0 0 Z " transform="translate(244 195)" class="colorECE8C7 svgShape"/><path fill="#201c0f" d="M0 0 C8.83393725 7.32434038 14.06938443 15.39565329 17.6875 26.25 C18.67153534 39.82968766 17.60904892 52.09354354 8.68359375 63.10546875 C5.42055455 66.61116057 1.94922433 69.90643971 -1.47998047 73.24853516 C-8.17547167 79.90161323 -12.97649719 87.41940432 -16.3125 96.25 C-15.673125 96.45625 -15.03375 96.6625 -14.375 96.875 C-12.3125 98.25 -12.3125 98.25 -11.4375 101.1875 C-11.3125 104.25 -11.3125 104.25 -13.3125 107.25 C-13.9725 107.25 -14.6325 107.25 -15.3125 107.25 C-14.3225 108.735 -14.3225 108.735 -13.3125 110.25 C-13.53452665 116.46674629 -13.53452665 116.46674629 -16.0390625 118.98828125 C-18.88237757 120.56627226 -20.37614273 120.39868329 -23.5625 119.9375 C-24.45453125 119.81761719 -25.3465625 119.69773437 -26.265625 119.57421875 C-26.94109375 119.46722656 -27.6165625 119.36023438 -28.3125 119.25 C-28.60898438 119.88421875 -28.90546875 120.5184375 -29.2109375 121.171875 C-30.62989766 123.84877857 -31.4247454 124.3380775 -34.3125 125.25 C-39.00135576 125.77938694 -41.93518605 125.98565864 -45.75 123.0625 C-48.31159564 120.25099259 -49.09948668 118.97773314 -49.3125 115.25 C-49.92738281 115.22421875 -50.54226562 115.1984375 -51.17578125 115.171875 C-57.74960021 114.71055437 -57.74960021 114.71055437 -60.375 112.5625 C-61.58389083 109.58056929 -61.64527202 107.44461136 -61.3125 104.25 C-60.9825 103.610625 -60.6525 102.97125 -60.3125 102.3125 C-59.04672161 100.09761773 -59.04672161 100.09761773 -59.375 96.6875 C-59.3125 93.25 -59.3125 93.25 -58.0625 91.3125 C-56.3125 90.25 -56.3125 90.25 -52.3125 90.25 C-53.94839428 80.9512325 -55.81800881 72.33740495 -60.25 63.9375 C-60.59675781 63.27951416 -60.94351563 62.62152832 -61.30078125 61.94360352 C-61.9841601 60.6550426 -62.66885647 59.36717942 -63.35498047 58.08007812 C-69.53469122 46.26898383 -71.58374526 34.93889696 -67.75 21.9375 C-62.63772912 8.59178234 -53.65536078 0.52231857 -41.046875 -5.5859375 C-27.68773102 -11.27311594 -11.6178701 -8.06046026 0 0 Z M-56.625 7.5 C-64.11599955 16.50433279 -67.90661085 26.58785642 -67.6171875 38.27734375 C-66.65796269 47.63593451 -62.81394308 55.39770379 -58.25170898 63.43017578 C-54.46847452 70.34101471 -52.84561604 77.57575815 -51.3125 85.25 C-50.9825 86.9 -50.6525 88.55 -50.3125 90.25 C-46.6825 90.58 -43.0525 90.91 -39.3125 91.25 C-37.77478872 85.42675422 -36.6180336 79.6362684 -35.6875 73.6875 C-35.5534375 72.87603516 -35.419375 72.06457031 -35.28125 71.22851562 C-34.53391161 66.50426939 -34.17128283 62.03212696 -34.3125 57.25 C-38.7675 55.27 -38.7675 55.27 -43.3125 53.25 C-43.5078125 47.1953125 -43.5078125 47.1953125 -43.3125 45.25 C-41.3125 43.25 -41.3125 43.25 -37.875 42.9375 C-34.3125 43.25 -34.3125 43.25 -32.6015625 44.4765625 C-30.93231059 46.77304846 -31.00292341 48.12973842 -31.125 50.9375 C-31.16560547 52.14986328 -31.16560547 52.14986328 -31.20703125 53.38671875 C-31.24183594 54.00160156 -31.27664062 54.61648438 -31.3125 55.25 C-29.6625 55.58 -28.0125 55.91 -26.3125 56.25 C-26.11914062 55.61191406 -25.92578125 54.97382813 -25.7265625 54.31640625 C-25.46617188 53.49011719 -25.20578125 52.66382813 -24.9375 51.8125 C-24.68226562 50.98878906 -24.42703125 50.16507813 -24.1640625 49.31640625 C-23.3125 47.25 -23.3125 47.25 -21.3125 46.25 C-17.26107881 45.99139865 -15.76912331 45.94558446 -12.3125 48.25 C-11.65008027 54.32218084 -11.65008027 54.32218084 -13.51171875 56.9296875 C-15.86995587 58.65872036 -17.60155384 58.74928921 -20.5 58.9375 C-21.40105469 59.00324219 -22.30210938 59.06898438 -23.23046875 59.13671875 C-24.26107422 59.19279297 -24.26107422 59.19279297 -25.3125 59.25 C-25.98928186 63.41508837 -26.65209148 67.58228675 -27.3125 71.75 C-27.59867188 73.50957031 -27.59867188 73.50957031 -27.890625 75.3046875 C-28.84363107 81.36308323 -29.55539989 87.11677782 -29.3125 93.25 C-25.63839215 94.42571451 -22.14320817 94.32366746 -18.3125 94.25 C-17.9721875 93.57195312 -17.631875 92.89390625 -17.28125 92.1953125 C-12.50265959 83.0194022 -6.79763506 75.58780107 0.63525391 68.42797852 C10.63309758 58.78509617 15.6336992 49.50810605 16 35.375 C15.77315645 22.87191732 11.41395745 14.21264154 3.0625 5.0625 C-6.10619377 -3.7535517 -16.68611792 -6.10075349 -29.00390625 -5.9609375 C-39.76458589 -5.27489653 -49.26916808 -0.31125866 -56.625 7.5 Z " transform="translate(112.313 202.75)" class="color201C0F svgShape"/><path fill="#0c0c0a" d="M0 0 C2.475 0.495 2.475 0.495 5 1 C6.5534605 8.46925714 7.86870116 15.96397367 9.1015625 23.4921875 C9.29927246 24.6922644 9.49698242 25.89234131 9.70068359 27.12878418 C10.34454294 31.04379552 10.98521219 34.95932192 11.625 38.875 C11.84608308 40.22633978 12.06717279 41.57767848 12.28826904 42.92901611 C15.28732288 61.27102948 18.24418733 79.61966064 21.09783936 97.98492432 C21.44742265 100.23303187 21.79868242 102.48087942 22.15167236 104.72845459 C22.64049434 107.8467896 23.12216635 110.96614132 23.6015625 114.0859375 C23.74480957 114.99363892 23.88805664 115.90134033 24.03564453 116.83654785 C24.76111548 121.62114722 25.14684489 126.16068137 25 131 C23.34385343 131.38218767 21.67542976 131.71395102 20 132 C17.88877526 129.88877526 18.04420803 125.70979051 17.58984375 122.80078125 C17.45808243 121.97297653 17.32632111 121.14517181 17.19056702 120.2922821 C16.91202952 118.53477694 16.63559776 116.77693697 16.36108398 115.01879883 C15.94184199 112.34024117 15.51339184 109.66327254 15.08398438 106.98632812 C14.81454258 105.27873435 14.54564513 103.57105458 14.27734375 101.86328125 C14.14923813 101.0661824 14.02113251 100.26908356 13.8891449 99.4478302 C13.77224808 98.6907225 13.65535126 97.93361481 13.53491211 97.15356445 C13.43133896 96.49483841 13.32776581 95.83611237 13.22105408 95.15742493 C12.9437947 92.45145228 13 89.72013983 13 87 C2.605 87.495 2.605 87.495 -8 88 C-10.31 102.19 -12.62 116.38 -15 131 C-16.65 131.33 -18.3 131.66 -20 132 C-20.33 131.67 -20.66 131.34 -21 131 C-20.8236744 122.32392006 -19.45351074 113.75084245 -17.99609375 105.21484375 C-17.79705948 104.01892105 -17.59802521 102.82299835 -17.39295959 101.59083557 C-16.8567268 98.37122225 -16.31595005 95.15241265 -15.77334595 91.93386841 C-14.74322988 85.81055149 -13.72943445 79.68449843 -12.71484375 73.55859375 C-12.54359797 72.52623407 -12.54359797 72.52623407 -12.36889267 71.47301865 C-10.72030043 61.52451566 -9.14150768 51.56788419 -7.62890625 41.59765625 C-7.44613632 40.39390854 -7.26336639 39.19016083 -7.07505798 37.94993591 C-6.21168333 32.24656598 -5.35794294 26.54188436 -4.51342773 20.83569336 C-4.20697539 18.79669617 -3.90042207 16.75771415 -3.59375 14.71875 C-3.46082047 13.80074112 -3.32789093 12.88273224 -3.19093323 11.93690491 C-2.54952832 7.70074835 -1.85945547 3.90848667 0 0 Z " transform="translate(387 189)" class="color0C0C0A svgShape"/><path fill="#0d0d0b" d="M0 0 C8.33637771 0.2039114 14.53656394 3.71370299 20.53125 9.3515625 C38.09834481 27.99860166 39.13915903 53.06083098 38.56494141 77.30126953 C37.93736501 92.43764273 33.03946465 110.03473698 22.4375 121.375 C21.591875 122.2825 20.74625 123.19 19.875 124.125 C12.33456566 131.08540093 7.14547258 132.60567634 -3.05078125 132.54296875 C-5.5625 132.375 -5.5625 132.375 -6.5625 131.375 C-6.66299006 129.70938823 -6.69326229 128.03950268 -6.69621277 126.37086487 C-6.70047775 125.28695465 -6.70474274 124.20304443 -6.70913696 123.08628845 C-6.70868378 121.88678055 -6.70823059 120.68727264 -6.70776367 119.45141602 C-6.71112228 118.19627197 -6.7144809 116.94112793 -6.71794128 115.64794922 C-6.72680149 112.19550007 -6.72912024 108.74307569 -6.72975707 105.29061627 C-6.73070453 102.41274182 -6.73438094 99.53487318 -6.73792917 96.65700096 C-6.74608143 89.8695569 -6.7485127 83.08212612 -6.74780273 76.29467773 C-6.74720175 69.28338099 -6.75775586 62.27216114 -6.7735464 55.26088387 C-6.78660391 49.24983817 -6.79198739 43.23881765 -6.79134732 37.22775787 C-6.79109181 33.63386743 -6.79397249 30.04004527 -6.80452538 26.4461689 C-6.81596685 22.44005161 -6.81147056 18.43410754 -6.80541992 14.42797852 C-6.81103943 13.23049484 -6.81665894 12.03301117 -6.82244873 10.79924011 C-6.81825424 9.71251007 -6.81405975 8.62578003 -6.80973816 7.50611877 C-6.81055531 6.08389684 -6.81055531 6.08389684 -6.81138897 4.63294315 C-6.32782159 0.2459763 -3.84699 0.06020329 0 0 Z M-0.5625 6.375 C-0.5625 46.305 -0.5625 86.235 -0.5625 127.375 C8.4395102 125.87466497 13.68940051 123.10644185 19.55859375 116.03125 C23.02925303 111.12470465 25.31198528 105.97917401 27.4375 100.375 C27.68161621 99.76140625 27.92573242 99.1478125 28.17724609 98.515625 C36.19766668 77.70588509 35.51328344 50.41447981 26.56640625 29.9453125 C22.66838779 21.59903247 18.67184865 13.8798717 10.5 9 C9.27990234 8.24589844 9.27990234 8.24589844 8.03515625 7.4765625 C4.98711958 5.98459237 4.98711958 5.98459237 -0.5625 6.375 Z " transform="translate(244.563 188.625)" class="color0D0D0B svgShape"/><path fill="#0a0a08" d="M0 0 C8.64268593 4.82256456 12.70884432 12.32432187 16 21.375 C16.89693772 25.63545417 16.92685924 29.60444854 16.75 33.9375 C15.43 34.5975 14.11 35.2575 12.75 35.9375 C10.75 33.9375 10.75 33.9375 10.4375 30.0625 C9.64494775 21.87279342 6.7968446 14.27022876 0.5625 8.75 C-3.66210636 5.43008945 -6.44770589 4.50611552 -11.80859375 4.609375 C-16.13371393 5.19067115 -19.10131052 6.96079776 -22.25 9.9375 C-29.43673306 19.46773298 -30.35035942 29.32812279 -29.25 40.9375 C-27.55793477 48.13797321 -24.09739527 54.25220194 -17.9609375 58.53515625 C-14.98239943 60.07592739 -12.62869323 60.52777728 -9.3125 60.9375 C-4.74499932 61.62038613 -1.20530294 62.42925911 2.75 64.9375 C3.575 65.453125 4.4 65.96875 5.25 66.5 C13.23889673 74.28917431 16.84227327 84.31410807 17.1875 95.25 C16.91947326 106.88002985 13.50001547 116.25583912 5.20703125 124.46484375 C-0.51013203 129.5353356 -5.74011617 130.46908332 -13.18359375 130.3046875 C-20.03233562 129.48458338 -24.61461007 126.05445812 -29.0625 120.9375 C-34.80010053 112.93154577 -36.90873462 103.65383566 -36.25 93.9375 C-34.59385343 93.55531233 -32.92542976 93.22354898 -31.25 92.9375 C-29.47628139 94.71121861 -29.7811403 97.4656276 -29.5 99.875 C-28.33862222 107.65452319 -26.20062072 114.73232182 -20.0625 120 C-15.09078789 123.42495723 -11.20529074 123.55448958 -5.25 122.9375 C0.11515131 121.32384338 3.01644204 117.9135496 5.68359375 113.125 C10.42557147 103.39786622 11.5542372 93.50804261 8.125 83.0625 C5.54064502 76.84191222 2.45611014 72.47626851 -3.4375 69.125 C-6.62868751 68.13102356 -9.52965191 67.52489983 -12.8125 67 C-21.35389662 65.54341804 -26.19786221 60.69412117 -31.25 53.9375 C-37.06181142 44.43203734 -37.33948218 33.82034943 -36.25 22.9375 C-33.98641546 13.66999918 -28.84210171 5.96806596 -21 0.5 C-14.18591043 -3.3716418 -7.0573666 -3.25642483 0 0 Z " transform="translate(463.25 191.063)" class="color0A0A08 svgShape"/><path fill="#060605" d="M0 0 C1.29349365 0.00523682 2.5869873 0.01047363 3.91967773 0.01586914 C4.9496714 0.01799156 4.9496714 0.01799156 6.00047302 0.02015686 C8.20144949 0.0257706 10.40232557 0.03832532 12.60327148 0.05102539 C14.09220231 0.05603863 15.58113473 0.06060184 17.07006836 0.06469727 C20.72700223 0.07574446 24.38387707 0.09301826 28.04077148 0.11352539 C28.42295916 1.76967196 28.7547225 3.43809563 29.04077148 5.11352539 C28.71077148 5.44352539 28.38077148 5.77352539 28.04077148 6.11352539 C19.46077148 6.11352539 10.88077148 6.11352539 2.04077148 6.11352539 C2.04077148 24.92352539 2.04077148 43.73352539 2.04077148 63.11352539 C10.95077148 63.11352539 19.86077148 63.11352539 29.04077148 63.11352539 C29.37077148 64.43352539 29.70077148 65.75352539 30.04077148 67.11352539 C29.38077148 67.77352539 28.72077148 68.43352539 28.04077148 69.11352539 C19.46077148 69.11352539 10.88077148 69.11352539 2.04077148 69.11352539 C2.04077148 87.59352539 2.04077148 106.07352539 2.04077148 125.11352539 C10.62077148 125.11352539 19.20077148 125.11352539 28.04077148 125.11352539 C29.04077148 126.11352539 29.04077148 126.11352539 29.10327148 128.67602539 C29.08264648 129.48040039 29.06202148 130.28477539 29.04077148 131.11352539 C24.50179443 131.13817931 19.96285605 131.15636328 15.42382812 131.16845703 C13.87857383 131.17349679 12.33332432 131.18032859 10.78808594 131.18896484 C8.5715212 131.20104615 6.3550193 131.20675712 4.13842773 131.21118164 C3.09622826 131.21892357 3.09622826 131.21892357 2.03297424 131.2268219 C0.36847819 131.22701816 -1.2958835 131.17541668 -2.95922852 131.11352539 C-4.63355761 129.4391963 -4.08529895 127.40145029 -4.08621216 125.10266113 C-4.08903198 124.01730576 -4.09185181 122.93195038 -4.09475708 121.81370544 C-4.09273285 120.6126265 -4.09070862 119.41154755 -4.08862305 118.17407227 C-4.09037537 116.91732193 -4.09212769 115.66057159 -4.09393311 114.36573792 C-4.09850692 110.90921892 -4.0967181 107.45272964 -4.09355402 103.9962101 C-4.09103015 100.38651064 -4.09336803 96.77681381 -4.09494019 93.16711426 C-4.0967618 87.104162 -4.09435578 81.0412219 -4.08959961 74.97827148 C-4.084157 67.95902453 -4.08591966 60.93980661 -4.09142601 53.92056036 C-4.09595737 47.90443596 -4.09660758 41.88832032 -4.09398735 35.87219477 C-4.09242469 32.27444641 -4.09223048 28.67671172 -4.09552383 25.07896423 C-4.09893674 21.0702847 -4.09421245 17.06165559 -4.08862305 13.05297852 C-4.09064728 11.85189957 -4.09267151 10.65082062 -4.09475708 9.41334534 C-4.09193726 8.32798996 -4.08911743 7.24263458 -4.08621216 6.12438965 C-4.08583513 5.1753199 -4.08545811 4.22625015 -4.08506966 3.24842072 C-3.88712582 -0.10969706 -3.42601471 0.13143279 0 0 Z " transform="translate(311.96 189.886)" class="color060605 svgShape"/><path fill="#080807" d="M0 0 C0.79719955 0.00222061 1.59439911 0.00444122 2.41575623 0.00672913 C3.31661453 0.00680466 4.21747284 0.00688019 5.14562988 0.00695801 C6.12478867 0.01211929 7.10394745 0.01728058 8.11277771 0.02259827 C9.11018478 0.02401321 10.10759186 0.02542816 11.13522339 0.02688599 C14.3348027 0.03250337 17.53431315 0.04505881 20.73387146 0.05775452 C22.89728191 0.06276728 25.06069345 0.06733057 27.22410583 0.07142639 C32.53988471 0.08247845 37.85562317 0.09923348 43.17137146 0.12025452 C43.83137146 1.44025452 44.49137146 2.76025452 45.17137146 4.12025452 C44.51137146 4.78025452 43.85137146 5.44025452 43.17137146 6.12025452 C36.90137146 6.12025452 30.63137146 6.12025452 24.17137146 6.12025452 C24.17137146 45.39025452 24.17137146 84.66025452 24.17137146 125.12025452 C30.44137146 125.12025452 36.71137146 125.12025452 43.17137146 125.12025452 C44.17137146 126.12025452 44.17137146 126.12025452 44.17137146 131.12025452 C28.99137146 131.12025452 13.81137146 131.12025452 -1.82862854 131.12025452 C-2.15862854 129.80025452 -2.48862854 128.48025452 -2.82862854 127.12025452 C-2.33362854 126.62525452 -2.33362854 126.62525452 -1.82862854 126.12025452 C4.77137146 126.12025452 11.37137146 126.12025452 18.17137146 126.12025452 C18.17137146 86.52025452 18.17137146 46.92025452 18.17137146 6.12025452 C11.57137146 6.12025452 4.97137146 6.12025452 -1.82862854 6.12025452 C-2.15862854 4.47025452 -2.48862854 2.82025452 -2.82862854 1.12025452 C-1.82862854 0.12025452 -1.82862854 0.12025452 0 0 Z " transform="translate(175.829 189.88)" class="color080807 svgShape"/><path fill="#e9e5c4" d="M0 0 C0.33 0 0.66 0 1 0 C1.82050379 4.7277382 2.63823471 9.45594548 3.45361328 14.18457031 C3.73023145 15.78658379 4.00755232 17.38847612 4.28564453 18.99023438 C9 46.15309116 9 46.15309116 9 56 C3.06 56 -2.88 56 -9 56 C-8.4057725 48.47720235 -7.43142974 41.16724813 -6.0625 33.75 C-4.64784836 25.89900059 -3.39976592 18.0836697 -2.4921875 10.15625 C-1.94279719 6.63317562 -1.04116995 3.4074653 0 0 Z " transform="translate(389 214)" class="colorE9E5C4 svgShape"/><path fill="#916b4f" d="M0 0 C8.92125593 0.19990123 17.81503702 1.54385219 26.625 2.875 C27.78128906 3.03613281 28.93757813 3.19726562 30.12890625 3.36328125 C31.78599609 3.61271484 31.78599609 3.61271484 33.4765625 3.8671875 C34.46736816 4.01269043 35.45817383 4.15819336 36.47900391 4.30810547 C39.21769525 5.05974708 40.35660039 5.70149468 42 8 C41.57894737 12.42105263 41.57894737 12.42105263 40 14 C32.99369232 14.49015321 25.96234944 13.74123872 19 13 C21.64 13.66 24.28 14.32 27 15 C26.31937468 17.46726679 25.48646888 18.71905056 23.26171875 20.00390625 C19.89589286 21.41742635 17.80936309 22.17985847 14.1875 21.375 C10.87492421 19.2928095 9.30597553 18.19608615 8.3125 14.3125 C8.209375 13.549375 8.10625 12.78625 8 12 C7.38511719 11.97421875 6.77023438 11.9484375 6.13671875 11.921875 C-0.43710021 11.46055437 -0.43710021 11.46055437 -3.0625 9.3125 C-4.23506168 6.42018118 -4.21079572 4.09167049 -4 1 C-3.01 1 -2.02 1 -1 1 C-0.67 0.67 -0.34 0.34 0 0 Z " transform="translate(55 306)" class="color916B4F svgShape"/><path fill="#2c2308" d="M0 0 C2.4375 1.5625 2.4375 1.5625 4 4 C4.51470588 9.97058824 4.51470588 9.97058824 3 13 C4.65 13.33 6.3 13.66 8 14 C6.35 25.88 4.7 37.76 3 50 C1.02 50 -0.96 50 -3 50 C-4.3384395 42.1293023 -3.40116298 35.26586247 -2.0625 27.4375 C-1.86720703 26.23802734 -1.67191406 25.03855469 -1.47070312 23.80273438 C-0.99108929 20.86656189 -0.50063383 17.93264855 0 15 C-1.41152344 14.78537109 -1.41152344 14.78537109 -2.8515625 14.56640625 C-6.26258474 13.95276081 -7.77081864 13.65787008 -10 11 C-10.66427071 7.4248801 -10.65891515 4.24031087 -8.9375 1 C-5.82090489 -0.60856522 -3.43737531 -0.42213381 0 0 Z " transform="translate(78 245)" class="color2C2308 svgShape"/><path fill="#926c4f" d="M0 0 C3.99961928 0.10327629 7.88192929 0.58719216 11.83544922 1.21240234 C12.50746368 1.31863922 13.17947815 1.4248761 13.87185669 1.53433228 C15.27559017 1.75818991 16.67882148 1.98521829 18.08154297 2.21533203 C20.23231605 2.56625799 22.38516181 2.90153796 24.53857422 3.23583984 C25.90851646 3.4562602 27.27831408 3.6775817 28.64794922 3.89990234 C30.50395752 4.19840088 30.50395752 4.19840088 32.39746094 4.50292969 C35.34326172 5.18896484 35.34326172 5.18896484 37.34326172 7.18896484 C37.53076172 10.25146484 37.53076172 10.25146484 37.34326172 13.18896484 C36.34326172 14.18896484 36.34326172 14.18896484 32.76269531 14.31542969 C26.49406878 14.23368394 20.35517036 13.14270482 14.17773438 12.16259766 C11.95446685 11.81178815 9.72920859 11.47647174 7.50341797 11.14208984 C6.0879088 10.92166219 4.67253851 10.70034038 3.25732422 10.47802734 C1.97809082 10.27902832 0.69885742 10.0800293 -0.61914062 9.875 C-3.65673828 9.18896484 -3.65673828 9.18896484 -5.65673828 7.18896484 C-5.90673828 4.68896484 -5.90673828 4.68896484 -5.65673828 2.18896484 C-3.65673828 0.18896484 -3.65673828 0.18896484 0 0 Z " transform="translate(60.657 294.811)" class="color926C4F svgShape"/><path fill="#201c12" d="M0 0 C2.375 1.0625 2.375 1.0625 4 3 C4.55543436 6.81861121 4.53382262 9.05367809 2.625 12.4375 C-1.41739748 14.84368898 -5.40879515 14.31542629 -10 14 C-10.03738281 14.69480469 -10.07476562 15.38960938 -10.11328125 16.10546875 C-10.8060891 26.82361379 -12.40622468 37.38485493 -14 48 C-10.37 48.33 -6.74 48.66 -3 49 C-2.690625 48.05125 -2.38125 47.1025 -2.0625 46.125 C-1 43 -1 43 0 41 C1.485 41.495 1.485 41.495 3 42 C1.68 44.97 0.36 47.94 -1 51 C0.32 51.66 1.64 52.32 3 53 C3.9375 55.9375 3.9375 55.9375 4 59 C2.5625 60.875 2.5625 60.875 1 62 C-0.35439668 59.29120665 -0.06501451 56.99066732 0 54 C-6.83982904 51.72005699 -13.87045933 50.92951016 -21 50 C-20.34 49.01 -19.68 48.02 -19 47 C-18.01 47 -17.02 47 -16 47 C-16.04769531 46.00097656 -16.09539062 45.00195312 -16.14453125 43.97265625 C-16.14042574 37.75554751 -15.02912299 31.65520482 -14.02856445 25.53637695 C-13.68800335 23.44059759 -13.36400166 21.34269148 -13.04101562 19.24414062 C-12.8239152 17.89046448 -12.60584856 16.53694287 -12.38671875 15.18359375 C-12.19295654 13.97243896 -11.99919434 12.76128418 -11.79956055 11.51342773 C-10.91953995 7.64644256 -9.75457015 4.55118761 -8 1 C-5.19084526 -0.40457737 -3.11189466 -0.24895157 0 0 Z " transform="translate(97 248)" class="color201C12 svgShape"/><path fill="#0d0a07" d="M0 0 C14.19 1.98 28.38 3.96 43 6 C44 15 44 15 42.1875 18.125 C37.63248522 20.80442046 34.0424503 19.98890773 29 19 C28.55914062 19.95132812 28.55914062 19.95132812 28.109375 20.921875 C26.71223608 23.53905073 25.79746034 24.06751322 23 25 C19.75 25.125 19.75 25.125 17 25 C17.556875 24.731875 18.11375 24.46375 18.6875 24.1875 C23.62575086 21.93288201 23.62575086 21.93288201 27 18 C25.01432292 17.8046875 23.02864583 17.609375 21.04296875 17.4140625 C19 17 19 17 16 15 C24.2147651 14.83892617 24.2147651 14.83892617 27.4375 15.5 C31.59107092 16.31045286 35.78114623 16.07372754 40 16 C40.67958603 13.60280568 40.67958603 13.60280568 41 11 C38.21599639 8.21599639 35.92601712 8.31078914 32.05078125 7.7109375 C31.01451851 7.54871201 31.01451851 7.54871201 29.95732117 7.38320923 C28.4927439 7.15582327 27.02753251 6.9324905 25.56176758 6.71289062 C23.3370004 6.37868051 21.11481751 6.03026854 18.89257812 5.6796875 C7.53741579 3.18844632 7.53741579 3.18844632 -3 6 C-2.67 4.68 -2.34 3.36 -2 2 C-1.34 2 -0.68 2 0 2 C0 1.34 0 0.68 0 0 Z " transform="translate(55 303)" class="color0D0A07 svgShape"/><path fill="#211e11" d="M0 0 C0.75410156 0.00322266 1.50820312 0.00644531 2.28515625 0.00976562 C3.06246094 0.01814453 3.83976562 0.02652344 4.640625 0.03515625 C5.43339844 0.03966797 6.22617188 0.04417969 7.04296875 0.04882812 C8.99222008 0.0605706 10.94143238 0.07850479 12.890625 0.09765625 C9.81269146 2.01351284 7.03715016 2.38874218 3.45898438 2.6784668 C-8.50580656 3.65717314 -18.98787049 7.94052365 -27.109375 17.09765625 C-35.27718607 27.96326368 -36.63381138 38.79251098 -36.109375 52.09765625 C-37.099375 52.59265625 -37.099375 52.59265625 -38.109375 53.09765625 C-41.25084328 46.81471968 -39.52973132 36.30146611 -37.546875 29.78515625 C-32.43460412 16.43943859 -23.45223578 8.36997482 -10.84375 2.26171875 C-7.14006687 0.68500793 -4.02148027 -0.03046576 0 0 Z " transform="translate(82.11 194.902)" class="color211E11 svgShape"/><path fill="#ff1000" d="M0 0 C1.32 0 2.64 0 4 0 C3.30199694 11.40873974 1.60456399 22.69106922 0 34 C-1.98 34 -3.96 34 -6 34 C-5.47430695 30.12119641 -4.94100514 26.24352003 -4.40087891 22.36669922 C-4.12917853 20.40516677 -3.86337095 18.442821 -3.59765625 16.48046875 C-3.42363281 15.23652344 -3.24960938 13.99257813 -3.0703125 12.7109375 C-2.91320801 11.56931152 -2.75610352 10.42768555 -2.59423828 9.25146484 C-2.00456405 6.02497289 -1.11397763 3.08078062 0 0 Z " transform="translate(81 261)" class="colorEFBF30 svgShape"/><path fill="#21201e" d="M0 0 C2 2 2 2 2.5234375 4.51171875 C3.72029035 7.13384339 3.72029035 7.13384339 5.93847656 7.68603516 C8.49693941 8.17215345 11.03750036 8.51812504 13.625 8.8125 C14.97078125 8.99329102 14.97078125 8.99329102 16.34375 9.17773438 C18.56066978 9.47253754 20.77813833 9.74562947 23 10 C23 10.66 23 11.32 23 12 C25.64 12.66 28.28 13.32 31 14 C30.31937468 16.46726679 29.48646888 17.71905056 27.26171875 19.00390625 C23.89589286 20.41742635 21.80936309 21.17985847 18.1875 20.375 C14.87492421 18.2928095 13.30597553 17.19608615 12.3125 13.3125 C12.209375 12.549375 12.10625 11.78625 12 11 C11.38511719 10.97421875 10.77023438 10.9484375 10.13671875 10.921875 C3.56289979 10.46055437 3.56289979 10.46055437 0.9375 8.3125 C-0.23506168 5.42018118 -0.21079572 3.09167049 0 0 Z " transform="translate(51 307)" class="color21201E svgShape"/><path fill="#ff1000" d="M0 0 C3 0.25 3 0.25 5 2.25 C5.25 5.25 5.25 5.25 5 8.25 C3 10.25 3 10.25 0.8359375 10.4453125 C-0.38222656 10.41050781 -0.38222656 10.41050781 -1.625 10.375 C-2.44226563 10.35695313 -3.25953125 10.33890625 -4.1015625 10.3203125 C-4.72804688 10.29710937 -5.35453125 10.27390625 -6 10.25 C-5.04878049 0.42073171 -5.04878049 0.42073171 0 0 Z " transform="translate(94 249.75)" class="colorEBBB2F svgShape"/><path fill="#12110f" d="M0 0 C0.66 0 1.32 0 2 0 C1.51096247 6.47974731 1.51096247 6.47974731 -0.71875 8.75 C-3.56596173 10.31011602 -5.06790748 10.14806602 -8.25 9.6875 C-9.58804688 9.50767578 -9.58804688 9.50767578 -10.953125 9.32421875 C-11.62859375 9.21722656 -12.3040625 9.11023438 -13 9 C-13.29390625 9.63421875 -13.5878125 10.2684375 -13.890625 10.921875 C-15.28776392 13.53905073 -16.20253966 14.06751322 -19 15 C-22.25 15.125 -22.25 15.125 -25 15 C-24.443125 14.731875 -23.88625 14.46375 -23.3125 14.1875 C-18.37424914 11.93288201 -18.37424914 11.93288201 -15 8 C-16.98567708 7.8046875 -18.97135417 7.609375 -20.95703125 7.4140625 C-23 7 -23 7 -26 5 C-17.7852349 4.83892617 -17.7852349 4.83892617 -14.5625 5.5 C-10.40892908 6.31045286 -6.21885377 6.07372754 -2 6 C-1.34 4.02 -0.68 2.04 0 0 Z " transform="translate(97 313)" class="color12110F svgShape"/><path fill="#1b1605" d="M0 0 C2.375 1.0625 2.375 1.0625 4 3 C4.55543436 6.81861121 4.53382262 9.05367809 2.625 12.4375 C-1.41739748 14.84368898 -5.40879515 14.31542629 -10 14 C-10.33 14.99 -10.66 15.98 -11 17 C-12.02755918 13.13276713 -11.92717371 10.62677363 -10.75 6.8125 C-10.49734375 5.95269531 -10.2446875 5.09289062 -9.984375 4.20703125 C-7.92184819 -0.4172848 -4.54308882 -0.46358049 0 0 Z M-8 4 C-8.45811675 5.97235333 -8.45811675 5.97235333 -8.625 8.125 C-8.74875 9.40375 -8.8725 10.6825 -9 12 C-7.54207116 12.05399736 -6.08357288 12.09279177 -4.625 12.125 C-3.40683594 12.15980469 -3.40683594 12.15980469 -2.1640625 12.1953125 C0.21342243 12.21370051 0.21342243 12.21370051 2 10 C2.33333333 7 2.33333333 7 2 4 C0.11499729 1.68436913 0.11499729 1.68436913 -3 1.75 C-6.11499729 1.68436913 -6.11499729 1.68436913 -8 4 Z " transform="translate(97 248)" class="color1B1605 svgShape"/><path fill="#ff1000" d="M0 0 C0.99 0.103125 1.98 0.20625 3 0.3125 C5.56687367 4.1628105 4.83288724 5.89819763 4 10.3125 C0.625 10.4375 0.625 10.4375 -3 10.3125 C-5 8.3125 -5 8.3125 -5.25 5.3125 C-4.90578549 1.18192588 -4.11441953 0.42858537 0 0 Z " transform="translate(75 246.688)" class="colorF1C030 svgShape"/><path fill="#eaecee" d="M0 0 C2.0836309 0.14151828 4.16689938 0.28837936 6.25 0.4375 C7.99023438 0.55931641 7.99023438 0.55931641 9.765625 0.68359375 C12.30977376 0.93247787 14.55953248 1.28114942 17 2 C15.25 5.875 15.25 5.875 13 7 C5.78273959 7.58203713 5.78273959 7.58203713 2.5625 5.1875 C1 3 1 3 0 0 Z " transform="translate(65 319)" class="colorEAECEE svgShape"/><path fill="#2d2b1f" d="M0 0 C0.33 0 0.66 0 1 0 C0.9278125 0.55945313 0.855625 1.11890625 0.78125 1.6953125 C-0.08061015 9.14082655 -0.0971102 16.51172488 0 24 C-0.66 24.33 -1.32 24.66 -2 25 C-4.57326114 19.85347771 -3.66676201 10.74845503 -2.328125 5.23046875 C-1.5 3.0625 -1.5 3.0625 0 0 Z " transform="translate(46 223)" class="color2D2B1F svgShape"/><path fill="#0d0a07" d="M0 0 C6.11485027 -0.09706112 11.93303301 0.22959149 18 1 C17.67 2.65 17.34 4.3 17 6 C16.01 5.34 15.02 4.68 14 4 C11.61917147 3.39578508 9.22024906 2.8609677 6.8125 2.375 C5.54019531 2.11460937 4.26789063 1.85421875 2.95703125 1.5859375 C1.98121094 1.39257812 1.00539063 1.19921875 0 1 C0 0.67 0 0.34 0 0 Z " transform="translate(80 308)" class="color0D0A07 svgShape"/><path fill="#3b2f0b" d="M0 0 C1.82980884 3.0928082 2.18980265 4.994956 1.7578125 8.546875 C1.66113281 9.39121094 1.56445312 10.23554688 1.46484375 11.10546875 C1.35269531 11.97816406 1.24054688 12.85085938 1.125 13.75 C1.02058594 14.63816406 0.91617188 15.52632813 0.80859375 16.44140625 C0.54983 18.62913615 0.27996212 20.81489881 0 23 C-0.33 23 -0.66 23 -1 23 C-2.1736381 14.94313304 -1.67968453 7.95420855 0 0 Z " transform="translate(85 261)" class="color3B2F0B svgShape"/><path fill="#1c160a" d="M0 0 C0.33 0 0.66 0 1 0 C1 1.65 1 3.3 1 5 C2.65 5.33 4.3 5.66 6 6 C6 6.33 6 6.66 6 7 C0.87416389 7.10251672 -3.94997778 7.03590199 -9 6 C-9 5.34 -9 4.68 -9 4 C-6.36 4 -3.72 4 -1 4 C-0.67 2.68 -0.34 1.36 0 0 Z " transform="translate(74 290)" class="color1C160A svgShape"/><path fill="#27251b" d="M0 0 C0.75410156 0.00322266 1.50820312 0.00644531 2.28515625 0.00976562 C3.06246094 0.01814453 3.83976562 0.02652344 4.640625 0.03515625 C5.43339844 0.03966797 6.22617188 0.04417969 7.04296875 0.04882812 C8.99222008 0.0605706 10.94143238 0.07850479 12.890625 0.09765625 C9.29312807 2.29762931 5.99182248 2.54993656 1.828125 2.84765625 C-0.01458984 2.99460938 -0.01458984 2.99460938 -1.89453125 3.14453125 C-5.109375 3.09765625 -5.109375 3.09765625 -8.109375 1.09765625 C-5.33213575 0.3107718 -2.88327423 -0.02184299 0 0 Z " transform="translate(82.11 194.902)" class="color27251B svgShape"/><path fill="#28241d" d="M0 0 C0.66 0 1.32 0 2 0 C1.51622419 6.4100295 1.51622419 6.4100295 -0.75 9 C-3.5806311 10.25805827 -5.08518324 9.89063845 -8 9 C-8 8.34 -8 7.68 -8 7 C-5.69 6.34 -3.38 5.68 -1 5 C-0.67 3.35 -0.34 1.7 0 0 Z " transform="translate(97 313)" class="color28241D svgShape"/><path fill="#181304" d="M0 0 C1.9375 2 1.9375 2 3 4 C2.01 4.495 2.01 4.495 1 5 C0.67 4.34 0.34 3.68 0 3 C-2.91652174 2.83318891 -2.91652174 2.83318891 -6 3 C-7.95216435 4.95216435 -8.84826645 6.53199953 -10 9 C-10.35789474 3.63157895 -10.35789474 3.63157895 -8.9375 1.125 C-5.85928089 -0.66235303 -3.47093932 -0.43386742 0 0 Z " transform="translate(78 245)" class="color181304 svgShape"/><path fill="#1f1711" d="M0 0 C1.08667969 0.11085938 2.17335938 0.22171875 3.29296875 0.3359375 C4.12441406 0.43132812 4.95585938 0.52671875 5.8125 0.625 C5.8125 1.615 5.8125 2.605 5.8125 3.625 C-4.74558656 2.66144647 -4.74558656 2.66144647 -9.1875 1.625 C-5.54331659 -0.80445561 -4.25826636 -0.4578781 0 0 Z " transform="translate(77.188 306.375)" class="color1F1711 svgShape"/><path fill="#1b1505" d="M0 0 C0.33 0 0.66 0 1 0 C1.2358396 5.77807024 0.86783046 10.51324804 -1 16 C-1.33 16 -1.66 16 -2 16 C-2.20674944 10.21101581 -1.59162079 5.57067277 0 0 Z " transform="translate(83 279)" class="color1B1505 svgShape"/><path fill="#1a160b" d="M0 0 C2.99298654 2.56541703 4.50639962 5.3726848 6 9 C6.1875 12.375 6.1875 12.375 6 15 C4.33251253 12.49876879 3.10045639 10.22323643 1.875 7.5 C1.52179687 6.7265625 1.16859375 5.953125 0.8046875 5.15625 C0 3 0 3 0 0 Z " transform="translate(52 263)" class="color1A160B svgShape"/><path fill="#372b12" d="M0 0 C0.33 1.32 0.66 2.64 1 4 C2.32 4.33 3.64 4.66 5 5 C4.67 5.66 4.34 6.32 4 7 C0.7 6.67 -2.6 6.34 -6 6 C-5.34 5.01 -4.68 4.02 -4 3 C-2.68 3 -1.36 3 0 3 C0 2.01 0 1.02 0 0 Z " transform="translate(82 292)" class="color372B12 svgShape"/><path fill="#1b1712" d="M0 0 C-0.33 0.53625 -0.66 1.0725 -1 1.625 C-2.20211302 4.05052826 -2.20211302 4.05052826 -2 7.125 C-2 8.07375 -2 9.0225 -2 10 C-2.66 10.66 -3.32 11.32 -4 12 C-5.52491998 8.95016004 -5.23562548 6.3576631 -5 3 C-3.37600669 0.7116458 -2.82814211 0 0 0 Z " transform="translate(58 293)" class="color1B1712 svgShape"/><path fill="#191612" d="M0 0 C2 2 2 2 2.875 4.5 C3.78208622 7.1395076 3.78208622 7.1395076 6.125 8.3125 C6.74375 8.539375 7.3625 8.76625 8 9 C6.35 9.33 4.7 9.66 3 10 C0.64551835 7.44931155 0.01672076 6.28982642 -0.1875 2.75 C-0.125625 1.8425 -0.06375 0.935 0 0 Z " transform="translate(51 307)" class="color191612 svgShape"/><path fill="#3e310c" d="M0 0 C0.66 0 1.32 0 2 0 C2.125 3.375 2.125 3.375 2 7 C0 9 0 9 -2.625 9.125 C-3.40875 9.08375 -4.1925 9.0425 -5 9 C-3.68 8.67 -2.36 8.34 -1 8 C-0.67 5.36 -0.34 2.72 0 0 Z " transform="translate(80 249)" class="color3E310C svgShape"/><path fill="#0e0b03" d="M0 0 C0.33 0 0.66 0 1 0 C2.35384615 6.4 2.35384615 6.4 0.5625 9.4375 C0.046875 9.953125 -0.46875 10.46875 -1 11 C-2.26264601 6.70700357 -1.62950412 4.12168689 0 0 Z " transform="translate(87 254)" class="color0E0B03 svgShape"/><path fill="#241d07" d="M0 0 C1.32 0.66 2.64 1.32 4 2 C2.824375 2.37125 2.824375 2.37125 1.625 2.75 C-1.32317108 4.15389099 -1.9024777 5.00675737 -3 8 C-3.75 6.25 -3.75 6.25 -4 4 C-2.0625 1.75 -2.0625 1.75 0 0 Z " transform="translate(91 248)" class="color241D07 svgShape"/><path fill="#010100" d="M0 0 C0.33 0 0.66 0 1 0 C1 1.65 1 3.3 1 5 C2.65 5.33 4.3 5.66 6 6 C6 6.33 6 6.66 6 7 C3.69 7 1.38 7 -1 7 C-1.33 6.34 -1.66 5.68 -2 5 C-1.34 5 -0.68 5 0 5 C0 3.35 0 1.7 0 0 Z " transform="translate(74 290)" class="color010100 svgShape"/><path fill="#121009" d="M0 0 C0.33 0.99 0.66 1.98 1 3 C-0.9375 6.1875 -0.9375 6.1875 -3 9 C-3.66 8.67 -4.32 8.34 -5 8 C-3.35 5.36 -1.7 2.72 0 0 Z " transform="translate(125 255)" class="color121009 svgShape"/></svg></g></svg>